<?xml version="1.0" standalone="no"?>
<!DOCTYPE svg PUBLIC "-//W3C//DTD SVG 20010904//EN"
 "http://www.w3.org/TR/2001/REC-SVG-20010904/DTD/svg10.dtd">
<svg version="1.0" xmlns="http://www.w3.org/2000/svg"
 width="960.000000pt" height="960.000000pt" viewBox="0 0 960.000000 960.000000"
 preserveAspectRatio="xMidYMid meet">
<metadata>
Created by potrace 1.11, written by Peter Selinger 2001-2013
</metadata>
<g transform="translate(0.000000,960.000000) scale(0.100000,-0.100000)"
fill="#000000" stroke="none">
<path d="M3879 9595 c-2 -1 -37 -6 -77 -9 -77 -7 -104 -10 -187 -22 -27 -4
-57 -8 -65 -9 -8 -1 -28 -4 -45 -8 -31 -7 -85 -17 -120 -22 -16 -3 -166 -42
-305 -79 -8 -2 -67 -23 -130 -46 -63 -23 -125 -44 -137 -47 -13 -3 -23 -9 -23
-14 0 -5 -7 -9 -15 -9 -22 0 -299 -138 -380 -188 -22 -14 -42 -24 -44 -23 -2
2 -7 -1 -10 -6 -3 -5 -24 -20 -46 -33 -22 -13 -44 -28 -50 -32 -5 -5 -48 -35
-95 -68 -47 -33 -97 -70 -112 -82 -15 -13 -42 -34 -59 -48 -18 -14 -43 -35
-55 -47 -13 -13 -25 -23 -28 -23 -5 0 -58 -50 -181 -169 -85 -83 -160 -164
-210 -226 -16 -20 -45 -53 -62 -73 -18 -21 -33 -40 -33 -44 0 -4 -11 -20 -25
-35 -40 -46 -45 -52 -45 -59 0 -4 -9 -17 -19 -28 -24 -26 -172 -266 -164 -266
3 0 -1 -8 -9 -17 -20 -24 -149 -295 -154 -323 0 -3 -4 -12 -7 -20 -30 -70
-108 -339 -122 -419 -9 -53 -15 -85 -20 -111 -13 -65 -22 -132 -32 -240 -9
-97 -9 -518 0 -598 13 -120 19 -168 23 -192 3 -14 7 -37 10 -52 2 -16 6 -40 8
-55 8 -49 16 -87 23 -113 4 -14 8 -32 9 -40 5 -25 25 -104 32 -120 3 -8 7 -19
7 -25 1 -5 5 -17 8 -25 3 -8 13 -40 22 -70 10 -30 24 -65 31 -77 8 -13 12 -23
10 -23 -10 0 179 -397 195 -410 3 -3 14 -21 24 -40 19 -36 23 -43 95 -150 45
-67 140 -189 175 -225 11 -12 40 -45 65 -75 25 -29 53 -60 64 -69 10 -9 30
-29 45 -45 32 -36 120 -123 197 -197 73 -69 269 -225 309 -246 17 -9 32 -19
35 -23 10 -13 99 -70 109 -70 6 0 11 -4 11 -10 0 -5 7 -10 15 -10 8 0 15 -5
15 -11 0 -5 4 -8 9 -5 5 3 14 -1 21 -9 7 -8 19 -15 26 -15 8 0 14 -3 14 -7 0
-5 10 -13 23 -19 12 -6 58 -29 102 -51 107 -55 297 -143 308 -143 3 0 18 -5
34 -12 15 -6 30 -12 33 -13 3 -1 12 -4 20 -7 53 -21 239 -79 280 -88 19 -5 64
-15 100 -24 84 -21 146 -34 190 -41 19 -3 46 -7 60 -10 203 -36 835 -49 1020
-21 14 2 43 6 65 10 22 3 58 8 80 11 34 4 154 25 220 39 43 9 261 67 275 73 8
3 20 7 26 8 19 5 138 47 171 61 17 8 34 14 38 14 7 0 22 6 115 48 25 11 47 20
50 20 9 0 223 112 237 124 7 6 13 7 13 2 0 -5 4 -4 8 2 4 6 30 24 57 40 79 45
157 97 238 157 29 21 63 46 76 55 13 9 28 22 35 27 6 6 25 21 41 34 111 85
315 287 445 441 12 14 34 39 48 55 15 17 47 55 72 85 25 30 47 57 50 60 3 3
37 46 75 95 38 50 73 95 79 100 6 6 26 32 43 60 37 58 35 63 -42 88 -37 12
-780 264 -885 300 -36 13 -207 69 -233 77 -32 10 -34 9 -162 -135 -98 -109
-258 -264 -325 -314 -19 -14 -37 -28 -40 -31 -11 -11 -119 -90 -124 -90 -2 0
-28 -16 -57 -35 -46 -30 -200 -109 -264 -136 -33 -14 -70 -27 -75 -26 -3 0
-16 -5 -29 -12 -13 -7 -55 -22 -95 -32 -39 -11 -78 -22 -86 -26 -8 -3 -21 -7
-29 -9 -7 -1 -34 -8 -60 -14 -25 -6 -68 -13 -96 -15 -27 -3 -63 -7 -80 -9
-143 -20 -588 -21 -745 -2 -46 6 -65 9 -155 26 -101 19 -110 21 -120 24 -5 2
-31 9 -58 16 -26 7 -50 16 -53 21 -3 5 -12 9 -20 9 -22 0 -195 81 -218 102
-19 17 -17 21 101 135 66 65 180 174 252 243 73 69 163 154 200 190 93 88 348
330 391 370 19 18 94 87 165 155 72 67 148 139 170 160 37 34 226 212 370 347
122 115 176 165 286 268 62 58 129 121 149 140 20 19 92 87 159 150 68 63 143
133 166 155 23 22 93 87 155 145 61 58 133 125 159 150 27 25 110 104 186 175
168 158 292 275 356 335 26 25 102 97 170 160 67 63 174 165 238 227 l116 112
-195 193 c-219 216 -302 294 -375 353 -28 21 -52 42 -55 45 -14 15 -152 110
-159 110 -5 0 -11 3 -13 8 -3 7 -95 72 -103 72 -2 0 -42 22 -89 50 -106 61
-291 150 -311 150 -8 0 -15 4 -15 9 0 5 -19 15 -42 24 -24 8 -92 33 -153 54
-60 22 -117 43 -125 46 -20 6 -171 48 -190 52 -8 2 -44 10 -80 18 -58 14 -185
37 -280 52 -38 6 -97 13 -175 20 -61 6 -641 15 -646 10z m186 -1199 c22 9 127
11 163 3 17 -4 32 -4 32 0 0 3 19 5 43 4 23 -2 80 -5 127 -7 104 -5 233 -15
280 -23 19 -3 44 -7 55 -8 11 -1 20 -3 20 -4 0 -1 11 -4 25 -6 39 -6 137 -32
157 -43 10 -6 20 -10 23 -11 19 -3 70 -27 70 -32 0 -3 -48 -51 -106 -105 -59
-54 -133 -124 -165 -154 -32 -30 -84 -79 -116 -109 -32 -30 -116 -109 -188
-176 -71 -67 -148 -139 -170 -159 -42 -40 -245 -231 -351 -331 -34 -33 -104
-98 -154 -145 -51 -47 -118 -110 -149 -140 -65 -62 -154 -146 -351 -330 -73
-69 -150 -141 -170 -160 -21 -19 -93 -87 -160 -150 -68 -63 -142 -133 -165
-155 -23 -22 -78 -74 -122 -115 -83 -77 -299 -281 -407 -383 l-61 -57 -17 22
c-9 13 -16 25 -16 28 1 3 -9 24 -21 47 -11 23 -22 50 -24 60 -1 10 -5 23 -9
28 -12 20 -39 161 -43 225 -5 82 -6 643 0 730 2 36 13 101 25 145 28 105 21
84 67 210 32 87 126 280 156 319 4 6 22 34 40 62 18 28 40 58 50 68 9 10 17
21 17 24 0 4 10 18 23 32 12 14 38 45 58 70 20 25 65 74 100 109 98 99 325
281 350 281 5 0 9 5 9 10 0 6 5 10 11 10 6 0 23 9 38 19 104 75 406 204 561
241 25 6 52 12 60 14 74 18 205 37 281 41 50 2 94 7 98 10 3 4 7 2 9 -4 2 -5
10 -7 17 -5z"/>
<path d="M7423 7548 c-24 -5 -43 -13 -43 -17 0 -5 -27 -16 -60 -25 -33 -9 -60
-21 -60 -25 0 -5 -20 -14 -45 -20 -28 -7 -45 -17 -45 -26 0 -9 -12 -18 -29
-21 -17 -4 -38 -17 -48 -30 -10 -13 -23 -24 -29 -24 -6 0 -36 -24 -66 -53 -30
-29 -69 -63 -86 -76 -18 -12 -30 -27 -27 -31 3 -5 -3 -15 -15 -22 -11 -7 -20
-21 -20 -31 0 -10 -7 -20 -15 -23 -8 -3 -17 -15 -20 -25 -4 -11 -18 -31 -32
-45 -29 -30 -81 -139 -89 -191 -9 -53 -11 -411 -3 -506 6 -63 15 -94 45 -155
42 -84 120 -202 141 -215 7 -5 19 -15 26 -23 39 -48 84 -88 95 -86 6 2 12 -4
12 -13 0 -9 16 -23 35 -31 19 -8 35 -19 35 -24 0 -6 12 -16 27 -23 15 -6 37
-22 50 -34 12 -13 33 -23 46 -23 26 0 52 -22 40 -33 -3 -4 -4 -7 -1 -7 37 0
113 -24 126 -40 14 -16 32 -20 110 -23 78 -4 96 -7 112 -25 17 -18 29 -20 118
-17 79 2 104 7 121 21 16 14 41 19 114 21 106 3 119 6 111 28 -3 8 -2 15 2 16
9 1 19 2 80 14 20 3 34 13 37 25 4 15 14 20 39 20 24 0 41 7 56 25 12 14 28
25 35 25 18 0 49 34 40 43 -3 4 1 7 9 7 8 0 27 9 41 20 14 11 32 20 41 20 9 0
21 11 26 25 5 14 17 28 25 32 9 3 14 11 11 18 -2 7 5 17 17 22 20 10 55 57
153 208 l39 60 0 347 0 347 -25 48 c-14 26 -28 50 -31 53 -3 3 -14 21 -24 40
-10 19 -21 37 -24 40 -3 3 -18 21 -32 40 -49 65 -199 210 -217 210 -5 0 -19
11 -32 25 -13 14 -29 25 -35 25 -6 0 -21 11 -33 25 -12 14 -30 25 -40 25 -9 0
-34 9 -55 20 -20 11 -45 20 -54 20 -9 0 -35 9 -58 20 -23 11 -57 22 -76 25
-61 10 -503 12 -546 3z"/>
<path d="M7005 3684 c-8 -12 -17 -36 -20 -53 -12 -68 -15 -471 -17 -2011 l-1
-1615 771 -3 c730 -2 772 -1 773 15 3 60 -2 3137 -5 3353 -5 283 -9 319 -35
321 -9 1 -27 3 -41 6 -14 2 -337 5 -717 7 l-693 3 -15 -23z"/>
</g>
</svg>
