<?xml version="1.0" standalone="no"?>
<!DOCTYPE svg PUBLIC "-//W3C//DTD SVG 20010904//EN"
 "http://www.w3.org/TR/2001/REC-SVG-20010904/DTD/svg10.dtd">
<svg version="1.0" xmlns="http://www.w3.org/2000/svg"
 width="700.000000pt" height="700.000000pt" viewBox="0 0 700.000000 700.000000"
 preserveAspectRatio="xMidYMid meet">
<metadata>
Created by potrace 1.14, written by Peter Selinger 2001-2017
</metadata>
<g transform="translate(0.000000,700.000000) scale(0.100000,-0.100000)"
fill="#000000" stroke="none">
<path d="M3164 6992 c5 -9 -2 -12 -26 -11 -18 0 -55 -3 -83 -7 -27 -4 -65 -7
-82 -8 -18 0 -33 -4 -33 -8 0 -4 -7 -4 -17 -1 -9 4 -14 2 -11 -3 4 -5 -13 -10
-35 -11 -59 -4 -77 -6 -77 -13 0 -3 -12 -5 -27 -4 -16 1 -34 -3 -40 -9 -7 -5
-22 -7 -32 -4 -11 3 -21 1 -23 -4 -2 -5 -22 -10 -44 -12 -26 -1 -40 -6 -37
-13 3 -7 -5 -10 -21 -7 -16 3 -26 1 -26 -6 0 -6 -5 -11 -11 -11 -5 0 -7 6 -3
13 6 9 4 9 -8 -1 -9 -7 -27 -15 -39 -18 -13 -3 -28 -6 -34 -7 -5 -2 -14 -5
-20 -8 -14 -8 -68 -23 -77 -21 -5 1 -8 -2 -8 -8 0 -5 -3 -9 -7 -9 -5 1 -11 0
-15 -1 -16 -5 -28 -8 -44 -9 -8 0 -12 -5 -9 -11 3 -6 -1 -7 -9 -4 -9 3 -16 2
-16 -3 0 -5 -7 -10 -15 -11 -8 -1 -22 -3 -30 -4 -8 -1 -15 -5 -15 -10 0 -4 -3
-7 -7 -6 -5 1 -21 -4 -36 -10 -16 -7 -33 -12 -38 -12 -6 0 -7 -6 -3 -12 5 -8
0 -7 -11 2 -10 8 -16 10 -12 4 8 -13 -19 -27 -34 -18 -5 3 -9 0 -9 -5 0 -6 -7
-11 -15 -11 -8 0 -15 -5 -15 -11 0 -5 -4 -7 -10 -4 -5 3 -10 2 -10 -3 0 -5
-13 -12 -29 -15 -16 -3 -35 -13 -44 -21 -8 -8 -26 -18 -41 -22 -14 -3 -26 -10
-26 -16 0 -5 -4 -7 -9 -4 -5 3 -14 0 -20 -8 -6 -7 -29 -21 -51 -31 -22 -10
-40 -22 -40 -27 0 -5 -5 -6 -10 -3 -6 3 -10 1 -10 -5 0 -6 -4 -9 -9 -6 -5 3
-14 -1 -21 -9 -7 -8 -19 -15 -27 -15 -8 0 -11 -4 -8 -10 3 -5 1 -10 -6 -10
-18 0 -169 -100 -169 -112 0 -5 -4 -7 -9 -3 -6 3 -13 -1 -18 -9 -4 -8 -10 -14
-13 -13 -5 2 -23 -11 -61 -45 -10 -10 -19 -16 -19 -13 0 5 -47 -34 -87 -72
-13 -13 -27 -23 -30 -23 -3 0 -14 -10 -24 -22 -11 -11 -19 -18 -19 -15 0 4 -8
-1 -18 -10 -11 -10 -17 -21 -15 -25 2 -5 -1 -8 -7 -8 -6 0 -30 -19 -54 -42
-23 -24 -59 -58 -79 -76 -21 -18 -35 -37 -32 -43 4 -5 2 -8 -3 -7 -11 3 -112
-101 -112 -115 0 -5 -5 -5 -10 -2 -5 3 -10 1 -10 -6 0 -7 -7 -19 -15 -28 -42
-44 -75 -87 -75 -100 0 -8 -3 -11 -6 -8 -9 8 -54 -43 -54 -60 0 -7 -4 -13 -10
-13 -5 0 -10 -7 -10 -16 0 -8 -5 -12 -10 -9 -6 3 -10 -1 -10 -9 0 -9 -5 -16
-11 -16 -5 0 -8 -4 -5 -8 3 -5 -4 -14 -14 -22 -10 -8 -17 -17 -14 -22 3 -4 0
-8 -5 -8 -6 0 -11 -7 -11 -15 0 -8 -4 -15 -10 -15 -5 0 -10 -7 -10 -15 0 -8
-4 -15 -10 -15 -5 0 -10 -5 -10 -11 0 -7 -8 -18 -17 -26 -11 -9 -12 -12 -3 -7
9 4 7 -2 -6 -17 -12 -13 -24 -32 -27 -41 -4 -10 -11 -18 -17 -18 -6 0 -9 -4
-6 -9 3 -5 -1 -14 -9 -21 -8 -7 -13 -16 -10 -20 3 -5 1 -11 -5 -15 -16 -10
-50 -82 -42 -90 4 -5 2 -5 -5 -2 -7 5 -16 -6 -23 -28 -6 -19 -15 -33 -19 -30
-5 2 -8 -5 -7 -18 0 -12 -4 -21 -9 -20 -6 1 -11 -6 -12 -15 -2 -32 -8 -47 -20
-57 -7 -5 -14 -20 -16 -33 -2 -13 -9 -27 -16 -31 -7 -5 -12 -11 -11 -15 1 -4
-4 -21 -11 -39 -6 -18 -11 -35 -10 -39 0 -5 -4 -8 -10 -8 -6 0 -9 -7 -6 -15 4
-8 2 -17 -4 -21 -6 -3 -8 -13 -5 -21 3 -8 1 -11 -4 -8 -6 3 -11 1 -11 -4 -2
-14 -6 -29 -9 -36 -1 -3 -4 -9 -5 -15 -1 -5 -4 -13 -5 -17 -1 -5 -2 -11 -1
-15 0 -5 -4 -8 -10 -8 -6 0 -9 -7 -5 -15 3 -8 1 -15 -4 -15 -6 0 -9 -3 -8 -7
1 -5 -4 -26 -10 -47 -6 -22 -8 -44 -5 -49 3 -6 1 -7 -5 -3 -11 6 -18 -19 -13
-46 0 -5 -3 -8 -8 -8 -6 0 -8 -9 -6 -20 2 -11 -1 -20 -6 -20 -6 0 -8 -4 -5 -8
3 -5 -1 -20 -9 -35 -10 -19 -10 -27 -2 -31 9 -3 9 -7 0 -13 -7 -5 -14 -18 -16
-28 -1 -11 -7 -26 -11 -34 -7 -10 -5 -12 3 -6 10 6 11 3 2 -13 -6 -11 -11 -35
-11 -52 0 -17 -3 -29 -8 -27 -4 3 -7 -7 -8 -21 0 -15 -4 -45 -8 -67 -4 -22 -9
-53 -10 -70 -2 -16 -4 -32 -6 -35 -1 -3 -1 -16 0 -29 1 -13 -2 -21 -7 -18 -4
3 -8 -24 -7 -58 0 -35 -3 -62 -7 -59 -9 5 -4 -30 7 -48 4 -7 3 -8 -4 -4 -9 5
-12 -65 -11 -278 0 -158 4 -284 7 -282 4 2 8 -7 8 -20 1 -15 -2 -21 -10 -17
-6 4 -5 -1 3 -10 7 -9 10 -17 5 -17 -4 0 -3 -5 4 -12 7 -7 8 -17 2 -29 -6 -10
-6 -20 -2 -23 4 -2 9 -23 10 -46 2 -22 7 -52 12 -65 7 -18 6 -25 -3 -25 -9 0
-8 -3 1 -9 8 -4 13 -11 13 -15 -1 -3 -1 -9 0 -13 1 -5 0 -18 -1 -30 -1 -13 4
-23 12 -23 10 0 9 -3 -2 -10 -12 -7 -12 -10 -1 -10 7 0 11 -6 8 -15 -4 -8 -2
-17 4 -20 5 -4 7 -11 3 -16 -3 -5 0 -17 8 -26 11 -14 11 -16 -2 -8 -12 6 -13
5 -3 -6 7 -7 13 -28 13 -47 0 -18 4 -31 8 -28 4 2 8 -5 9 -17 1 -12 3 -31 6
-42 3 -11 7 -27 9 -35 1 -8 8 -18 13 -22 6 -5 4 -8 -5 -8 -13 0 -13 -2 -1 -9
12 -8 19 -32 23 -78 1 -7 5 -13 10 -13 4 0 8 -11 8 -25 0 -14 4 -25 8 -25 7 0
11 -16 14 -57 1 -7 5 -13 10 -13 4 0 8 -9 8 -19 0 -11 5 -23 11 -26 6 -4 8
-13 5 -20 -3 -8 2 -19 9 -25 8 -7 14 -15 13 -18 -4 -14 36 -108 51 -120 12
-10 12 -12 0 -12 -8 0 -10 -3 -4 -8 6 -4 17 -20 24 -37 18 -37 17 -35 26 -62
4 -13 12 -23 17 -23 6 0 8 -7 4 -15 -3 -8 1 -18 8 -22 13 -8 30 -43 28 -55 -1
-5 3 -8 8 -8 6 0 10 -4 10 -10 0 -5 13 -31 29 -59 16 -27 27 -52 24 -55 -4 -3
-1 -6 5 -6 7 0 12 -7 12 -16 0 -8 4 -12 10 -9 5 3 10 -3 10 -14 0 -12 5 -21
10 -21 6 0 10 -7 10 -15 0 -8 5 -15 10 -15 6 0 10 -7 10 -15 0 -9 7 -18 15
-21 8 -4 13 -9 10 -14 -2 -4 4 -16 15 -28 11 -11 21 -26 22 -33 2 -7 17 -26
33 -43 17 -17 28 -32 25 -33 -6 -4 23 -43 58 -78 12 -12 22 -27 22 -34 0 -6 4
-11 8 -11 5 0 15 -11 22 -25 7 -13 17 -22 22 -19 4 3 8 -2 8 -10 0 -8 10 -22
22 -30 12 -9 19 -16 14 -16 -5 0 1 -8 12 -19 12 -10 19 -21 15 -25 -3 -3 -1
-6 6 -6 18 0 62 -51 54 -64 -3 -6 -3 -8 1 -4 10 9 155 -134 148 -146 -3 -5 0
-6 6 -2 6 4 19 -5 28 -19 9 -14 23 -25 31 -25 8 0 11 -4 8 -10 -3 -5 0 -10 8
-10 8 0 22 -11 33 -24 10 -14 21 -23 25 -20 4 2 19 -12 35 -31 15 -19 29 -33
32 -31 2 3 17 -9 33 -25 16 -16 29 -26 29 -22 0 3 12 -5 27 -19 16 -14 45 -36
65 -50 21 -14 35 -28 31 -31 -3 -4 3 -7 15 -7 12 0 22 -4 22 -10 0 -5 7 -10
15 -10 7 0 18 -6 22 -14 4 -8 15 -16 23 -18 8 -2 23 -11 32 -21 10 -11 22 -16
29 -11 8 4 9 3 5 -4 -5 -8 1 -12 14 -12 12 0 19 -4 16 -8 -2 -4 10 -14 27 -21
18 -8 39 -20 47 -26 8 -7 40 -25 70 -41 30 -15 58 -34 63 -41 4 -6 14 -10 22
-7 8 4 15 1 15 -5 0 -6 9 -11 20 -11 11 0 20 -4 20 -10 0 -5 7 -10 15 -10 8 0
15 -5 15 -11 0 -5 5 -7 11 -4 5 4 20 -1 31 -12 12 -10 18 -12 14 -5 -7 11 -4
11 12 1 12 -7 19 -17 16 -21 -3 -4 1 -5 9 -2 8 3 21 -1 28 -9 7 -8 22 -12 33
-9 14 4 17 2 11 -8 -5 -8 -3 -11 6 -8 8 3 29 -4 47 -14 18 -10 41 -18 52 -18
11 0 20 -4 20 -10 0 -5 14 -10 31 -10 20 0 28 -4 23 -12 -4 -6 -3 -8 3 -5 5 3
21 0 36 -8 14 -7 28 -11 31 -8 3 3 12 1 19 -5 8 -7 17 -9 20 -5 4 3 7 2 7 -3
0 -5 12 -11 27 -12 15 -1 29 -5 32 -10 3 -4 15 -8 26 -9 28 -4 46 -8 75 -20
14 -6 31 -8 39 -5 8 3 12 1 8 -5 -3 -5 0 -10 8 -10 8 0 12 3 10 7 -2 4 2 7 10
7 8 0 13 -5 12 -11 -1 -6 6 -10 16 -8 10 2 26 -3 35 -10 13 -11 14 -11 7 2 -7
12 -6 13 6 3 9 -7 32 -14 52 -15 20 -2 37 -5 37 -8 0 -3 19 -6 42 -8 22 -1 46
-5 51 -9 6 -3 33 -8 61 -10 28 -2 57 -5 64 -5 6 -1 12 -6 12 -11 0 -5 6 -4 14
2 8 7 17 8 20 3 3 -5 20 -8 37 -6 18 2 37 0 43 -5 16 -13 554 -13 579 0 14 8
18 8 13 0 -4 -6 -2 -11 3 -11 6 0 11 5 11 10 0 6 5 10 11 10 5 0 7 -4 4 -10
-4 -6 2 -7 17 -2 13 5 44 8 70 8 25 -1 44 2 41 7 -2 4 13 8 34 8 47 2 96 6
103 9 3 1 8 2 13 1 4 0 7 2 7 6 0 5 17 8 38 7 20 0 42 4 49 8 6 5 25 10 42 10
17 1 29 4 27 7 -2 3 8 7 22 8 45 2 82 9 89 16 3 4 16 7 28 7 11 0 26 5 33 12
7 7 12 9 12 5 0 -3 18 0 40 8 22 8 40 12 40 8 0 -3 7 0 15 7 8 7 15 9 15 5 0
-4 7 -2 15 5 8 7 15 9 15 5 0 -4 6 -2 14 4 7 6 22 8 31 4 13 -4 16 -3 11 5 -5
8 1 12 17 12 13 0 27 3 31 7 6 6 68 31 91 36 6 2 16 6 23 10 6 5 17 5 22 2 6
-3 10 1 10 9 0 10 6 13 15 10 8 -4 15 -1 15 6 0 6 4 9 9 5 5 -3 15 1 23 8 7 7
23 12 36 11 12 -1 20 1 17 4 -6 6 84 52 103 52 6 0 12 5 12 11 0 6 6 9 14 6 8
-3 17 1 20 10 4 8 13 13 20 10 8 -3 17 1 20 9 3 9 10 12 16 9 5 -3 10 -2 10 2
0 5 20 17 45 28 25 11 45 23 45 28 0 4 7 7 15 7 8 0 15 4 15 9 0 5 11 12 25
15 14 4 25 11 25 17 0 6 5 7 10 4 6 -3 10 -2 10 3 0 6 11 13 25 16 14 4 23 11
20 16 -3 6 1 10 9 10 9 0 16 5 16 11 0 5 4 8 8 5 5 -3 21 6 37 20 15 13 34 24
42 24 7 0 13 3 13 8 0 4 17 18 38 32 20 14 41 30 45 37 4 7 13 13 19 13 6 0
21 11 34 26 13 14 24 23 24 20 0 -6 15 6 73 56 18 15 36 28 40 28 5 0 5 5 2
10 -3 6 0 10 8 10 8 0 17 7 21 15 3 8 11 14 18 13 7 -2 12 2 11 7 0 6 5 16 13
23 8 7 14 10 14 7 0 -3 56 50 125 119 69 69 125 129 125 133 0 5 9 15 19 23
11 7 18 17 16 21 -3 4 2 10 11 13 8 3 12 11 8 17 -4 7 -3 9 3 6 6 -4 19 5 29
19 11 14 26 34 34 44 8 10 22 28 30 41 8 12 30 39 48 59 17 21 32 41 32 44 0
4 6 14 13 21 30 35 37 45 30 45 -4 0 1 7 11 15 11 8 16 15 12 15 -4 0 -1 7 6
15 29 32 39 45 33 45 -3 0 3 10 14 22 11 11 18 25 15 29 -2 4 2 11 9 16 7 4
19 23 26 40 7 18 17 30 22 27 5 -3 8 -2 7 3 -4 15 13 53 24 53 6 0 8 3 5 7 -4
3 -2 12 4 20 6 7 8 13 4 13 -4 0 3 9 16 21 13 11 17 17 9 13 -12 -7 -13 -5 -3
8 7 8 11 18 8 21 -3 4 -2 5 2 2 7 -6 33 41 33 62 0 8 4 12 8 9 4 -2 9 5 9 17
1 12 7 23 12 25 5 2 7 10 4 19 -4 11 -2 14 5 9 8 -5 12 0 12 12 0 11 6 25 14
32 8 6 13 17 10 25 -3 7 0 16 5 20 6 3 9 11 6 16 -4 5 0 12 9 15 8 3 13 14 11
25 -2 10 1 19 6 19 6 0 8 4 4 9 -3 5 0 13 6 16 5 4 8 14 5 22 -3 8 -1 11 4 8
6 -3 10 5 10 19 0 14 4 26 9 26 5 0 8 12 6 26 -1 15 3 28 11 31 8 3 11 9 9 14
-3 5 1 21 9 37 8 16 12 32 9 36 -4 3 -1 6 5 6 7 0 12 5 12 11 0 5 -6 7 -12 3
-7 -4 -4 2 6 14 11 12 16 22 12 22 -3 0 0 16 9 35 10 25 11 34 2 28 -9 -5 -9
-4 0 8 11 13 23 55 25 87 1 6 4 12 8 12 4 0 5 11 2 25 -2 15 0 25 7 25 7 0 9
5 5 11 -3 6 0 15 7 20 11 7 11 9 1 9 -10 0 -10 5 -1 22 7 13 14 41 15 62 2 22
6 47 10 55 5 14 12 71 16 131 0 8 5 21 11 28 6 8 6 12 -2 12 -7 0 -8 8 -2 23
4 12 7 41 7 64 -1 22 2 39 5 37 4 -2 7 116 8 263 1 203 -2 269 -12 275 -9 6
-9 8 1 8 10 0 10 5 1 21 -8 16 -8 20 1 14 9 -6 9 -3 1 12 -6 11 -7 23 -3 27 3
4 0 11 -8 16 -8 6 -10 10 -5 10 6 0 10 15 10 34 0 19 -3 32 -8 29 -4 -2 -5 6
-3 19 2 13 -2 29 -8 37 -9 12 -8 13 3 6 11 -6 12 -5 5 6 -5 8 -9 21 -9 29 0 8
-4 21 -9 29 -7 11 -6 12 5 6 8 -5 5 1 -5 13 -11 13 -14 22 -7 22 8 0 9 6 3 18
-5 9 -8 27 -7 40 1 12 -1 22 -4 22 -4 0 -8 10 -9 23 -3 34 -7 51 -13 62 -4 6
-5 20 -4 33 1 12 -2 22 -6 22 -4 0 -6 9 -4 20 2 11 -1 20 -7 20 -5 0 -8 6 -5
14 3 7 -1 25 -8 39 -7 14 -10 28 -7 32 4 3 0 10 -8 15 -13 9 -13 10 0 10 11 0
12 2 3 8 -7 5 -14 20 -15 35 -1 15 -6 27 -11 27 -5 0 -7 6 -4 13 2 6 -2 25
-10 40 -8 15 -11 32 -8 37 3 6 3 10 -2 10 -9 0 -34 64 -36 93 -1 9 -5 17 -10
17 -5 0 -7 9 -4 20 3 11 0 18 -6 17 -6 -1 -12 4 -13 11 -1 6 -3 15 -4 20 -1 4
-2 10 -1 15 0 4 -3 7 -9 7 -5 0 -7 7 -4 15 4 8 1 15 -5 15 -6 0 -10 3 -9 8 1
4 -3 17 -10 28 -6 12 -8 24 -5 28 3 3 1 6 -5 6 -7 0 -12 9 -12 20 0 11 -4 20
-10 20 -5 0 -9 3 -8 8 3 10 -42 104 -60 125 -8 9 -13 20 -9 23 3 3 2 11 -4 18
-25 30 -57 85 -51 90 3 3 1 6 -4 6 -6 0 -16 16 -24 35 -8 19 -18 35 -22 35 -5
0 -6 5 -3 10 3 6 1 10 -5 10 -11 0 -35 48 -31 63 1 5 -2 6 -7 3 -4 -2 -17 12
-28 32 -10 20 -29 48 -42 62 -12 14 -25 33 -28 43 -3 9 -10 17 -15 17 -5 0 -9
6 -9 14 0 8 -7 16 -15 20 -8 3 -14 11 -13 18 2 7 -3 12 -9 10 -7 -1 -13 5 -13
13 0 7 -7 18 -16 23 -9 5 -16 13 -16 18 -1 16 -24 44 -31 37 -4 -3 -7 -1 -7 5
0 13 -24 45 -52 70 -9 9 -15 19 -12 23 2 4 -5 10 -16 14 -11 3 -20 11 -20 16
0 6 -23 33 -51 60 -28 27 -47 49 -43 49 4 0 -1 6 -11 14 -11 8 -23 12 -27 10
-4 -3 -5 2 -2 10 4 11 0 16 -10 16 -9 0 -16 7 -16 15 0 8 -4 15 -10 15 -5 0
-25 16 -44 35 -20 19 -41 35 -47 35 -7 0 -10 3 -6 6 8 8 -16 33 -25 27 -5 -2
-8 3 -8 11 0 9 -3 15 -7 14 -5 -2 -18 6 -31 17 -28 24 -81 70 -103 90 -9 8
-19 15 -23 15 -4 0 -13 6 -20 13 -19 18 -60 48 -70 50 -5 1 -25 16 -44 34 -19
18 -39 30 -44 27 -4 -3 -8 0 -8 6 0 6 -11 15 -25 20 -14 5 -25 14 -25 20 0 6
-4 8 -10 5 -5 -3 -10 -2 -10 3 0 6 -14 15 -31 21 -17 6 -28 15 -24 21 3 6 0 7
-9 4 -9 -3 -16 -2 -16 3 0 5 -16 15 -35 23 -19 8 -35 18 -35 22 0 5 -5 6 -10
3 -6 -3 -13 1 -16 9 -3 9 -10 13 -15 10 -5 -3 -12 2 -15 10 -3 9 -10 14 -14
11 -5 -3 -25 6 -45 20 -21 13 -41 22 -46 19 -5 -3 -9 -1 -9 4 0 9 -78 46 -92
43 -5 0 -8 4 -8 10 0 6 -7 8 -16 5 -11 -4 -15 -2 -11 6 3 9 -6 14 -26 15 -17
1 -34 8 -39 15 -4 7 -8 9 -8 4 0 -5 -7 -3 -15 4 -8 7 -15 9 -15 4 0 -5 -4 -3
-9 4 -4 7 -18 14 -29 15 -12 1 -22 5 -22 9 0 4 -11 8 -25 8 -14 0 -25 3 -25 8
0 8 -71 32 -95 32 -9 0 -14 4 -11 8 2 4 -7 9 -21 10 -13 1 -30 5 -36 9 -7 4
-21 9 -32 10 -10 2 -22 8 -26 14 -5 8 -8 8 -13 0 -5 -8 -14 -7 -29 3 -12 8
-30 12 -40 11 -10 -2 -14 1 -10 8 4 6 0 8 -10 4 -10 -3 -17 -2 -17 2 0 5 -9 7
-20 4 -11 -3 -20 -1 -20 4 0 5 -12 10 -27 11 -29 3 -68 9 -68 12 0 3 -39 10
-67 13 -16 1 -28 4 -28 7 0 3 -8 6 -17 7 -10 1 -35 2 -55 4 -21 1 -38 5 -38 9
0 4 -18 6 -40 6 -22 -1 -40 2 -40 6 0 3 -12 5 -26 2 -14 -3 -23 -1 -21 3 3 5
-16 8 -41 7 -26 -1 -53 3 -59 8 -9 7 -13 7 -13 -2 0 -9 -4 -9 -12 -2 -20 15
-538 14 -557 -1 -12 -9 -13 -9 -7 1 4 6 3 12 -1 12 -5 0 -15 -6 -22 -12 -11
-10 -13 -10 -7 0 4 6 2 12 -3 12 -6 0 -11 -5 -11 -11 0 -8 -6 -7 -17 2 -12 10
-14 10 -9 1z m251 -292 c9 8 15 8 15 2 0 -11 38 -10 57 1 6 4 14 4 16 0 3 -5
48 -8 101 -7 52 0 93 -2 91 -5 -1 -3 29 -6 68 -6 40 1 80 -3 90 -7 11 -6 17
-5 17 4 0 8 3 9 8 3 8 -11 17 -14 61 -17 17 -1 31 -7 31 -13 0 -6 3 -7 8 0 9
12 36 19 28 7 -3 -5 13 -9 36 -10 22 -1 48 -8 56 -14 13 -11 14 -10 7 2 -7 12
-6 13 6 5 8 -6 28 -12 44 -14 17 -2 33 -8 37 -15 5 -7 8 -6 8 4 0 9 3 11 8 5
4 -6 21 -12 37 -14 17 -1 35 -6 40 -9 11 -7 13 -7 59 -17 16 -3 36 -10 45 -14
9 -5 21 -6 28 -4 6 2 14 -1 18 -6 3 -6 17 -11 30 -11 13 0 27 -5 30 -10 4 -6
10 -8 15 -5 5 3 11 1 15 -5 4 -6 11 -8 16 -5 5 4 9 2 9 -3 0 -8 6 -10 49 -14
11 -1 17 -7 14 -12 -4 -5 1 -7 10 -3 8 3 21 0 27 -8 6 -7 26 -16 45 -19 19 -4
35 -11 35 -17 0 -6 4 -8 9 -4 5 3 12 1 16 -4 3 -6 13 -7 22 -4 11 4 14 3 9 -5
-6 -11 12 -17 37 -13 4 0 7 -4 7 -10 0 -5 5 -7 10 -4 6 3 10 1 10 -4 0 -6 9
-11 20 -11 11 0 20 -4 20 -10 0 -5 9 -10 20 -10 11 0 20 -4 20 -9 0 -8 20 -17
57 -26 7 -2 20 -10 29 -19 8 -9 19 -14 24 -11 4 3 11 -2 14 -11 4 -9 9 -14 12
-11 4 3 13 -1 21 -9 8 -8 19 -12 24 -9 5 4 9 2 9 -4 0 -5 9 -13 20 -16 11 -4
18 -11 15 -16 -3 -5 1 -6 9 -3 9 3 16 1 16 -6 0 -6 5 -8 10 -5 6 3 13 -1 16
-9 3 -9 10 -13 15 -10 5 3 9 0 9 -6 0 -6 10 -14 23 -19 12 -5 44 -25 70 -45
26 -20 52 -36 57 -36 6 0 10 -5 10 -11 0 -5 5 -7 10 -4 6 3 10 -1 10 -10 0 -9
5 -13 10 -10 6 3 10 2 10 -4 0 -5 8 -12 19 -16 10 -3 23 -15 29 -28 6 -12 11
-16 11 -9 1 7 17 -3 36 -22 19 -20 35 -33 35 -29 0 3 8 -4 19 -15 10 -12 24
-22 31 -22 7 0 11 -3 7 -6 -3 -4 11 -20 31 -38 79 -67 91 -79 85 -90 -3 -6 -3
-8 1 -4 9 8 102 -81 98 -94 -2 -8 14 -12 33 -8 5 1 7 -2 3 -6 -4 -4 4 -18 18
-31 14 -12 22 -23 19 -23 -4 0 12 -19 34 -41 22 -23 39 -45 36 -49 -2 -4 7
-13 20 -20 13 -7 22 -17 19 -22 -3 -4 0 -8 5 -8 6 0 11 -6 11 -14 0 -8 7 -17
16 -20 8 -3 12 -10 9 -16 -3 -5 1 -10 10 -10 9 0 14 -4 11 -8 -3 -5 4 -15 15
-22 10 -8 19 -20 19 -27 0 -13 6 -21 50 -70 11 -13 19 -26 19 -29 -2 -7 19
-39 38 -59 7 -7 9 -15 6 -19 -4 -3 -1 -6 6 -6 7 0 10 -4 7 -9 -4 -5 -3 -11 1
-13 13 -5 54 -68 58 -88 2 -11 15 -35 29 -53 14 -19 26 -44 26 -56 0 -12 4
-19 10 -16 6 3 10 -1 10 -10 0 -17 18 -51 38 -73 6 -7 12 -16 12 -18 0 -3 -6
-2 -12 2 -7 4 -5 -2 5 -13 10 -11 19 -30 20 -42 1 -11 5 -21 9 -21 4 0 8 -7 8
-15 0 -8 5 -15 11 -15 5 0 7 -5 4 -11 -4 -5 0 -18 8 -27 16 -18 17 -20 17 -53
0 -11 4 -18 9 -15 5 3 9 -6 9 -20 0 -15 3 -29 8 -33 9 -6 16 -27 17 -48 0 -7
5 -13 10 -13 5 0 7 -9 4 -20 -3 -11 -2 -20 1 -20 4 0 12 -11 19 -25 6 -14 7
-23 2 -19 -5 3 -9 0 -9 -5 0 -6 4 -11 10 -11 5 0 9 -3 9 -7 -1 -5 0 -10 1 -13
1 -3 3 -14 5 -25 6 -35 10 -50 18 -61 3 -6 8 -25 9 -43 1 -17 6 -31 10 -31 4
0 4 -7 1 -17 -4 -9 -2 -14 3 -10 6 3 9 -8 8 -29 -2 -19 1 -34 6 -34 4 0 7 -11
5 -25 -1 -14 1 -28 5 -30 5 -3 7 -18 6 -35 -1 -16 2 -30 7 -30 5 0 7 -9 4 -20
-3 -11 0 -20 6 -21 8 0 8 -2 -1 -6 -6 -2 -9 -10 -5 -16 3 -6 7 -22 9 -36 1
-14 3 -26 4 -26 1 0 4 -24 6 -54 2 -29 9 -60 16 -69 9 -10 9 -13 1 -9 -6 4
-14 3 -18 -3 -3 -5 -1 -10 5 -10 6 0 8 -4 5 -10 -3 -5 0 -10 7 -11 10 0 10 -2
0 -6 -6 -2 -9 -10 -5 -16 12 -20 11 -400 -1 -416 -8 -10 -8 -15 2 -18 6 -3 9
-10 5 -16 -8 -12 -9 -22 -15 -114 -1 -29 -5 -53 -8 -53 -3 0 -6 -9 -7 -20 -1
-13 2 -18 10 -13 9 5 8 2 0 -9 -7 -8 -15 -37 -17 -64 -3 -27 -5 -49 -6 -49 -1
0 -3 -10 -6 -22 -2 -12 -5 -28 -6 -35 -2 -7 -7 -16 -13 -20 -6 -5 -5 -8 4 -8
11 0 11 -3 1 -15 -6 -8 -9 -19 -5 -25 3 -5 0 -10 -7 -11 -10 0 -10 -2 1 -6 8
-3 9 -8 3 -12 -5 -3 -13 -24 -16 -46 -4 -21 -10 -42 -14 -45 -4 -3 -8 -12 -8
-20 -1 -31 -17 -95 -27 -108 -5 -7 -7 -15 -4 -18 3 -3 -3 -21 -14 -40 -13 -23
-15 -34 -6 -34 6 0 3 -7 -7 -15 -11 -8 -17 -18 -13 -21 4 -4 2 -13 -4 -21 -6
-7 -8 -13 -4 -13 5 0 0 -10 -11 -22 -12 -14 -14 -19 -4 -13 12 6 13 5 3 -6 -7
-7 -13 -21 -13 -31 0 -10 -5 -18 -11 -18 -6 0 -9 -7 -5 -15 3 -8 1 -15 -5 -15
-6 0 -7 -4 -4 -10 3 -5 1 -10 -6 -10 -7 0 -9 -3 -6 -7 4 -3 -1 -15 -10 -26
-10 -11 -12 -17 -5 -13 11 7 11 4 0 -15 -7 -13 -17 -27 -23 -31 -6 -5 -6 -8
-1 -8 6 0 1 -7 -10 -16 -10 -8 -13 -13 -7 -9 9 4 11 1 7 -9 -3 -9 -9 -14 -14
-11 -4 2 -6 -7 -4 -20 1 -14 -1 -23 -6 -20 -5 3 -14 -11 -20 -30 -7 -21 -16
-32 -22 -29 -6 4 -8 3 -5 -3 6 -10 -10 -44 -52 -113 -12 -19 -24 -43 -27 -52
-4 -10 -10 -18 -15 -18 -5 0 -9 -7 -9 -15 0 -8 -5 -15 -11 -15 -6 0 -9 -6 -6
-14 3 -8 -1 -17 -9 -20 -9 -3 -12 -10 -9 -16 3 -5 -1 -10 -9 -10 -9 0 -15 -3
-14 -7 4 -12 -51 -93 -63 -93 -5 0 -8 -4 -4 -10 3 -5 -3 -18 -15 -30 -11 -11
-20 -24 -20 -30 0 -5 -7 -10 -16 -10 -8 0 -13 -4 -9 -9 3 -5 1 -12 -5 -16 -6
-4 -8 -11 -5 -16 3 -5 -1 -6 -10 -3 -9 4 -15 3 -14 -2 4 -16 -13 -44 -22 -38
-5 3 -9 -4 -9 -16 0 -12 -5 -18 -10 -15 -6 3 -14 -5 -20 -19 -5 -14 -12 -26
-15 -26 -4 0 -3 6 0 12 4 7 0 4 -9 -6 -8 -10 -13 -24 -9 -30 3 -6 3 -8 -2 -4
-9 8 -35 -15 -35 -32 0 -6 -4 -8 -10 -5 -5 3 -10 2 -10 -4 0 -13 -158 -171
-171 -171 -6 0 -8 -4 -5 -8 3 -5 -6 -15 -19 -22 -13 -7 -22 -17 -20 -21 3 -4
-4 -10 -15 -14 -11 -3 -20 -10 -20 -15 0 -5 -9 -12 -20 -15 -11 -4 -18 -9 -16
-13 5 -9 -20 -33 -27 -26 -3 3 -14 -7 -26 -22 -11 -15 -21 -23 -21 -18 0 4
-16 -7 -35 -26 -19 -19 -35 -31 -35 -27 0 3 -12 -5 -26 -18 -15 -14 -31 -25
-36 -25 -5 0 -21 -12 -36 -27 -16 -16 -35 -29 -43 -31 -8 -2 -20 -10 -26 -19
-7 -9 -13 -13 -13 -7 0 5 -4 5 -8 -1 -4 -6 -24 -19 -44 -30 -21 -11 -38 -22
-38 -25 0 -3 -16 -12 -35 -19 -21 -7 -33 -17 -29 -23 5 -7 1 -9 -9 -5 -10 3
-17 3 -17 -2 0 -9 -51 -35 -62 -33 -5 1 -8 -3 -8 -9 0 -5 -4 -8 -9 -4 -5 3
-12 1 -16 -5 -7 -11 -96 -54 -107 -52 -5 1 -8 -3 -8 -8 0 -5 -3 -9 -7 -8 -5 1
-22 -5 -39 -15 -17 -9 -34 -13 -38 -10 -3 4 -6 1 -6 -5 0 -7 -3 -11 -7 -11
-20 3 -34 -2 -29 -10 4 -5 -5 -8 -19 -7 -14 2 -30 -3 -37 -11 -6 -8 -17 -12
-25 -9 -9 4 -11 1 -7 -6 5 -8 2 -9 -9 -5 -10 3 -17 2 -17 -4 0 -6 -4 -8 -9 -4
-5 3 -12 1 -16 -5 -4 -6 -11 -8 -16 -5 -5 4 -9 2 -9 -3 0 -5 -7 -9 -15 -10 -8
-1 -22 -3 -30 -4 -8 -1 -15 -5 -15 -10 0 -5 -4 -7 -9 -3 -5 3 -12 1 -16 -4 -3
-6 -12 -8 -20 -4 -8 3 -15 0 -15 -5 0 -6 -9 -9 -20 -7 -11 2 -20 0 -20 -4 0
-8 -75 -26 -92 -22 -5 0 -8 -4 -8 -9 0 -6 -6 -10 -12 -9 -7 2 -32 -1 -55 -5
-24 -4 -46 -7 -49 -6 -4 1 -10 -3 -13 -9 -4 -5 -27 -11 -51 -13 -25 -2 -49 -6
-55 -10 -5 -3 -22 -5 -37 -4 -16 1 -28 -1 -28 -4 0 -6 -19 -9 -82 -12 -21 -1
-38 -6 -38 -11 0 -5 -8 -3 -17 4 -9 8 -14 9 -10 3 4 -8 -3 -12 -21 -12 -82 -1
-130 -7 -125 -15 3 -5 -3 -5 -13 1 -11 6 -27 7 -41 1 -14 -5 -33 -5 -48 1 -16
6 -25 6 -25 0 0 -6 -5 -10 -11 -10 -5 0 -7 4 -4 10 4 7 -2 7 -18 1 -14 -6 -28
-7 -31 -4 -9 9 -56 10 -56 1 0 -4 -5 -8 -11 -8 -5 0 -7 4 -4 10 4 6 -2 7 -18
1 -16 -6 -28 -6 -36 2 -6 6 -11 7 -11 1 0 -5 -12 -9 -27 -8 -16 1 -28 3 -28 4
0 2 -34 4 -143 11 -24 1 -45 7 -49 12 -3 5 -9 4 -13 -3 -5 -8 -13 -9 -21 -4
-8 5 -30 9 -49 9 -20 1 -41 4 -46 8 -6 3 -30 8 -52 9 -23 2 -42 6 -42 9 0 3
-14 5 -30 4 -17 -1 -33 2 -36 6 -2 5 -11 6 -19 2 -8 -3 -15 -1 -15 4 0 5 -14
10 -32 11 -17 2 -37 7 -43 12 -7 5 -14 7 -17 5 -3 -3 -18 0 -34 6 -28 11 -37
14 -77 17 -10 1 -15 7 -11 13 5 8 1 8 -14 0 -13 -7 -22 -7 -24 -1 -2 5 -12 11
-23 13 -11 2 -29 8 -40 13 -11 6 -27 10 -35 9 -8 0 -18 3 -21 8 -3 5 -12 10
-20 11 -63 14 -79 20 -79 27 0 5 -11 9 -25 9 -14 0 -25 5 -25 10 0 6 -8 10
-17 8 -11 -2 -17 2 -15 10 1 8 -2 11 -8 7 -14 -9 -52 4 -45 16 3 5 -1 6 -9 3
-9 -3 -16 -1 -16 5 0 6 -3 10 -7 9 -18 -5 -83 24 -77 34 4 6 3 8 -3 5 -5 -3
-24 3 -42 14 -18 11 -30 15 -26 9 3 -6 -10 1 -30 14 -20 14 -49 31 -65 38 -17
7 -30 17 -30 21 0 5 -5 5 -10 2 -6 -3 -10 -1 -10 4 0 6 -7 11 -15 11 -8 0 -15
3 -15 8 0 4 -15 13 -32 21 -18 8 -35 17 -38 20 -10 13 -65 45 -72 43 -5 -1 -8
5 -8 14 0 8 -4 13 -9 10 -5 -3 -21 7 -37 22 -15 15 -24 20 -20 12 4 -8 0 -6
-8 4 -9 11 -16 16 -16 11 0 -4 -8 2 -19 13 -10 12 -23 22 -29 22 -6 0 -16 9
-22 20 -6 11 -17 20 -25 20 -8 0 -20 9 -27 20 -7 11 -18 20 -25 20 -7 0 -18 9
-25 20 -7 11 -17 20 -22 20 -5 0 -32 24 -60 52 -28 29 -44 44 -36 33 8 -11
-30 25 -86 80 -55 55 -100 105 -100 110 1 6 -5 9 -11 8 -7 -2 -13 1 -13 7 0 5
-14 23 -31 40 -18 16 -29 30 -26 30 3 0 -12 18 -34 41 -21 22 -36 46 -33 51 4
7 2 8 -5 4 -6 -4 -14 0 -18 11 -4 10 -20 32 -35 48 -15 17 -28 36 -28 43 0 6
-5 12 -10 12 -6 0 -15 11 -20 25 -5 14 -15 25 -21 25 -7 0 -9 3 -6 7 4 3 -1
12 -11 20 -11 10 -12 12 -2 8 8 -4 4 3 -9 14 -13 12 -20 21 -17 21 4 0 -4 15
-18 33 -15 19 -26 39 -26 45 0 7 -4 12 -10 12 -5 0 -10 7 -10 15 0 8 -4 15
-10 15 -5 0 -6 7 -3 17 4 10 2 14 -4 10 -7 -4 -16 7 -23 28 -6 19 -16 33 -20
30 -5 -3 -7 4 -5 15 2 11 0 18 -6 15 -8 -6 -11 2 -8 21 0 4 -4 10 -9 13 -6 3
-12 13 -14 21 -2 8 -9 21 -16 28 -7 8 -10 18 -7 23 4 5 2 9 -2 9 -9 0 -37 59
-34 73 0 4 -4 7 -10 7 -5 0 -7 4 -4 10 3 5 1 10 -4 10 -6 0 -10 3 -9 8 1 4 -3
17 -10 30 -7 12 -10 27 -7 32 3 6 1 10 -6 10 -7 0 -9 3 -6 7 4 3 -1 12 -11 20
-9 8 -11 12 -4 8 7 -4 4 9 -8 30 -11 20 -18 40 -15 45 3 5 1 11 -5 15 -6 4 -8
11 -5 16 4 5 1 9 -4 9 -6 0 -11 11 -11 25 0 14 -4 25 -8 25 -4 0 -9 12 -10 27
-1 15 -6 29 -11 32 -4 3 -7 14 -5 24 1 9 -3 17 -9 17 -5 0 -8 3 -4 6 3 3 2 17
-4 31 -5 13 -11 38 -15 56 -3 18 -9 36 -14 41 -5 5 -6 14 -3 21 2 8 0 22 -6
33 -6 10 -11 36 -13 56 -1 20 -5 36 -9 36 -6 0 -10 25 -11 78 0 12 -3 22 -7
22 -3 0 -7 21 -9 47 -1 26 -8 51 -15 55 -9 6 -9 8 2 8 9 0 10 4 4 13 -5 6 -9
33 -8 60 0 34 -4 47 -14 47 -11 0 -10 4 5 16 16 13 16 15 2 10 -15 -5 -16 -3
-5 15 10 16 9 21 -2 28 -9 6 -10 11 -2 15 6 4 9 12 5 17 -3 6 -7 70 -8 143 -2
73 -6 138 -11 146 -5 9 -4 11 3 6 8 -5 11 12 9 58 -1 35 1 62 6 59 12 -7 4 30
-8 39 -6 5 -5 8 3 8 7 0 11 4 7 9 -3 5 -1 13 5 16 8 5 7 11 -1 21 -6 8 -8 14
-3 14 5 0 9 19 8 43 0 23 4 48 9 55 6 8 5 12 -4 12 -11 0 -11 2 1 10 8 5 11
10 5 10 -5 0 -3 5 5 10 11 7 11 10 2 10 -7 0 -11 4 -8 9 3 4 8 26 11 47 4 22
9 53 12 69 3 17 5 38 5 48 -1 9 4 17 10 17 6 0 8 15 6 35 -2 20 1 36 8 39 6 2
10 16 9 30 -2 14 1 26 6 26 6 0 7 5 4 10 -4 6 -1 17 5 25 7 8 10 15 7 15 -3 0
5 34 18 75 12 41 20 77 17 80 -3 3 0 5 7 5 7 0 10 3 8 8 -3 4 3 23 12 43 10
20 17 43 15 52 -1 10 2 17 7 17 6 0 7 5 4 10 -3 6 -1 10 4 10 6 0 10 3 10 8
-4 21 2 43 10 38 4 -3 7 6 5 19 -1 14 2 23 7 19 5 -3 9 4 9 15 0 12 4 21 8 21
4 0 8 10 9 21 1 12 9 29 18 39 13 14 13 19 3 23 -8 3 -6 6 6 6 11 1 16 6 13
15 -3 8 -1 16 4 18 6 2 11 12 13 21 1 10 9 23 17 28 8 5 10 9 5 9 -5 0 -3 7 4
15 6 8 8 20 4 26 -4 8 -3 9 4 5 11 -6 16 6 13 27 0 4 3 7 9 7 5 0 10 6 10 14
0 8 7 16 15 20 8 3 14 9 13 13 -4 17 14 53 24 47 7 -4 8 -2 4 5 -4 6 0 18 8
27 9 9 14 19 11 24 -3 5 5 16 17 24 12 9 19 18 15 22 -3 4 4 15 16 26 12 11
15 16 7 12 -8 -4 -3 5 12 21 26 26 32 38 29 58 -1 5 2 6 7 3 5 -3 16 8 26 25
9 16 21 29 27 29 5 0 9 6 9 14 0 7 13 27 29 44 16 16 27 33 24 35 -3 3 4 12
16 19 12 7 21 17 21 23 0 15 80 100 91 97 5 -1 8 1 8 5 -3 21 3 33 17 33 8 0
13 4 9 9 -3 6 4 15 15 21 11 6 18 15 15 21 -4 5 -1 9 5 9 15 0 41 26 33 34 -4
3 3 6 15 6 12 0 21 4 20 9 -2 4 27 38 64 74 38 36 68 64 68 62 0 -3 13 8 28
23 39 37 75 67 87 72 6 2 22 17 37 32 14 14 28 24 31 21 3 -2 10 5 17 16 6 12
15 19 20 16 4 -3 10 -2 12 2 6 15 76 62 82 56 3 -4 6 -1 6 5 0 5 17 21 38 33
20 13 39 26 42 30 7 9 67 45 106 63 17 8 35 19 38 25 4 6 12 9 17 6 5 -4 9 -3
9 2 0 4 18 17 40 27 22 11 40 24 40 30 0 6 5 4 10 -4 6 -10 10 -11 10 -2 0 6
7 12 15 12 8 0 15 3 15 8 0 4 15 13 33 20 17 7 40 18 50 23 10 5 22 7 28 4 5
-4 8 -3 7 2 -2 4 0 8 3 8 3 0 13 6 22 14 10 7 17 11 17 8 0 -3 12 0 27 8 15 8
30 12 35 9 4 -3 8 2 8 11 0 9 5 13 10 10 6 -4 16 -2 23 3 7 6 16 10 20 10 4 0
20 4 35 10 15 6 36 13 47 18 11 4 26 8 33 10 8 1 21 6 30 10 9 4 20 8 25 9 4
2 8 3 10 5 3 2 17 6 85 23 31 7 50 17 45 22 -4 5 1 3 11 -5 11 -8 17 -10 13
-4 -5 8 9 14 41 19 26 4 53 12 61 18 12 10 13 9 6 -3 -7 -12 -6 -13 7 -3 8 7
18 10 21 6 4 -3 7 -2 7 4 0 6 14 9 30 7 19 -2 30 1 30 9 0 8 4 7 10 -3 6 -10
10 -11 10 -2 0 7 15 12 41 12 22 0 38 4 35 8 -6 11 25 9 43 -3 10 -5 12 -4 7
3 -5 8 4 12 26 12 19 0 40 6 47 13 12 10 13 9 7 -7 -5 -16 -4 -17 9 -6 8 7 15
9 15 5 0 -4 6 -3 13 2 6 5 36 9 65 9 28 -1 52 2 52 5 0 8 32 5 47 -4 6 -4 13
-1 16 5 3 10 8 10 21 -1 9 -8 16 -10 15 -5 -4 21 2 26 16 14 12 -10 18 -10 30
0z"/>
<path d="M3381 6343 c-6 -10 -11 -12 -11 -5 0 6 -5 12 -11 12 -5 0 -7 -6 -3
-12 5 -10 4 -10 -6 -1 -9 9 -18 9 -33 1 -15 -7 -22 -7 -28 3 -5 8 -9 9 -9 4 0
-6 -12 -11 -27 -12 -101 -3 -104 -3 -97 -15 6 -10 5 -10 -8 -1 -8 7 -18 10
-21 6 -4 -3 -22 -7 -39 -9 -18 -1 -46 -5 -63 -9 -16 -3 -40 -6 -52 -6 -13 1
-23 -4 -23 -9 0 -6 -5 -10 -11 -10 -5 0 -7 6 -3 13 5 8 2 8 -9 -2 -9 -7 -17
-11 -17 -7 0 3 -12 1 -27 -5 -23 -9 -63 -17 -100 -21 -7 -1 -13 -5 -13 -9 0
-4 -8 -6 -17 -4 -10 1 -23 -2 -30 -7 -7 -6 -18 -8 -25 -6 -7 3 -19 -1 -26 -8
-7 -7 -21 -11 -32 -9 -11 2 -20 -1 -20 -6 0 -6 -4 -7 -10 -4 -5 3 -10 1 -10
-6 0 -7 -3 -10 -6 -6 -4 3 -22 0 -40 -8 -19 -8 -34 -11 -34 -7 0 4 -4 1 -9 -6
-4 -7 -18 -14 -29 -15 -12 -1 -22 -5 -22 -9 0 -4 -7 -5 -15 -2 -8 4 -17 -1
-21 -9 -3 -9 -14 -14 -25 -12 -10 2 -19 0 -19 -5 0 -8 -48 -28 -61 -26 -3 1
-13 -5 -22 -13 -10 -7 -17 -10 -17 -5 0 5 -5 1 -11 -9 -6 -9 -14 -15 -20 -12
-5 4 -9 1 -9 -5 0 -6 -4 -8 -10 -5 -5 3 -10 1 -10 -4 0 -6 -6 -10 -12 -8 -7 1
-12 -3 -11 -9 1 -7 -6 -10 -17 -7 -11 3 -20 0 -20 -6 0 -6 -3 -10 -7 -10 -18
3 -36 -1 -30 -7 3 -4 -17 -18 -46 -32 -29 -14 -53 -29 -55 -34 -2 -4 -10 -8
-18 -8 -8 0 -14 -4 -14 -10 0 -5 -6 -10 -13 -10 -8 0 -24 -9 -37 -20 -12 -11
-27 -17 -33 -13 -5 3 -7 1 -3 -5 3 -6 -3 -13 -14 -17 -11 -3 -20 -11 -20 -16
0 -6 -4 -8 -9 -5 -5 3 -11 -1 -15 -9 -3 -8 -12 -15 -20 -15 -7 0 -17 -7 -20
-16 -3 -8 -10 -12 -16 -9 -5 3 -10 2 -10 -2 0 -5 -24 -26 -52 -48 -29 -21 -63
-48 -74 -59 -39 -38 -69 -61 -76 -58 -5 1 -8 -2 -8 -8 0 -12 -53 -65 -62 -62
-5 1 -8 -2 -8 -7 0 -15 -46 -61 -60 -61 -7 0 -11 -3 -7 -6 3 -3 -14 -26 -38
-50 -25 -24 -42 -44 -39 -44 3 0 -8 -12 -23 -26 -15 -15 -27 -30 -25 -35 1 -5
-5 -9 -14 -9 -8 0 -12 -4 -9 -10 3 -5 -3 -15 -15 -22 -11 -7 -20 -16 -20 -20
0 -8 -22 -36 -48 -64 -7 -8 -11 -14 -8 -14 3 0 -2 -9 -12 -19 -32 -37 -42 -50
-42 -61 0 -5 -5 -10 -11 -10 -5 0 -7 -5 -4 -10 3 -6 -1 -13 -9 -16 -9 -3 -13
-10 -10 -15 3 -5 1 -9 -4 -9 -5 0 -15 -13 -22 -30 -7 -16 -17 -30 -22 -30 -5
0 -7 -4 -4 -9 3 -5 -1 -12 -10 -15 -8 -3 -13 -10 -10 -15 4 -5 -1 -16 -9 -24
-8 -9 -15 -20 -15 -26 0 -6 -5 -11 -10 -11 -6 0 -9 -3 -8 -7 2 -13 -32 -83
-40 -83 -5 0 -9 -6 -9 -12 0 -7 -15 -44 -34 -83 -18 -38 -33 -73 -34 -77 0 -3
-3 -10 -8 -14 -4 -4 -7 -16 -7 -26 0 -10 -5 -18 -11 -18 -5 0 -8 -4 -4 -9 3
-5 1 -12 -5 -16 -6 -4 -8 -11 -5 -16 4 -5 2 -9 -4 -9 -5 0 -8 -9 -6 -20 2 -11
0 -18 -6 -15 -5 4 -9 -2 -9 -12 0 -11 -5 -24 -12 -31 -9 -9 -9 -12 3 -12 11 0
11 -2 1 -9 -7 -4 -14 -18 -15 -29 -1 -12 -4 -22 -8 -22 -6 0 -12 -22 -21 -75
-2 -11 -10 -26 -18 -33 -13 -12 -12 -13 4 -7 18 5 19 4 4 -12 -8 -10 -14 -26
-13 -35 2 -10 -2 -18 -8 -18 -5 0 -8 -3 -5 -6 3 -3 2 -21 -4 -41 -17 -61 -27
-114 -30 -153 0 -8 -5 -21 -11 -27 -6 -9 -6 -13 3 -13 9 0 9 -4 3 -12 -6 -7
-11 -20 -11 -28 -5 -63 -10 -99 -16 -109 -4 -6 -1 -11 6 -11 9 0 9 -3 -2 -10
-13 -9 -13 -10 0 -10 9 0 11 -3 5 -8 -5 -4 -11 -23 -13 -42 -6 -85 0 -475 8
-475 2 0 11 -112 11 -137 0 -10 3 -18 7 -18 4 0 7 -19 7 -43 -1 -23 3 -47 8
-54 4 -6 9 -26 9 -43 1 -17 5 -33 10 -36 4 -3 6 -10 2 -15 -3 -5 -2 -15 3 -22
9 -11 11 -20 16 -77 1 -14 8 -31 15 -38 7 -8 10 -18 6 -23 -3 -6 0 -16 6 -24
6 -8 9 -19 6 -24 -4 -5 -2 -12 4 -16 6 -4 8 -11 5 -16 -4 -5 -1 -9 4 -9 6 0
10 -3 10 -7 -3 -20 2 -44 9 -40 4 3 8 -5 8 -16 3 -31 8 -48 24 -77 7 -14 13
-26 12 -27 -6 -9 0 -23 7 -19 5 3 9 0 8 -7 -1 -34 4 -48 15 -41 7 4 8 3 4 -4
-4 -6 0 -25 9 -42 8 -16 13 -30 10 -30 -4 0 1 -7 9 -16 9 -8 19 -27 23 -42 3
-15 9 -29 12 -32 12 -10 31 -50 31 -65 0 -8 4 -15 9 -15 5 0 13 -10 16 -22 4
-13 18 -37 31 -54 13 -18 25 -38 26 -45 3 -13 7 -19 35 -53 7 -8 13 -22 13
-31 0 -9 7 -18 15 -21 8 -4 15 -12 15 -20 0 -8 5 -14 10 -14 6 0 10 -7 10 -15
0 -8 5 -15 10 -15 6 0 10 -5 10 -10 0 -6 11 -23 24 -37 14 -15 22 -31 19 -37
-3 -6 -3 -8 2 -4 5 5 20 -9 33 -29 26 -38 60 -79 100 -120 13 -12 21 -23 18
-23 -3 0 33 -38 80 -85 46 -47 84 -90 84 -95 0 -6 4 -9 9 -7 5 1 17 -7 26 -18
9 -11 13 -14 9 -6 -5 9 -3 12 4 7 7 -4 12 -14 12 -22 0 -8 4 -14 8 -14 16 0
52 -37 44 -45 -4 -5 -2 -5 4 -2 5 3 28 -9 50 -28 21 -19 44 -39 51 -45 7 -5
17 -10 23 -10 6 0 8 -5 5 -10 -3 -6 1 -10 9 -10 9 0 16 -4 16 -10 0 -5 7 -10
15 -10 8 0 15 -5 15 -12 0 -6 3 -8 7 -5 3 4 13 -2 21 -14 8 -11 20 -18 29 -15
8 3 11 2 8 -3 -3 -5 4 -12 15 -16 11 -3 20 -11 20 -17 0 -6 3 -9 6 -5 3 3 15
-3 27 -14 11 -10 27 -19 34 -19 7 0 13 -4 13 -8 0 -5 22 -19 50 -32 27 -13 47
-27 44 -32 -3 -5 -2 -8 3 -7 20 3 34 -2 28 -11 -3 -5 0 -7 8 -4 8 3 22 -2 31
-11 9 -9 16 -12 16 -6 0 6 9 2 20 -9 11 -11 27 -20 35 -20 8 0 15 -4 15 -10 0
-5 3 -9 8 -8 8 3 74 -23 82 -31 5 -5 60 -28 85 -35 6 -2 21 -8 35 -13 14 -6
29 -8 34 -5 5 3 6 0 2 -6 -4 -7 -1 -13 8 -13 25 -2 30 -4 44 -12 6 -5 17 -5
22 -2 5 3 10 2 10 -4 0 -6 7 -7 17 -4 11 4 14 3 9 -5 -5 -8 3 -12 23 -12 17 0
31 -5 31 -10 0 -6 6 -10 13 -9 32 4 58 -2 51 -12 -4 -8 1 -9 15 -4 13 4 28 1
36 -5 12 -10 15 -10 15 1 1 10 3 9 10 -3 6 -10 20 -15 35 -13 14 1 25 -1 25
-5 0 -4 10 -8 23 -8 32 0 51 -6 60 -17 4 -6 11 -4 17 5 6 9 10 10 10 3 0 -6 9
-10 20 -8 11 2 20 1 20 -4 0 -7 17 -9 93 -13 20 -1 37 -6 37 -12 0 -6 5 -4 10
4 7 12 10 12 10 1 0 -8 6 -11 17 -7 9 4 20 1 25 -6 6 -11 8 -11 8 0 0 9 6 10
18 4 9 -4 47 -8 85 -7 39 0 67 -4 67 -10 0 -5 5 -3 10 5 9 13 10 13 10 0 0
-13 1 -13 10 0 6 10 10 11 10 3 0 -15 21 -13 32 2 5 6 8 5 8 -3 0 -9 5 -10 18
-3 13 7 23 6 30 -1 9 -9 12 -9 12 1 0 7 5 9 13 4 17 -11 31 -10 39 2 5 6 8 5
8 -3 0 -8 5 -10 13 -5 18 11 50 11 66 -1 11 -8 13 -8 8 1 -5 8 8 11 48 10 43
-2 55 1 55 13 0 12 2 12 9 2 4 -8 12 -14 16 -14 4 0 12 6 16 14 5 7 9 8 9 2 0
-6 7 -11 15 -11 8 0 12 3 10 7 -2 3 17 7 42 8 25 1 51 6 58 12 9 8 15 8 20 0
5 -8 10 -8 20 0 7 6 25 9 39 6 16 -3 24 -1 20 5 -3 6 2 10 12 8 11 -1 27 1 37
6 10 4 31 8 47 9 17 0 30 3 30 7 0 3 6 6 13 7 26 3 53 9 67 14 8 3 35 11 60
18 25 7 51 17 59 24 11 8 13 8 8 -1 -5 -8 -1 -8 18 0 14 7 25 15 25 19 0 4 9
5 19 3 11 -2 25 2 30 9 6 7 22 12 36 10 14 -1 23 2 19 7 -3 5 0 9 6 9 6 0 27
7 48 17 20 9 39 17 42 17 19 4 78 32 92 44 9 8 21 11 26 8 6 -3 12 1 16 9 3 8
13 15 22 15 9 0 28 9 44 20 15 11 30 17 34 13 3 -3 6 -2 6 4 0 5 23 20 50 33
28 13 50 27 50 31 0 4 11 10 25 13 14 4 25 11 25 16 0 6 7 10 15 10 8 0 15 5
15 12 0 6 3 9 6 5 4 -3 12 -1 19 6 7 7 23 19 35 27 13 8 32 24 43 35 11 11 17
14 13 8 -5 -9 -2 -11 8 -7 9 3 13 10 10 15 -3 5 0 9 6 9 6 0 17 6 24 12 32 31
91 73 99 70 5 -1 6 2 2 8 -3 5 6 15 20 20 16 6 23 14 19 22 -5 8 -2 9 12 4 10
-4 15 -4 11 0 -7 7 30 44 45 44 5 0 7 3 5 8 -3 4 1 13 9 20 8 7 14 9 14 5 0
-4 7 3 16 15 8 12 22 22 30 22 8 0 13 4 11 9 -1 5 12 22 30 39 17 17 29 33 25
36 -3 3 0 6 6 6 13 0 52 35 52 46 0 4 10 16 23 28 12 11 44 49 71 84 27 34 53
62 58 62 5 0 7 4 4 8 -3 5 6 20 20 35 13 14 24 31 24 37 0 5 5 10 10 10 6 0
10 6 10 14 0 8 5 18 12 22 7 5 8 3 3 -6 -5 -8 -4 -11 3 -6 6 4 9 13 6 20 -3 7
2 16 11 20 9 3 13 10 10 16 -3 6 1 13 9 16 9 3 14 10 11 14 -3 4 2 11 11 14 8
3 13 10 10 15 -3 5 1 14 9 21 8 7 15 19 15 26 0 8 5 14 10 14 6 0 10 7 10 15
0 8 5 15 11 15 5 0 7 5 4 10 -3 6 -1 10 5 10 6 0 8 5 5 10 -3 5 -1 10 5 10 6
0 8 4 5 10 -3 6 -2 10 3 10 9 0 18 20 20 44 0 5 4 12 9 15 11 7 53 96 53 111
0 5 5 10 11 10 5 0 7 5 4 10 -3 6 -1 10 5 10 6 0 9 4 5 9 -3 5 0 13 6 16 5 4
8 13 5 20 -2 7 2 16 9 19 8 3 12 14 10 26 -2 11 0 18 6 15 5 -4 9 3 9 15 0 12
4 19 8 16 4 -2 8 3 9 12 1 18 10 55 13 60 2 1 3 5 4 10 1 4 7 17 14 30 7 12
10 22 6 22 -3 0 0 8 7 17 9 10 9 14 2 10 -8 -5 -8 1 2 19 8 15 12 31 9 36 -3
4 0 8 5 8 6 0 11 10 11 23 0 13 5 28 12 35 9 9 9 12 -1 12 -10 0 -11 3 -2 13
6 8 8 17 4 20 -3 4 -2 7 3 7 5 0 11 8 12 18 3 32 7 47 16 61 7 11 6 12 -5 6
-11 -7 -12 -6 -2 6 7 8 13 32 15 52 1 20 6 37 10 37 4 0 4 7 1 17 -5 11 -3 14
6 8 10 -6 11 -3 2 12 -6 11 -8 22 -6 25 6 6 18 75 19 113 1 17 5 36 9 43 5 7
3 12 -4 12 -7 0 -8 4 -2 12 11 15 11 28 -1 47 -7 10 -6 12 4 6 10 -6 12 -1 8
19 -3 14 -3 28 1 30 8 5 5 300 -3 332 -4 16 -2 24 6 24 10 0 10 2 -1 9 -8 5
-11 16 -6 30 3 12 2 21 -3 21 -11 0 -10 25 1 36 4 4 2 13 -4 21 -6 7 -9 22 -6
33 3 11 0 20 -6 20 -8 0 -7 4 2 9 11 7 10 11 -5 20 -11 6 -14 11 -9 11 11 0
15 40 5 40 -3 0 -6 8 -7 18 -3 47 -12 103 -19 114 -5 7 -9 22 -9 33 0 11 -4
26 -9 34 -6 10 -5 12 2 7 6 -4 5 5 -3 20 -8 15 -12 31 -9 36 3 4 0 8 -7 8 -6
0 -9 8 -6 20 3 11 1 20 -4 20 -4 0 -6 7 -2 16 3 9 1 19 -5 23 -6 4 -12 21 -14
39 -1 18 -6 32 -10 32 -4 0 -8 12 -8 26 0 14 -4 23 -9 20 -4 -3 -7 6 -5 19 1
14 -2 25 -7 25 -6 0 -7 5 -4 10 3 6 1 10 -5 10 -6 0 -9 4 -5 9 3 5 1 12 -5 16
-6 4 -8 10 -5 15 3 5 1 11 -5 15 -5 3 -10 15 -10 26 0 10 -4 19 -8 19 -4 0 -9
10 -9 22 -1 13 -7 24 -13 26 -5 2 -10 10 -10 18 0 13 -18 52 -30 64 -3 3 -7
14 -8 25 -2 11 -8 22 -13 23 -5 2 -9 12 -9 23 0 10 -4 19 -10 19 -5 0 -10 9
-10 20 0 11 -4 20 -10 20 -5 0 -10 6 -10 14 0 7 -7 19 -15 26 -9 7 -14 18 -12
24 2 6 -5 19 -15 30 -10 11 -18 26 -18 33 0 7 -4 13 -10 13 -5 0 -10 7 -10 15
0 8 -5 15 -11 15 -5 0 -7 5 -4 10 3 6 -1 10 -9 10 -10 0 -13 6 -10 15 4 8 1
15 -4 15 -6 0 -23 22 -38 50 -15 27 -31 47 -35 44 -5 -3 -9 4 -9 14 0 22 -23
45 -34 34 -5 -4 -6 0 -4 10 1 9 -7 25 -20 36 -13 11 -23 23 -22 26 1 8 -15 27
-52 67 -16 15 -28 30 -28 33 0 3 -32 37 -70 76 -38 39 -70 75 -70 81 0 5 -5 9
-11 9 -14 0 -75 61 -71 72 1 4 -4 7 -10 6 -7 -2 -12 3 -10 10 1 8 -1 11 -6 8
-5 -3 -25 10 -45 29 -19 18 -38 31 -41 28 -3 -4 -6 1 -6 10 0 10 -5 17 -11 17
-6 0 -17 6 -24 13 -8 6 -26 21 -41 32 -14 11 -35 28 -45 38 -11 9 -19 14 -19
10 0 -5 -5 0 -11 10 -6 9 -14 15 -20 12 -5 -4 -12 1 -15 9 -3 9 -12 16 -20 16
-8 0 -14 5 -14 10 0 6 -7 10 -15 10 -8 0 -15 5 -15 10 0 6 -6 10 -13 10 -7 0
-22 8 -33 18 -10 9 -32 24 -49 32 -16 8 -32 17 -35 21 -3 3 -20 11 -37 18 -18
8 -33 18 -33 23 0 6 -7 7 -16 4 -8 -3 -12 -2 -9 4 3 6 1 11 -4 11 -6 1 -16 2
-21 3 -6 0 -15 8 -20 16 -5 8 -10 11 -10 6 0 -4 -11 -1 -25 8 -13 9 -31 16
-40 16 -8 0 -15 4 -15 9 0 8 -33 20 -53 20 -5 0 -15 8 -24 18 -8 10 -12 12 -8
5 4 -7 -8 -4 -29 8 -20 11 -36 17 -36 14 0 -4 -6 -2 -12 3 -7 6 -31 16 -53 23
-22 7 -50 19 -63 27 -12 7 -26 12 -30 9 -5 -3 -21 2 -36 10 -16 7 -41 14 -57
14 -16 0 -29 4 -29 8 0 5 -6 9 -12 10 -7 0 -26 4 -43 7 -16 4 -37 7 -45 7 -8
1 -22 6 -30 12 -8 7 -27 12 -42 11 -16 0 -28 3 -28 7 0 4 -5 8 -11 8 -5 0 -7
-6 -3 -12 6 -10 5 -10 -7 -2 -12 10 -43 17 -137 29 -13 2 -26 6 -29 9 -4 3
-13 0 -21 -7 -13 -9 -14 -9 -8 1 8 13 -15 15 -156 16 -36 1 -61 4 -55 9 15 10
-34 4 -50 -6 -6 -4 -15 -2 -19 4 -5 8 -3 9 6 4 9 -6 11 -4 5 4 -5 9 -11 9 -17
3 -6 -6 -17 -8 -26 -5 -9 4 -13 2 -9 -4 3 -5 0 -10 -8 -10 -8 0 -12 4 -9 9 6
9 -25 6 -43 -5 -6 -4 -15 -2 -19 4 -5 8 -3 9 6 4 9 -6 11 -4 5 4 -5 9 -11 9
-17 3 -6 -6 -17 -8 -26 -5 -10 4 -13 2 -8 -5 5 -8 2 -10 -8 -6 -9 3 -13 10
-10 15 3 5 3 9 0 9 -3 0 -10 -8 -15 -17z m-67 -295 c-6 -10 -4 -10 7 -2 9 6
80 9 199 7 216 -3 211 -2 229 -17 11 -8 13 -8 8 1 -5 8 0 11 13 10 11 -1 20
-4 20 -7 0 -3 15 -6 33 -7 33 -1 79 -8 132 -18 17 -4 42 -7 58 -8 15 -1 27 -5
27 -11 0 -5 3 -6 7 -3 3 4 13 1 21 -6 13 -10 14 -9 8 1 -7 11 -4 12 11 3 11
-5 35 -13 54 -16 18 -3 40 -11 48 -18 12 -10 13 -9 6 3 -6 12 -5 13 6 3 7 -7
24 -13 37 -13 15 0 21 -4 16 -12 -5 -8 -2 -9 10 -5 16 6 24 4 73 -21 16 -9 23
-8 26 1 4 7 6 6 6 -4 1 -9 7 -16 14 -17 21 -2 41 -8 82 -26 22 -10 48 -18 57
-19 9 -1 14 -5 12 -9 -5 -7 10 -12 29 -9 4 0 7 -4 7 -9 0 -6 9 -10 20 -10 11
0 20 -5 20 -11 0 -5 4 -8 9 -4 5 3 16 -1 24 -9 8 -8 17 -12 21 -9 3 4 6 1 6
-5 0 -7 3 -11 8 -10 13 3 42 -14 37 -22 -3 -5 3 -6 14 -3 11 3 21 -2 24 -11 4
-9 16 -16 27 -16 11 0 23 -7 26 -15 4 -8 10 -12 15 -9 5 3 9 0 9 -5 0 -6 6
-11 13 -11 7 0 24 -10 37 -22 14 -13 27 -23 30 -23 3 0 4 -4 2 -10 -2 -5 -1
-7 3 -3 9 9 105 -50 105 -65 0 -5 3 -8 6 -4 4 3 20 -7 36 -24 16 -16 33 -27
38 -24 4 3 10 -4 13 -15 3 -11 12 -20 21 -20 9 0 16 -7 16 -16 0 -8 4 -13 9
-10 5 4 21 -8 35 -25 14 -16 30 -27 36 -24 6 4 9 2 8 -3 -3 -11 63 -78 74 -75
4 2 9 -6 13 -16 3 -11 13 -22 21 -25 8 -3 13 -10 9 -15 -3 -5 4 -12 15 -16 11
-4 18 -11 15 -16 -4 -5 1 -9 9 -9 9 0 16 -5 16 -11 0 -7 12 -22 28 -35 15 -13
23 -24 17 -24 -5 0 1 -7 13 -16 12 -8 22 -22 22 -30 0 -8 5 -12 10 -9 6 3 10
1 10 -5 0 -6 9 -20 20 -32 10 -12 17 -25 14 -30 -3 -5 0 -7 8 -6 7 2 12 -3 10
-9 -1 -7 2 -13 7 -13 5 0 20 -17 32 -37 13 -21 28 -41 33 -45 6 -4 7 -8 3 -8
-4 0 1 -10 13 -22 11 -12 20 -27 20 -34 0 -7 4 -14 9 -16 5 -1 11 -10 13 -18
2 -8 9 -21 16 -28 7 -8 10 -18 7 -23 -4 -5 1 -9 9 -9 9 0 16 -9 16 -20 0 -11
5 -20 11 -20 5 0 7 -4 4 -10 -3 -5 -2 -10 3 -10 9 0 38 -69 34 -83 -1 -5 2 -6
7 -3 5 3 12 -4 16 -17 4 -12 8 -24 10 -27 7 -17 33 -78 40 -95 5 -11 7 -23 7
-27 -1 -5 3 -8 9 -8 5 0 8 -4 4 -9 -3 -6 1 -16 8 -23 8 -7 12 -21 9 -32 -3
-12 -1 -17 6 -12 7 4 10 -1 7 -14 -2 -11 1 -20 6 -20 6 0 8 -4 4 -9 -3 -5 -1
-13 5 -16 6 -4 8 -16 4 -27 -4 -14 -2 -18 5 -14 10 6 16 -20 12 -46 0 -5 4 -8
9 -8 6 0 8 -11 6 -25 -3 -14 0 -25 5 -25 5 0 8 -3 8 -7 -1 -5 0 -10 1 -13 1
-3 3 -14 5 -25 2 -11 6 -33 10 -50 3 -16 7 -38 9 -47 1 -10 5 -21 9 -24 12
-12 8 -26 -5 -18 -9 6 -9 3 1 -9 7 -9 11 -23 8 -31 -3 -8 -2 -16 4 -18 5 -2
10 -28 12 -58 2 -30 5 -60 8 -65 3 -6 5 -23 5 -40 -1 -16 3 -34 9 -38 7 -6 6
-10 -3 -14 -6 -2 -9 -10 -5 -16 10 -16 10 -367 0 -367 -4 0 -5 -5 -2 -10 4 -6
1 -18 -7 -27 -9 -12 -9 -15 0 -9 16 9 16 -16 0 -32 -9 -9 -9 -12 0 -12 9 0 10
-6 4 -17 -4 -10 -8 -30 -7 -45 0 -16 -2 -28 -6 -28 -4 0 -5 -9 -2 -20 3 -11 1
-20 -4 -20 -5 0 -8 -17 -7 -37 1 -21 -1 -42 -5 -48 -3 -5 -6 -14 -8 -20 -5
-22 -15 -71 -17 -80 -1 -5 -5 -16 -9 -22 -5 -8 -3 -13 5 -13 10 0 10 -2 -1 -9
-8 -5 -15 -21 -15 -36 -1 -14 -8 -30 -16 -35 -12 -8 -12 -10 -1 -10 11 0 11
-3 1 -15 -6 -8 -9 -19 -5 -25 3 -5 1 -10 -4 -10 -6 0 -11 -8 -11 -18 0 -10 -5
-23 -12 -30 -7 -7 -9 -12 -5 -12 4 0 0 -16 -8 -36 -8 -20 -12 -41 -8 -47 3 -5
1 -7 -4 -4 -12 8 -26 -20 -17 -34 3 -5 0 -9 -5 -9 -6 0 -11 -9 -11 -21 0 -11
-4 -17 -10 -14 -5 3 -7 0 -4 -8 3 -8 0 -18 -5 -22 -6 -3 -9 -11 -6 -16 4 -5 1
-9 -5 -9 -6 0 -8 -4 -5 -10 3 -5 1 -10 -5 -10 -6 0 -8 -4 -5 -10 3 -5 1 -10
-4 -10 -6 0 -11 -3 -10 -8 3 -18 -14 -51 -24 -45 -5 3 -7 1 -3 -5 6 -10 -31
-84 -46 -90 -5 -2 -6 -7 -3 -12 3 -4 -2 -13 -10 -20 -8 -7 -15 -18 -15 -25 0
-7 -7 -18 -15 -25 -8 -7 -13 -16 -10 -20 3 -4 -2 -11 -10 -14 -8 -3 -14 -11
-13 -18 2 -7 -2 -12 -9 -11 -7 2 -10 -4 -7 -12 4 -8 1 -15 -5 -15 -6 0 -11 -6
-11 -13 0 -8 -9 -22 -20 -32 -11 -10 -17 -22 -14 -26 3 -5 -2 -9 -11 -9 -9 0
-13 -4 -10 -10 3 -5 -3 -15 -15 -22 -11 -7 -20 -18 -20 -25 0 -7 -5 -13 -12
-13 -6 0 -9 -3 -5 -6 3 -3 -10 -21 -28 -39 -19 -18 -31 -35 -28 -39 4 -3 1 -6
-5 -6 -7 0 -12 -7 -12 -17 0 -9 -3 -14 -6 -10 -7 7 -39 -22 -39 -36 0 -5 -10
-14 -22 -20 -12 -7 -21 -14 -20 -17 3 -9 -110 -120 -117 -113 -3 3 -6 -1 -6
-10 0 -10 -3 -17 -7 -17 -5 0 -25 -16 -47 -35 -21 -19 -42 -35 -48 -35 -5 0
-6 -4 -3 -10 3 -5 1 -10 -5 -10 -6 0 -17 -6 -24 -13 -8 -6 -24 -19 -37 -27
-12 -8 -33 -25 -45 -36 -13 -12 -25 -19 -28 -17 -3 3 -8 -2 -12 -11 -3 -9 -10
-13 -15 -11 -4 3 -14 -3 -21 -15 -7 -11 -19 -20 -26 -20 -7 0 -22 -9 -34 -20
-12 -11 -28 -20 -35 -20 -7 0 -13 -4 -13 -10 0 -5 -7 -10 -15 -10 -8 0 -15 -5
-15 -11 0 -5 -4 -8 -9 -5 -5 3 -14 -1 -21 -10 -7 -8 -19 -13 -26 -10 -8 3 -13
0 -11 -7 1 -7 -4 -11 -10 -10 -7 2 -13 -2 -13 -8 0 -6 -7 -9 -15 -5 -8 3 -15
1 -15 -4 0 -6 -7 -10 -15 -10 -8 0 -15 -3 -15 -7 0 -9 -49 -33 -67 -33 -7 0
-13 -5 -13 -11 0 -5 -4 -7 -10 -4 -5 3 -10 1 -10 -5 0 -6 -4 -9 -9 -5 -5 3
-12 1 -16 -5 -4 -6 -11 -8 -16 -5 -5 4 -9 1 -9 -5 0 -6 -4 -8 -10 -5 -5 3 -10
1 -10 -5 0 -6 -4 -8 -10 -5 -5 3 -10 1 -10 -4 0 -6 -3 -10 -7 -10 -27 4 -53
-2 -47 -12 4 -7 0 -9 -14 -5 -12 4 -24 2 -29 -6 -7 -12 -22 -17 -60 -20 -7 -1
-13 -5 -13 -9 0 -4 -9 -6 -20 -4 -11 2 -18 0 -15 -6 6 -8 -22 -14 -52 -10 -6
1 -14 -3 -18 -9 -3 -5 -17 -10 -31 -10 -13 0 -24 -4 -24 -9 0 -5 -12 -9 -27
-10 -46 -1 -63 -4 -63 -11 0 -3 -8 -6 -17 -7 -10 -1 -44 -4 -77 -7 -34 -2 -62
-10 -67 -18 -7 -10 -9 -10 -9 2 0 9 -3 11 -8 5 -4 -6 -16 -10 -27 -10 -11 0
-28 -3 -39 -8 -13 -7 -16 -6 -11 3 5 9 3 9 -11 2 -11 -5 -34 -9 -52 -8 -17 0
-32 -3 -32 -8 0 -5 -8 -2 -17 5 -9 8 -14 9 -11 4 8 -13 -333 -13 -370 -1 -14
5 -29 3 -37 -4 -12 -10 -16 -9 -20 1 -3 9 -22 14 -55 14 -33 -1 -51 4 -55 13
-4 11 -8 12 -19 2 -10 -7 -21 -8 -33 -3 -10 5 -30 9 -45 8 -15 0 -24 3 -21 9
4 5 -1 7 -9 3 -9 -3 -21 0 -28 6 -10 9 -11 9 -5 -3 6 -12 5 -13 -6 -3 -7 7
-26 13 -41 13 -15 0 -28 4 -28 9 0 5 -8 8 -17 7 -10 -2 -41 5 -70 15 -28 9
-54 15 -57 12 -3 -4 -6 -1 -6 6 0 7 -5 9 -11 6 -5 -4 -20 1 -31 12 -14 12 -18
13 -13 3 7 -12 6 -13 -6 -3 -13 11 -42 19 -72 22 -5 1 -5 6 -1 13 4 7 3 8 -5
4 -6 -4 -22 -1 -34 7 -12 8 -30 13 -39 11 -10 -1 -18 1 -18 6 0 8 -55 33 -75
34 -5 1 -13 6 -17 11 -4 6 -11 11 -15 11 -27 5 -53 18 -53 26 0 6 -6 8 -14 5
-8 -3 -17 1 -20 9 -3 9 -10 12 -16 9 -5 -3 -10 -1 -10 6 0 7 -3 10 -6 6 -4 -3
-13 1 -21 9 -8 8 -18 12 -23 9 -4 -3 -11 2 -14 11 -4 9 -13 14 -22 10 -8 -3
-12 -2 -9 4 3 6 -1 10 -9 10 -9 0 -16 5 -16 10 0 6 -7 10 -15 10 -8 0 -15 5
-15 10 0 6 -9 10 -21 10 -11 0 -17 5 -14 10 3 6 -1 10 -9 10 -9 0 -16 4 -16
10 0 5 -3 9 -7 8 -9 -3 -54 27 -88 59 -12 12 -26 19 -29 16 -3 -3 -8 2 -12 11
-3 9 -10 16 -15 16 -9 0 -53 36 -94 78 -12 12 -27 22 -33 22 -6 0 -14 9 -17
21 -4 11 -9 18 -12 15 -3 -2 -18 8 -33 24 -15 16 -31 26 -36 22 -4 -4 -4 1 -1
11 4 9 2 17 -5 17 -14 0 -68 56 -68 70 0 6 -5 8 -10 5 -6 -3 -10 -2 -10 3 0 5
-17 27 -37 49 -58 63 -83 93 -83 99 0 3 -6 11 -12 19 -29 30 -48 56 -48 65 0
6 -3 10 -8 10 -10 0 -58 79 -54 92 1 5 -2 7 -7 4 -5 -3 -14 8 -21 24 -7 17
-16 30 -20 30 -4 0 -13 14 -20 30 -7 17 -17 30 -22 30 -5 0 -7 4 -3 9 3 5 -1
16 -9 24 -8 8 -12 17 -9 21 4 3 1 6 -6 6 -7 0 -9 5 -6 10 3 6 -1 13 -9 16 -9
3 -13 10 -10 15 3 5 -2 16 -10 25 -9 9 -14 20 -11 25 4 5 1 9 -4 9 -6 0 -11 9
-11 20 0 11 -4 20 -10 20 -5 0 -10 9 -10 21 0 13 -4 18 -12 13 -6 -4 -8 -3 -5
3 4 6 0 27 -8 47 -8 20 -14 38 -13 40 2 2 -6 14 -17 27 -12 13 -14 19 -5 14
13 -8 13 -7 0 9 -8 10 -15 27 -17 39 -2 11 -9 27 -16 36 -10 12 -9 13 3 6 12
-7 12 -5 -1 11 -9 10 -14 25 -11 33 2 8 0 11 -5 8 -6 -4 -11 4 -12 18 -3 46
-4 55 -11 55 -3 0 -7 8 -8 18 -6 49 -8 57 -13 62 -4 3 -9 21 -12 40 -9 53 -12
64 -21 79 -7 10 -6 12 4 6 10 -6 11 -4 4 6 -11 18 -15 37 -15 71 0 15 -3 30
-7 32 -4 2 -7 25 -7 50 1 25 -2 46 -6 46 -3 0 -5 12 -5 28 1 15 -2 39 -6 55
-4 17 -3 27 4 27 7 0 7 4 1 13 -14 17 -9 357 4 383 7 11 8 26 3 34 -4 7 -5 23
-1 34 5 12 7 31 6 44 -1 12 3 22 9 22 6 0 4 5 -4 10 -8 5 -10 10 -5 10 9 0 14
26 19 98 0 12 5 22 10 22 4 0 6 6 3 14 -3 7 0 19 6 25 6 6 7 11 3 11 -5 0 -2
8 5 17 12 14 12 15 1 9 -11 -7 -12 -4 -3 13 7 11 9 21 5 21 -3 0 -1 6 5 14 9
11 9 15 -1 19 -8 4 -7 6 4 6 11 1 15 6 12 16 -4 8 -2 15 2 15 5 0 10 17 12 37
1 20 7 40 13 44 7 4 8 12 5 18 -4 6 -3 11 2 11 5 0 9 6 10 13 3 30 7 52 12 57
5 5 28 62 34 85 2 6 11 28 21 50 11 22 19 42 20 45 5 17 31 66 39 71 5 4 6 11
2 17 -3 5 1 12 9 16 8 3 15 13 15 22 0 9 9 29 21 45 11 16 17 33 14 39 -3 5 1
10 10 10 9 0 13 5 10 10 -3 6 -1 10 5 10 6 0 9 4 6 9 -3 5 1 14 9 21 8 7 25
32 37 56 12 24 25 44 30 44 4 0 8 7 8 15 0 8 5 15 11 15 5 0 7 5 4 10 -3 6 0
10 8 10 7 0 14 6 14 13 0 16 54 87 66 87 4 0 7 4 7 10 0 10 27 45 68 86 13 13
19 24 15 24 -4 1 3 7 17 15 14 8 21 14 16 15 -5 0 38 46 97 103 114 110 177
168 177 161 0 -3 34 25 80 68 10 9 21 14 24 10 3 -3 6 0 6 6 0 7 7 12 15 12 8
0 15 7 15 15 0 8 3 14 8 13 4 -1 17 3 28 10 12 6 24 8 28 4 4 -3 4 2 0 11 -3
10 -3 17 2 16 14 -3 46 13 66 33 10 10 25 18 33 18 8 0 15 5 15 10 0 6 6 10
14 10 8 0 22 7 30 16 9 8 16 13 16 9 0 -3 14 3 30 15 17 12 30 18 30 14 0 -4
7 1 16 12 8 10 13 12 9 4 -4 -10 -2 -9 8 2 8 10 17 15 21 11 4 -4 10 -3 14 3
12 17 102 55 114 48 7 -4 8 -3 4 4 -6 11 6 16 27 13 4 0 7 3 7 7 0 4 10 8 22
9 11 1 25 8 29 15 5 7 9 9 9 4 0 -5 6 -3 14 3 11 9 15 9 19 -1 3 -8 6 -6 6 5
1 10 5 15 11 12 5 -3 20 0 32 7 13 7 27 11 32 10 4 -2 14 3 22 9 8 6 14 8 14
4 0 -4 6 -2 13 4 8 6 17 8 20 4 4 -3 13 0 21 6 8 7 20 10 26 6 5 -3 10 -1 10
5 0 6 5 8 10 5 6 -3 16 -3 23 2 6 4 19 8 27 8 8 0 20 3 25 7 9 5 36 11 118 24
15 2 42 6 60 9 17 3 48 8 67 11 18 2 36 7 39 9 2 3 10 0 18 -6 9 -8 13 -8 13
-1 0 6 9 10 20 9 11 -1 20 -5 20 -10 0 -5 7 -1 16 7 19 19 28 21 18 4z"/>
<path d="M3327 5644 c-3 -6 -24 -10 -47 -9 -22 1 -40 -1 -40 -4 0 -5 -50 -12
-117 -15 -13 -1 -23 -5 -23 -9 0 -5 -8 -7 -17 -6 -10 1 -20 0 -23 -1 -3 -1
-18 -4 -35 -6 -16 -3 -35 -10 -41 -15 -8 -7 -13 -6 -16 2 -3 8 -9 7 -20 -4 -8
-9 -18 -13 -22 -10 -3 3 -12 0 -21 -7 -11 -9 -15 -9 -15 -1 0 7 -9 6 -25 -5
-14 -9 -25 -13 -25 -8 0 4 -5 3 -12 -4 -7 -7 -22 -12 -34 -12 -12 0 -24 -4
-26 -9 -1 -6 -14 -12 -28 -15 -36 -6 -60 -17 -60 -26 0 -5 -9 -7 -20 -5 -11 2
-20 -1 -20 -7 0 -6 -3 -8 -7 -5 -3 4 -13 1 -21 -5 -8 -7 -21 -13 -30 -15 -9
-1 -18 -7 -20 -12 -2 -6 -12 -11 -21 -11 -10 0 -30 -9 -43 -20 -14 -10 -28
-16 -32 -13 -3 3 -6 0 -6 -7 0 -7 -3 -11 -6 -7 -4 3 -22 -5 -40 -20 -19 -14
-34 -21 -34 -17 0 5 -5 1 -11 -9 -6 -9 -14 -15 -20 -12 -5 4 -9 1 -9 -4 0 -6
-6 -11 -14 -11 -8 0 -17 -7 -20 -16 -3 -8 -10 -12 -16 -9 -5 3 -10 1 -10 -4 0
-6 -7 -11 -15 -11 -8 0 -15 -5 -15 -10 0 -6 -12 -15 -26 -20 -14 -6 -22 -15
-19 -20 4 -6 3 -9 -2 -8 -13 4 -54 -22 -48 -31 6 -11 -23 -23 -36 -16 -5 4 -6
-2 -2 -11 4 -12 3 -15 -5 -10 -7 4 -15 1 -18 -8 -3 -8 -14 -18 -25 -21 -11 -4
-17 -10 -14 -15 3 -5 -4 -11 -15 -15 -11 -3 -20 -13 -20 -21 0 -8 -4 -13 -8
-11 -9 2 -132 -123 -132 -135 0 -4 -8 -8 -17 -8 -15 0 -16 -2 -3 -10 13 -9 7
-14 -12 -11 -5 0 -8 -3 -8 -7 0 -5 -8 -17 -19 -28 -10 -11 -24 -30 -30 -42 -7
-13 -17 -19 -23 -16 -6 4 -8 3 -5 -3 4 -5 -3 -20 -14 -31 -10 -12 -20 -25 -20
-29 -2 -16 -26 -43 -32 -37 -4 4 -4 -3 -2 -15 2 -12 1 -20 -3 -17 -9 5 -26
-15 -30 -34 -2 -8 -9 -22 -16 -30 -7 -8 -19 -30 -27 -47 -8 -18 -18 -33 -23
-33 -4 0 -6 -6 -3 -14 3 -8 -1 -17 -9 -20 -9 -3 -13 -10 -10 -15 4 -5 1 -11
-4 -13 -6 -2 -12 -13 -13 -25 0 -13 -7 -25 -15 -28 -8 -3 -11 -12 -8 -20 3 -8
1 -15 -5 -15 -6 0 -8 -4 -5 -9 4 -5 2 -11 -4 -13 -5 -1 -11 -14 -14 -28 -2
-14 -9 -24 -16 -22 -6 1 -9 -2 -5 -8 4 -6 1 -18 -7 -27 -10 -13 -10 -15 0 -9
7 4 3 -9 -8 -29 -11 -20 -15 -33 -8 -29 10 6 11 4 1 -7 -7 -7 -13 -21 -13 -31
0 -10 -4 -18 -9 -18 -6 0 -8 -9 -6 -20 2 -11 0 -20 -6 -20 -5 0 -9 -5 -9 -11
0 -5 6 -7 13 -4 6 4 5 1 -4 -7 -8 -7 -15 -25 -14 -40 1 -15 -2 -25 -6 -22 -4
2 -10 0 -14 -6 -3 -5 -2 -10 3 -10 5 0 7 -11 4 -25 -2 -14 -9 -25 -16 -25 -6
0 -4 -5 4 -10 8 -5 10 -10 4 -10 -6 0 -11 -6 -11 -12 -1 -7 -4 -33 -8 -58 -4
-25 -8 -60 -9 -77 0 -18 -5 -33 -10 -33 -4 0 -3 -7 4 -15 8 -9 9 -15 2 -15 -6
0 -9 -9 -7 -20 2 -11 -1 -20 -7 -20 -7 0 -7 -4 1 -13 6 -8 8 -16 5 -20 -7 -7
-11 -267 -4 -267 3 0 4 -21 4 -47 -1 -27 3 -54 10 -62 9 -12 8 -13 -4 -6 -12
7 -13 6 -4 -6 6 -8 10 -29 9 -46 0 -18 3 -33 7 -33 4 0 5 -7 2 -15 -4 -8 -2
-15 4 -15 5 0 7 -16 5 -36 -3 -27 -1 -34 9 -28 9 6 9 3 -1 -9 -9 -12 -10 -17
-2 -17 7 0 9 -4 6 -10 -3 -5 -3 -10 2 -10 4 0 9 -17 10 -37 1 -20 7 -39 14
-43 8 -6 8 -9 -1 -12 -9 -3 -8 -9 4 -21 13 -12 14 -17 4 -17 -9 0 -9 -3 -2 -8
6 -4 10 -15 8 -25 -1 -9 2 -15 7 -11 5 3 9 -6 9 -19 0 -13 3 -27 7 -31 4 -3 8
-14 9 -23 2 -10 7 -26 12 -38 25 -53 32 -77 26 -87 -4 -6 -2 -8 4 -4 6 3 14
-4 17 -16 13 -43 50 -118 58 -118 5 0 5 -4 2 -10 -3 -5 4 -25 17 -42 13 -18
31 -46 38 -63 8 -16 23 -38 34 -47 13 -12 15 -18 6 -18 -9 0 -7 -5 6 -15 10
-8 15 -15 9 -15 -5 0 1 -7 13 -16 12 -8 22 -22 22 -30 0 -8 5 -14 10 -14 6 0
10 -6 10 -13 0 -7 9 -19 19 -27 11 -7 18 -17 15 -22 -3 -4 2 -11 10 -14 9 -3
16 -11 16 -18 0 -6 9 -17 20 -24 11 -7 20 -19 20 -28 0 -8 5 -12 10 -9 6 3 10
-1 10 -9 0 -9 7 -16 15 -16 8 0 14 -5 12 -12 -1 -7 8 -17 21 -23 12 -5 22 -18
22 -27 0 -10 4 -18 8 -18 4 0 40 -31 80 -70 40 -38 76 -70 80 -70 5 0 18 -10
29 -23 28 -31 61 -57 73 -57 6 0 10 -4 10 -10 0 -5 7 -10 16 -10 9 0 12 -5 8
-11 -4 -7 -1 -10 7 -7 7 2 23 -6 35 -19 11 -12 23 -20 26 -18 3 3 11 -1 18
-10 7 -8 17 -15 22 -15 5 0 18 -9 30 -20 12 -11 28 -20 35 -20 8 0 12 -4 8 -9
-3 -6 4 -8 15 -6 12 2 23 -2 27 -10 3 -8 14 -15 24 -15 10 0 19 -3 19 -7 0
-12 52 -33 63 -26 6 3 7 1 3 -5 -6 -11 6 -16 27 -13 4 0 7 -4 7 -11 0 -6 3 -8
7 -5 3 4 17 0 30 -8 13 -9 28 -13 32 -10 5 3 11 1 13 -4 1 -5 10 -11 18 -13 8
-2 18 -6 21 -10 3 -5 17 -9 32 -10 15 -1 27 -6 27 -11 0 -4 4 -6 9 -3 5 3 14
0 20 -8 7 -8 21 -12 31 -9 11 3 20 1 20 -4 0 -5 8 -9 18 -10 16 -1 52 -9 62
-14 3 -1 10 -3 15 -4 6 -2 12 -4 15 -5 8 -3 43 -9 75 -14 17 -2 37 -7 45 -10
8 -2 34 -7 58 -10 24 -3 47 -8 53 -11 5 -4 9 0 9 7 0 8 3 9 8 3 7 -11 46 -17
117 -19 22 -1 46 -5 53 -9 7 -5 12 -3 12 3 0 7 5 8 17 1 11 -6 24 -6 36 1 15
7 18 7 12 -2 -6 -9 -2 -9 14 -1 14 8 21 8 21 1 0 -7 6 -8 19 0 14 7 21 6 24
-3 4 -9 7 -9 18 0 16 16 33 17 23 2 -4 -8 0 -8 15 0 16 9 21 9 21 -1 0 -9 3
-9 10 2 5 8 10 12 10 9 0 -4 18 -3 40 1 27 5 40 4 40 -4 0 -6 4 -5 9 3 7 10
10 11 16 1 6 -10 11 -9 22 5 8 12 13 14 13 6 0 -9 4 -10 13 -4 6 6 24 10 40 9
15 -1 27 1 27 4 0 6 16 8 84 13 19 1 32 5 29 9 -2 5 2 8 9 9 7 0 22 2 33 5 17
4 42 8 78 13 5 0 6 5 3 9 -3 5 5 8 17 7 12 -1 28 2 34 8 7 5 13 6 13 2 0 -4 7
-2 15 5 8 7 15 10 15 7 0 -3 12 0 27 8 15 8 30 12 35 9 4 -3 8 0 8 6 0 6 5 8
10 5 6 -3 10 -1 10 6 0 7 3 10 6 7 3 -4 24 2 47 12 23 10 45 16 51 13 5 -3 6
-1 2 5 -6 11 6 16 27 13 4 0 7 4 7 10 0 5 4 8 9 4 5 -3 17 3 27 12 10 10 20
18 23 18 3 0 5 3 4 6 -1 4 7 5 17 2 11 -3 20 0 20 6 0 6 7 11 15 11 8 0 15 4
15 10 0 5 3 9 8 8 10 -2 72 36 72 45 0 5 4 6 9 2 5 -3 17 5 25 17 9 12 16 17
16 10 0 -11 26 8 66 46 8 7 14 11 14 8 0 -6 29 16 58 44 9 8 18 15 22 15 16 0
230 209 230 224 0 7 4 10 8 7 4 -2 18 11 31 30 13 19 27 34 32 34 5 0 9 8 9
17 0 9 3 13 6 10 4 -4 19 13 35 36 15 23 37 52 49 65 11 12 18 22 14 22 -4 0
3 9 16 20 13 11 19 20 14 20 -5 0 0 7 10 15 11 8 16 15 12 15 -4 0 7 20 24 44
16 25 30 49 30 55 0 6 5 11 11 11 6 0 9 6 6 14 -3 8 1 17 9 20 9 3 13 10 10
15 -3 5 1 14 9 21 7 6 11 18 8 26 -3 9 0 14 8 12 9 -2 14 5 13 19 -1 13 3 20
9 16 6 -4 8 2 5 15 -3 12 -3 20 1 19 3 -1 7 1 9 5 1 5 11 24 22 44 11 19 16
33 11 30 -5 -4 -3 7 5 24 9 16 19 32 24 35 4 3 6 14 3 24 -3 10 0 22 6 25 6 4
11 16 11 27 0 11 4 18 8 15 4 -3 7 8 6 25 -1 16 2 29 7 29 4 0 6 7 3 15 -4 8
-1 15 4 15 6 0 9 9 7 20 -2 11 0 20 5 20 4 0 7 8 5 18 -1 9 0 22 4 27 3 6 6
15 7 20 1 6 5 28 9 50 4 22 8 50 7 63 0 12 3 22 7 22 4 0 7 16 6 35 -1 19 2
35 8 35 5 0 4 7 -3 15 -7 8 -8 15 -3 15 6 0 9 19 9 43 -1 23 0 46 3 51 8 17 7
231 -1 249 -5 9 -5 17 0 17 5 0 7 13 4 30 -2 17 -9 27 -15 23 -6 -4 -7 -1 -2
8 11 17 14 49 5 49 -3 0 -6 12 -5 28 0 15 -4 30 -10 34 -6 5 -5 8 4 8 11 0 11
3 1 15 -10 12 -10 15 1 15 12 0 12 2 0 9 -7 5 -15 26 -17 47 -4 39 -11 79 -14
79 -1 0 -7 27 -14 62 -1 7 -5 16 -9 19 -4 4 -7 22 -7 40 0 18 -4 34 -10 36 -5
2 -11 15 -12 31 -1 15 -6 27 -10 27 -4 0 -8 9 -8 20 0 11 -5 30 -12 43 -24 47
-28 57 -28 72 0 8 -5 15 -11 15 -5 0 -8 4 -4 9 3 5 1 12 -5 16 -6 4 -8 11 -5
16 4 5 1 9 -4 9 -6 0 -11 9 -11 20 0 11 -5 20 -11 20 -5 0 -7 5 -4 10 3 6 1
10 -5 10 -6 0 -9 4 -6 9 3 5 -1 14 -9 21 -8 7 -12 16 -9 21 3 5 1 9 -4 9 -4 0
-14 16 -22 35 -8 19 -18 35 -22 35 -5 0 -6 5 -3 10 3 6 1 10 -4 10 -6 0 -11 7
-11 15 0 8 -5 15 -12 15 -6 0 -9 3 -5 6 3 4 1 12 -6 20 -29 32 -37 44 -32 44
3 0 -8 15 -24 33 -17 17 -31 38 -31 45 0 7 -5 10 -12 6 -7 -5 -8 -3 -3 5 4 8
-1 18 -14 27 -12 9 -19 20 -16 25 4 5 -2 9 -11 9 -10 0 -15 3 -11 6 9 9 -25
44 -36 37 -6 -3 -7 -2 -4 4 7 11 -37 65 -47 56 -3 -3 -6 -2 -6 3 0 12 -81 100
-90 97 -3 -1 -15 12 -25 28 -11 16 -23 29 -27 29 -5 0 -25 16 -45 36 -21 19
-50 43 -65 52 -16 9 -28 20 -28 24 0 4 -7 8 -15 8 -8 0 -15 5 -15 10 0 6 -7
10 -15 10 -8 0 -15 5 -15 10 0 6 -7 10 -15 10 -9 0 -18 7 -21 15 -4 8 -12 15
-18 15 -7 0 -22 9 -34 20 -12 11 -28 17 -37 14 -11 -5 -14 -2 -9 10 5 12 2 15
-12 9 -12 -4 -15 -3 -10 5 4 8 0 12 -12 12 -10 0 -28 9 -40 20 -12 12 -22 18
-22 14 0 -3 -11 1 -25 10 -14 9 -31 14 -37 10 -7 -4 -8 -3 -4 4 6 11 -6 16
-26 13 -5 0 -8 4 -8 10 0 6 -7 9 -15 5 -8 -3 -15 -1 -15 4 0 6 -9 10 -20 10
-11 0 -20 5 -20 11 0 5 -4 7 -10 4 -5 -3 -10 -1 -10 6 0 7 -3 10 -6 6 -4 -3
-20 1 -36 9 -16 8 -33 12 -37 9 -5 -3 -11 0 -13 6 -2 6 -15 12 -30 12 -14 1
-24 6 -20 11 3 5 -5 7 -16 4 -12 -4 -22 -2 -22 4 0 5 -4 6 -10 3 -5 -3 -10 -2
-10 4 0 5 -8 10 -17 10 -17 0 -55 7 -60 11 -2 2 -12 4 -23 5 -11 1 -21 3 -22
5 -6 4 -44 11 -60 11 -10 0 -18 4 -18 10 0 5 -5 9 -11 9 -5 0 -7 -6 -3 -12 6
-10 5 -10 -7 -1 -8 6 -27 10 -42 9 -15 -2 -27 1 -27 6 0 6 -6 8 -14 5 -7 -3
-19 0 -25 6 -8 8 -11 8 -11 -1 0 -9 -6 -10 -17 -4 -10 4 -31 8 -48 8 -16 -1
-33 4 -37 9 -5 6 -8 5 -8 -4 0 -11 -3 -11 -17 0 -14 12 -16 12 -8 0 6 -11 5
-12 -6 -5 -23 14 -49 15 -49 1 0 -7 -3 -8 -8 -2 -9 13 -103 15 -95 2 4 -6 1
-7 -8 -1 -22 13 -43 14 -51 1 -6 -9 -8 -9 -8 1 0 12 -38 11 -59 -2 -5 -4 -11
-1 -13 6 -3 8 -7 8 -11 2z m195 -299 c5 -6 8 -6 8 1 0 8 11 9 34 4 19 -4 50
-6 70 -5 20 2 36 0 36 -4 0 -3 17 -6 38 -5 20 0 41 -1 47 -4 5 -3 23 -7 40 -8
16 -1 30 -2 30 -4 0 -1 9 -4 20 -5 33 -5 78 -14 110 -23 17 -5 35 -7 42 -5 6
2 14 -1 18 -6 3 -6 15 -11 26 -11 10 0 19 -4 19 -10 0 -5 7 -7 15 -4 8 4 15 2
15 -4 0 -6 9 -8 20 -5 11 3 20 0 20 -6 0 -6 9 -11 19 -11 11 0 23 -4 26 -10 3
-5 17 -10 31 -10 13 0 24 -4 24 -10 0 -5 7 -10 16 -10 17 0 75 -30 85 -44 4
-5 12 -5 18 -2 6 4 11 2 11 -3 0 -6 7 -11 15 -11 8 0 15 -4 15 -9 0 -8 37 -24
53 -22 4 1 7 -6 7 -14 0 -8 3 -14 8 -14 17 3 29 -2 56 -26 16 -14 35 -25 43
-25 7 0 13 -5 13 -10 0 -6 8 -14 18 -17 9 -4 26 -15 37 -25 61 -55 75 -67 75
-61 0 3 13 -9 29 -26 16 -17 31 -31 34 -31 8 0 84 -79 80 -83 -2 -3 8 -12 22
-21 14 -9 25 -23 25 -32 0 -8 4 -13 9 -9 6 3 15 -4 22 -17 6 -12 20 -31 30
-42 11 -11 19 -24 19 -28 0 -5 5 -6 10 -3 6 3 10 -1 10 -9 0 -9 5 -16 11 -16
5 0 7 -4 4 -10 -3 -5 -1 -10 6 -10 7 0 9 -3 6 -6 -4 -4 3 -15 15 -25 11 -11
18 -19 14 -19 -4 0 0 -7 8 -16 9 -8 16 -21 16 -29 0 -7 7 -16 16 -19 8 -3 12
-10 9 -16 -3 -5 -2 -10 3 -10 5 0 19 -23 31 -50 12 -28 25 -49 29 -46 4 3 9
-4 9 -15 1 -12 8 -28 15 -36 7 -9 13 -21 14 -27 0 -6 2 -17 2 -24 1 -7 7 -10
13 -6 8 4 9 0 4 -15 -3 -11 -2 -21 3 -21 4 0 15 -22 22 -50 7 -27 18 -50 23
-50 6 0 7 -3 4 -7 -4 -3 -2 -12 4 -20 9 -10 8 -13 -1 -13 -10 0 -9 -4 1 -16 7
-9 14 -21 16 -28 1 -6 5 -24 9 -41 4 -16 6 -38 6 -48 0 -9 3 -15 8 -12 4 3 8
-5 8 -18 0 -27 5 -48 15 -64 5 -8 3 -13 -3 -13 -8 0 -8 -6 0 -20 6 -11 8 -25
5 -30 -3 -5 -2 -11 3 -14 4 -2 7 -17 6 -33 -1 -15 3 -36 8 -45 6 -12 5 -18 -2
-18 -6 0 -8 -5 -3 -12 10 -18 10 -308 -1 -308 -4 0 -2 -8 5 -17 10 -11 10 -14
2 -9 -7 4 -13 3 -13 -1 0 -5 6 -15 13 -22 7 -9 7 -11 1 -8 -7 4 -14 0 -18 -8
-3 -8 0 -15 7 -15 7 0 8 -3 2 -8 -5 -4 -10 -22 -10 -39 1 -18 -3 -33 -8 -33
-5 0 -7 -16 -6 -35 2 -19 -2 -40 -9 -47 -16 -16 -16 -31 1 -22 10 6 10 4 0 -7
-7 -7 -13 -21 -13 -32 0 -10 -4 -16 -8 -13 -4 2 -7 -11 -7 -30 1 -19 -2 -34
-7 -34 -4 0 -8 -11 -8 -25 0 -14 -4 -25 -10 -25 -5 0 -10 -11 -10 -23 0 -13
-3 -27 -7 -31 -4 -3 -8 -14 -9 -24 -2 -9 -7 -18 -13 -20 -5 -2 -7 -10 -4 -18
3 -8 0 -14 -7 -14 -6 0 -8 -4 -5 -10 3 -5 1 -10 -5 -10 -6 0 -9 -4 -6 -8 3 -5
-4 -23 -15 -40 -10 -18 -19 -39 -19 -47 0 -8 -4 -15 -10 -15 -5 0 -10 -6 -10
-13 0 -7 -11 -29 -25 -50 -14 -20 -24 -41 -21 -45 3 -5 -4 -15 -15 -22 -10 -8
-19 -20 -19 -27 0 -7 -4 -13 -9 -13 -5 0 -12 -8 -15 -17 -3 -10 -17 -31 -31
-47 -13 -16 -22 -33 -18 -39 3 -6 1 -7 -5 -3 -7 4 -12 3 -12 -1 0 -5 -13 -23
-29 -41 -17 -17 -28 -32 -25 -32 3 0 -45 -50 -107 -110 -61 -61 -116 -110
-120 -110 -5 0 -9 -7 -9 -16 0 -8 -4 -12 -10 -9 -5 3 -21 -5 -34 -18 -13 -13
-40 -34 -60 -46 -20 -13 -36 -27 -36 -32 0 -6 -4 -8 -9 -5 -5 3 -20 -5 -33
-17 -14 -13 -33 -23 -41 -21 -9 1 -15 -3 -14 -9 1 -6 -3 -11 -10 -12 -7 0 -23
-9 -35 -20 -13 -10 -24 -18 -25 -17 -8 6 -23 0 -37 -14 -9 -8 -25 -16 -36 -17
-11 -1 -20 -5 -20 -10 0 -4 -4 -5 -10 -2 -5 3 -10 1 -10 -6 0 -7 -3 -9 -7 -6
-3 4 -11 3 -17 -2 -20 -16 -192 -78 -214 -76 -12 1 -19 -2 -16 -7 3 -4 2 -8
-3 -9 -4 0 -17 -2 -28 -4 -11 -2 -36 -6 -55 -9 -19 -3 -37 -6 -40 -7 -3 -1 -8
-1 -12 0 -5 0 -8 -4 -8 -10 0 -6 -8 -9 -19 -6 -10 2 -26 0 -35 -5 -11 -6 -16
-5 -16 4 0 8 -3 9 -8 3 -10 -14 -27 -17 -94 -18 -32 -1 -58 -6 -58 -12 0 -5
-5 -3 -10 5 -6 10 -10 11 -10 3 0 -7 -7 -13 -16 -13 -9 0 -12 5 -8 13 6 9 4 9
-8 -1 -12 -9 -18 -10 -23 -2 -4 7 -11 7 -18 2 -19 -14 -59 -13 -50 1 5 9 3 9
-8 0 -12 -10 -18 -10 -29 0 -9 9 -11 9 -6 0 4 -8 -1 -11 -14 -10 -11 1 -20 5
-20 10 0 5 -7 4 -15 -3 -8 -7 -15 -9 -15 -4 0 5 -25 9 -55 9 -30 0 -55 3 -55
7 0 5 -5 8 -11 8 -5 0 -7 -6 -3 -12 4 -7 -3 -4 -16 7 -13 11 -20 14 -15 6 6
-10 2 -11 -16 -5 -13 4 -37 9 -54 10 -16 1 -31 3 -32 4 -2 2 -7 4 -13 5 -5 1
-11 3 -12 5 -5 3 -42 11 -58 12 -8 0 -19 4 -25 8 -5 5 -23 10 -40 11 -16 2
-32 7 -35 11 -3 4 -18 9 -34 12 -15 3 -39 12 -53 22 -14 9 -23 12 -19 6 3 -6
-13 -1 -36 11 -24 11 -46 20 -50 19 -5 -1 -8 3 -8 9 0 5 -3 8 -7 6 -5 -3 -24
3 -43 14 -19 10 -43 21 -52 25 -10 3 -18 11 -18 16 0 5 -4 7 -9 3 -5 -3 -16 2
-24 10 -9 8 -23 15 -32 15 -9 0 -14 4 -11 9 3 5 -4 11 -17 15 -30 7 -30 8 -46
23 -7 8 -40 32 -72 54 -32 22 -59 45 -59 51 0 6 -3 9 -6 5 -10 -9 -141 110
-136 125 1 4 -2 7 -6 6 -5 -2 -37 25 -71 60 -34 34 -59 62 -56 62 4 0 0 6 -7
14 -29 30 -58 67 -58 74 0 4 -14 22 -31 39 -16 18 -27 33 -24 33 4 0 -1 7 -9
16 -9 8 -14 19 -11 24 3 4 -2 10 -10 14 -8 3 -15 12 -15 20 0 8 -3 16 -7 18
-12 5 -55 88 -47 88 4 0 0 6 -11 13 -11 9 -15 19 -10 27 5 9 4 11 -3 6 -7 -4
-12 -4 -13 1 -2 27 -9 47 -18 56 -6 6 -11 19 -11 29 0 10 -5 18 -11 18 -5 0
-7 5 -4 10 3 6 1 10 -5 10 -6 0 -9 4 -5 10 3 5 2 17 -3 27 -27 53 -34 73 -29
87 3 8 1 16 -5 18 -11 4 -17 22 -21 65 -1 13 -5 23 -9 23 -4 0 -5 7 -2 15 4 9
0 15 -7 15 -11 0 -11 3 1 10 8 5 10 10 4 10 -11 0 -14 13 -15 58 -1 12 -6 22
-13 22 -6 0 -4 5 4 10 11 7 11 10 2 10 -7 0 -12 6 -11 13 5 37 -2 78 -12 71
-8 -5 -8 -1 0 14 7 13 7 23 1 27 -6 4 -6 15 0 30 5 14 6 25 1 25 -4 0 -6 66
-4 148 3 176 5 195 18 204 6 5 5 8 -3 8 -7 0 -11 4 -8 8 3 5 8 22 10 38 11 60
15 74 22 86 4 7 3 8 -4 4 -7 -4 -5 7 3 29 9 19 13 35 11 35 -3 0 1 18 9 40 8
22 12 40 8 40 -3 0 0 6 6 13 6 8 8 17 4 20 -3 4 -1 7 6 7 7 0 11 6 8 14 -3 8
-3 17 1 20 3 4 7 17 9 29 2 12 8 24 13 25 6 2 8 8 4 13 -3 5 1 9 8 9 9 0 9 3
-2 10 -8 5 -10 10 -3 10 10 0 31 43 39 79 1 8 8 17 14 21 7 4 11 10 10 14 -3
12 25 66 33 66 5 0 5 5 2 10 -3 6 -1 10 5 10 6 0 9 4 6 8 -3 5 4 19 15 30 11
12 17 22 13 22 -3 0 6 16 20 35 15 19 23 35 19 35 -4 0 0 5 10 11 9 5 17 17
17 24 0 8 5 15 12 15 6 0 9 3 5 6 -3 3 7 19 23 34 16 15 26 31 23 34 -4 3 1 6
11 6 9 0 15 4 11 10 -3 5 5 20 17 32 13 13 22 26 21 30 -2 5 4 8 12 8 8 0 15
4 15 10 0 13 68 80 82 80 6 0 9 3 5 6 -7 7 29 44 44 44 5 0 7 5 4 10 -3 6 -1
10 5 10 17 0 40 26 32 35 -4 5 -2 5 5 2 6 -4 24 6 40 23 15 16 33 30 40 30 6
0 19 9 27 21 8 12 19 18 25 14 6 -3 11 1 11 11 0 10 3 15 6 11 4 -3 13 1 21 9
8 8 19 11 25 8 6 -4 8 -2 5 3 -7 10 20 28 36 25 4 -1 7 2 7 7 0 10 39 27 52
23 5 -1 7 4 5 11 -1 6 4 11 11 10 6 -2 12 2 12 8 0 5 5 7 10 4 6 -3 10 -1 10
5 0 6 4 9 9 6 5 -3 14 1 21 8 6 8 20 13 31 11 11 -2 17 0 14 6 -6 8 8 13 28
10 4 0 7 4 7 10 0 6 6 9 12 7 7 -3 19 1 26 9 7 7 22 13 33 13 10 0 19 4 19 8
0 4 8 8 18 9 9 1 31 7 47 14 17 7 35 14 40 15 6 1 13 3 18 4 4 1 10 3 15 4 4
1 12 4 17 8 6 4 23 5 38 4 15 -2 25 2 24 8 -1 6 10 9 27 8 21 -3 26 0 21 10
-5 7 -5 10 0 6 4 -4 15 -2 23 5 13 10 15 9 9 -7 -6 -15 -5 -17 6 -8 8 7 30 13
50 14 20 2 37 5 37 8 0 5 47 9 157 13 29 1 53 4 53 7 0 10 75 5 82 -5z"/>
<path d="M3388 4984 c-4 -5 -32 -11 -64 -12 -31 -1 -64 -8 -72 -14 -13 -11
-14 -11 -7 2 7 12 6 13 -6 4 -8 -6 -24 -10 -36 -9 -13 1 -23 -2 -23 -7 0 -5
-4 -7 -9 -3 -5 3 -12 1 -16 -5 -3 -5 -11 -10 -16 -10 -6 0 -8 4 -4 9 3 5 -7 3
-23 -4 -15 -8 -39 -17 -53 -19 -13 -2 -24 -5 -24 -6 0 -1 -9 -3 -19 -5 -10 -2
-22 -7 -25 -12 -6 -8 -27 -15 -48 -16 -7 0 -13 -4 -13 -9 0 -5 -4 -7 -9 -3 -6
3 -14 -3 -20 -12 -7 -13 -10 -14 -11 -4 0 12 -3 12 -17 -1 -17 -14 -50 -30
-66 -32 -4 -1 -12 -7 -16 -15 -5 -7 -14 -10 -20 -7 -6 4 -11 2 -11 -4 0 -6
-10 -15 -22 -20 -31 -14 -62 -33 -70 -45 -4 -5 -12 -10 -18 -10 -6 0 -15 -7
-20 -15 -5 -8 -10 -11 -10 -6 0 5 -9 -2 -21 -15 -11 -13 -25 -24 -29 -24 -5 0
-25 -17 -45 -38 -19 -20 -35 -34 -35 -31 0 8 -42 -37 -110 -115 -25 -29 -51
-59 -57 -66 -7 -7 -13 -18 -13 -23 0 -6 -7 -12 -15 -16 -8 -3 -15 -12 -15 -21
0 -8 -4 -15 -10 -15 -5 0 -10 -7 -10 -15 0 -8 -4 -15 -10 -15 -5 0 -9 -6 -7
-12 1 -7 -4 -12 -11 -10 -8 1 -11 -2 -7 -8 3 -5 -3 -24 -15 -40 -12 -17 -18
-30 -13 -30 4 0 1 -5 -7 -10 -8 -5 -16 -13 -16 -17 -5 -26 -18 -53 -26 -53 -5
0 -7 -4 -4 -9 4 -5 0 -22 -9 -38 -31 -61 -44 -96 -39 -104 3 -5 0 -9 -6 -9 -6
0 -8 -4 -5 -10 3 -5 0 -10 -7 -10 -10 0 -10 -2 1 -9 9 -6 10 -11 2 -15 -6 -4
-9 -12 -6 -17 4 -5 1 -9 -5 -9 -7 0 -10 -7 -7 -15 4 -8 3 -17 -2 -19 -4 -3 -8
-19 -9 -36 0 -17 -7 -39 -14 -48 -11 -13 -11 -15 2 -7 12 7 13 6 4 -6 -10 -14
-16 -56 -18 -129 -1 -19 -5 -38 -11 -42 -7 -5 -7 -10 0 -15 12 -10 19 -37 7
-30 -11 8 -9 -127 2 -135 6 -4 5 -12 -2 -21 -7 -7 -9 -17 -5 -21 4 -4 10 -33
14 -64 4 -31 10 -70 14 -87 3 -16 8 -39 9 -50 2 -11 6 -27 8 -35 3 -8 11 -35
19 -60 7 -25 15 -49 18 -55 6 -11 12 -33 13 -52 1 -7 5 -13 10 -13 4 0 8 -7 8
-15 0 -8 5 -15 11 -15 5 0 7 -5 4 -10 -4 -6 -1 -17 5 -25 7 -8 9 -15 4 -15 -5
0 -4 -4 1 -8 18 -13 36 -53 29 -64 -4 -7 -3 -8 4 -4 7 4 14 -3 18 -19 3 -14
10 -25 15 -25 5 0 9 -6 9 -13 0 -7 9 -23 20 -35 12 -12 17 -22 13 -22 -4 -1 2
-9 14 -19 12 -10 19 -21 16 -25 -4 -3 -2 -6 4 -6 5 0 15 -12 21 -26 7 -15 17
-22 24 -18 6 4 8 3 4 -4 -3 -6 12 -30 34 -53 22 -23 40 -46 40 -51 0 -4 8 -8
17 -8 9 0 13 -3 10 -6 -7 -7 42 -54 56 -54 4 0 7 -7 7 -16 0 -8 4 -13 8 -10 5
3 15 -4 22 -15 8 -10 20 -19 28 -19 7 0 10 -4 7 -10 -3 -5 0 -10 7 -10 7 0 26
-11 41 -25 15 -14 27 -23 27 -20 0 3 9 -3 20 -13 12 -11 38 -28 60 -38 22 -10
40 -23 40 -27 0 -5 5 -5 10 -2 6 3 10 1 10 -5 0 -6 4 -9 9 -6 5 3 11 -1 15 -9
3 -8 17 -15 31 -15 15 0 24 -4 20 -10 -4 -6 5 -10 19 -10 14 0 26 -4 26 -10 0
-5 9 -10 19 -10 11 0 23 -4 26 -10 3 -5 15 -10 26 -10 10 0 19 -5 19 -11 0 -5
5 -7 10 -4 6 4 16 2 23 -3 7 -5 20 -8 30 -7 9 2 17 -1 17 -6 0 -6 4 -8 9 -4 5
3 13 0 16 -6 4 -5 13 -8 21 -5 8 3 14 2 14 -2 0 -4 8 -8 18 -9 49 -3 72 -8 72
-18 0 -5 5 -3 10 5 5 8 10 10 10 4 0 -10 26 -14 108 -17 17 -1 32 -5 32 -9 0
-5 9 -4 20 2 11 6 20 7 20 3 0 -4 27 -8 59 -8 33 0 57 3 54 7 -7 12 20 5 30
-7 4 -6 11 -4 17 5 9 13 11 13 20 0 5 -8 10 -10 10 -5 0 6 21 11 47 13 25 1
53 8 62 15 12 10 13 9 6 -2 -6 -11 -4 -13 11 -7 10 4 33 10 49 12 17 3 37 7
45 10 8 3 29 8 45 11 17 3 31 9 33 13 2 5 10 6 18 3 8 -3 14 -1 14 4 0 4 14 9
31 9 17 1 35 7 39 14 4 6 9 11 11 10 2 -1 30 10 63 24 32 14 61 26 63 26 3 0
18 9 34 21 16 11 33 17 39 14 5 -3 10 1 10 10 0 9 4 14 9 11 5 -3 14 1 21 9 7
8 16 12 21 9 5 -3 9 -1 9 5 0 5 17 20 38 32 20 13 40 28 44 33 4 6 8 7 8 2 0
-5 16 8 36 30 20 21 33 32 29 24 -3 -8 1 -6 10 5 9 11 21 19 26 17 6 -1 8 2 4
8 -3 5 -1 10 5 10 6 0 8 5 5 10 -4 6 -2 9 2 8 13 -4 92 79 84 88 -3 4 3 4 14
0 11 -4 16 -4 12 0 -4 4 1 13 11 21 10 9 11 11 2 7 -13 -7 6 17 62 76 9 10 14
21 10 24 -3 3 0 6 6 6 7 0 12 7 12 16 0 8 5 12 10 9 6 -3 10 3 10 14 0 12 5
21 11 21 6 0 9 7 6 14 -4 9 2 17 14 21 10 4 17 10 14 15 -2 4 6 23 18 41 13
19 31 54 41 79 9 25 24 56 33 69 8 13 10 20 4 17 -7 -5 -9 -1 -5 8 3 9 10 16
15 16 5 0 8 3 8 8 -3 14 14 72 22 78 4 2 6 11 2 19 -3 8 -1 15 4 15 5 0 10 11
11 25 3 46 5 55 12 55 4 0 6 11 5 25 -2 14 1 28 6 31 6 4 6 11 -1 19 -8 10 -7
16 7 24 11 6 13 11 5 11 -8 0 -10 5 -6 12 4 7 8 24 8 38 1 14 5 31 10 39 6 10
6 12 -2 7 -7 -4 -12 -1 -12 9 0 9 4 14 8 11 4 -2 8 17 8 44 0 28 -4 46 -10 43
-5 -4 -6 -1 -1 8 12 19 15 59 5 59 -10 0 -6 33 6 52 5 8 2 9 -11 4 -15 -5 -16
-4 -6 8 7 8 10 19 7 24 -3 5 -6 28 -7 53 -1 24 -7 50 -12 57 -5 6 -7 12 -4 12
3 0 1 17 -4 38 -11 42 -19 81 -21 100 -1 6 -4 12 -8 12 -4 0 -7 7 -8 15 -1 8
-3 22 -4 30 -1 8 -6 15 -11 15 -6 0 -7 3 -4 6 3 4 1 16 -5 28 -7 11 -13 24
-14 29 -1 4 -3 9 -4 12 -1 3 -3 9 -4 14 0 5 -4 13 -8 17 -5 4 -8 15 -8 24 0 9
-9 26 -20 38 -12 12 -18 22 -15 22 3 0 -2 14 -12 30 -9 17 -21 30 -25 30 -4 0
-5 6 -2 14 3 7 -2 16 -11 20 -9 3 -13 10 -10 16 3 5 2 10 -4 10 -6 0 -13 11
-17 25 -3 14 -12 25 -20 25 -8 0 -13 3 -13 8 3 20 -2 32 -16 32 -8 0 -14 6
-12 13 1 6 -4 11 -11 9 -8 -1 -11 2 -7 8 3 5 -5 21 -18 34 -14 14 -22 27 -19
30 3 3 -2 6 -11 6 -10 0 -17 4 -17 8 0 5 -22 32 -50 60 -27 28 -50 49 -50 45
0 -3 -13 7 -29 23 -33 34 -69 64 -77 64 -2 0 -10 5 -17 10 -48 41 -60 49 -67
45 -4 -3 -10 2 -14 10 -3 8 -12 15 -21 15 -8 0 -15 5 -15 11 0 5 -4 7 -10 4
-5 -3 -15 3 -21 13 -8 13 -19 17 -32 14 -14 -3 -18 -1 -13 6 6 11 -12 17 -36
13 -5 0 -8 3 -8 9 0 5 -9 10 -20 10 -11 0 -20 5 -20 10 0 6 -9 10 -20 10 -11
0 -20 5 -20 11 0 5 -4 8 -8 5 -5 -3 -20 1 -35 9 -20 10 -27 11 -27 2 0 -7 -5
-4 -11 6 -6 9 -15 15 -20 11 -5 -3 -16 0 -24 6 -8 7 -15 9 -15 5 0 -4 -6 -2
-14 4 -8 6 -18 11 -22 10 -5 -1 -11 0 -14 1 -13 5 -47 11 -67 12 -13 0 -23 5
-23 10 0 7 -5 6 -13 -1 -8 -6 -17 -7 -23 -1 -5 5 -32 11 -60 13 -28 2 -56 7
-64 12 -9 5 -11 4 -6 -3 4 -7 2 -12 -3 -12 -6 0 -11 6 -11 13 0 8 -4 7 -10 -3
-5 -8 -10 -10 -10 -5 0 6 -18 11 -40 11 -24 1 -37 -3 -33 -9 4 -6 1 -7 -8 -2
-19 13 -51 14 -71 4 -11 -6 -18 -5 -20 3 -3 7 -7 8 -10 2z m172 -311 c74 -1
135 -7 135 -13 0 -1 12 -3 27 -4 14 0 29 -4 33 -8 4 -4 13 -4 21 -1 8 3 14 0
14 -7 0 -6 6 -10 13 -7 6 2 27 -2 45 -9 17 -7 32 -11 32 -8 0 3 6 2 13 -3 6
-4 21 -9 32 -10 11 -2 22 -8 23 -13 2 -6 8 -8 13 -4 5 3 9 0 9 -5 0 -6 8 -11
19 -11 10 0 24 -6 31 -14 6 -8 19 -12 28 -9 9 3 14 3 10 -2 -4 -4 14 -18 40
-31 26 -13 59 -35 75 -49 15 -14 27 -23 27 -19 0 4 8 -3 19 -14 10 -12 21 -22
25 -22 11 0 46 -39 47 -52 0 -9 2 -9 5 -2 3 7 17 0 35 -17 19 -18 28 -33 23
-41 -4 -7 -4 -10 0 -7 9 8 50 -30 59 -54 4 -10 11 -15 17 -12 5 3 10 0 10 -9
0 -8 11 -28 25 -44 14 -17 25 -35 25 -41 0 -7 7 -14 15 -17 8 -4 12 -10 9 -15
-3 -5 0 -9 6 -9 6 0 8 -4 5 -10 -3 -5 -1 -10 5 -10 6 0 8 -4 5 -10 -3 -5 -2
-10 3 -10 9 0 25 -37 23 -52 -1 -5 4 -8 10 -8 5 0 7 -4 4 -10 -3 -5 -1 -10 4
-10 6 0 11 -9 11 -19 0 -11 4 -22 9 -25 8 -5 38 -101 31 -101 -2 0 2 -11 9
-24 7 -13 14 -38 16 -55 1 -17 6 -39 10 -49 4 -10 8 -33 8 -52 1 -19 5 -35 10
-35 5 0 4 -6 -2 -13 -6 -8 -8 -17 -3 -21 12 -12 12 -87 0 -80 -7 5 -8 2 -2 -7
12 -18 14 -80 3 -73 -5 3 -5 -6 1 -20 5 -14 6 -28 1 -30 -4 -3 -7 -21 -6 -41
1 -19 -3 -35 -8 -35 -5 0 -7 -7 -3 -15 3 -8 0 -15 -7 -16 -9 0 -9 -2 0 -6 10
-3 10 -10 2 -25 -6 -11 -8 -26 -5 -34 3 -9 1 -12 -4 -9 -6 3 -10 3 -11 -2 -3
-33 -11 -59 -20 -62 -7 -2 -6 -7 2 -12 10 -6 10 -9 2 -9 -7 0 -10 -7 -6 -17 4
-11 3 -14 -5 -9 -11 6 -18 -19 -13 -46 0 -5 -4 -8 -10 -8 -5 0 -7 -4 -4 -10 3
-5 1 -10 -5 -10 -6 0 -8 -4 -5 -10 3 -5 1 -10 -5 -10 -6 0 -8 -4 -5 -10 3 -5
2 -10 -3 -10 -4 0 -14 -16 -22 -35 -8 -19 -17 -35 -22 -35 -4 0 -8 -6 -8 -13
0 -7 -9 -23 -20 -35 -11 -12 -20 -25 -20 -30 0 -5 -18 -29 -39 -53 -22 -23
-38 -46 -35 -51 3 -4 1 -8 -5 -8 -12 0 -76 -63 -73 -72 1 -5 -3 -8 -9 -8 -6 0
-24 -14 -41 -30 -16 -17 -33 -28 -38 -25 -5 3 -12 0 -16 -6 -5 -8 -3 -9 7 -4
25 15 4 -3 -34 -29 -21 -14 -42 -26 -47 -26 -6 0 -10 -4 -10 -10 0 -5 -11 -12
-25 -16 -14 -3 -22 -10 -19 -15 3 -5 -2 -9 -10 -9 -9 0 -31 -9 -51 -20 -19
-11 -35 -17 -35 -13 0 3 -8 -1 -18 -10 -10 -10 -22 -14 -25 -10 -4 3 -7 2 -7
-4 0 -6 -10 -10 -22 -9 -15 1 -22 -4 -20 -13 3 -12 1 -12 -14 0 -10 8 -15 9
-11 2 5 -7 -7 -14 -35 -19 -51 -9 -57 -11 -60 -14 -4 -4 -48 -10 -80 -12 -16
-1 -28 -6 -28 -11 0 -5 -8 -3 -17 4 -11 10 -14 10 -9 2 5 -10 -7 -13 -51 -14
-149 -4 -263 3 -263 14 0 5 -8 3 -17 -4 -11 -10 -14 -10 -9 -1 5 8 -1 12 -19
12 -15 0 -36 5 -47 11 -16 8 -19 8 -13 -1 6 -9 2 -9 -14 -1 -11 7 -21 9 -21 6
0 -3 -10 0 -22 7 -13 7 -30 13 -38 13 -8 1 -14 7 -12 15 3 11 0 12 -8 4 -9 -9
-21 -7 -48 6 -20 9 -52 23 -69 31 -18 8 -33 17 -33 21 0 5 -7 8 -15 8 -17 0
-65 28 -77 45 -4 5 -8 7 -8 3 0 -5 -12 2 -26 15 -14 12 -28 21 -31 19 -2 -2
-13 6 -22 17 -10 12 -24 21 -30 21 -7 0 -9 5 -6 10 3 6 1 10 -5 10 -6 0 -47
36 -91 80 -43 44 -76 80 -72 80 4 0 -2 9 -13 20 -31 31 -45 50 -37 50 4 0 -2
7 -13 15 -10 8 -15 15 -11 15 4 0 -1 10 -12 22 -11 11 -18 25 -15 30 3 4 1 8
-5 8 -6 0 -13 11 -17 25 -3 14 -10 22 -15 19 -5 -3 -9 -2 -8 3 5 27 -2 53 -13
47 -7 -5 -9 -2 -5 9 3 8 -1 21 -8 27 -8 7 -13 16 -10 20 3 5 0 14 -7 22 -7 7
-14 24 -16 38 -5 47 -5 50 -12 50 -4 0 -7 6 -8 13 -2 22 -7 42 -16 56 -7 10
-5 12 3 6 10 -6 10 -2 0 16 -7 13 -12 32 -10 42 1 10 -3 24 -9 32 -8 9 -8 15
0 20 8 5 8 11 -1 21 -6 8 -7 14 -2 14 5 0 9 9 9 19 0 11 -3 18 -7 15 -11 -7
-7 90 5 105 9 12 8 13 -2 7 -10 -6 -13 -2 -10 15 2 13 8 27 13 31 6 5 5 8 -4
8 -11 0 -11 3 0 17 12 15 12 16 -1 8 -12 -7 -13 -6 -4 6 7 8 11 25 10 39 -1
14 5 34 13 44 12 15 13 17 2 11 -11 -6 -13 -4 -7 11 4 10 9 24 10 31 1 7 5 16
9 19 12 12 8 26 -5 18 -8 -5 -7 0 2 11 8 10 14 27 12 38 -2 12 1 17 7 13 7 -5
11 4 11 24 0 21 4 29 12 24 8 -5 9 -2 5 9 -3 10 -3 17 1 17 4 0 9 10 9 22 1
13 7 24 13 26 5 2 10 12 10 23 0 10 4 19 10 19 5 0 6 7 3 17 -5 12 -3 14 7 8
8 -5 11 -3 8 6 -2 7 3 21 11 31 9 10 25 36 37 58 12 22 23 37 26 34 3 -2 11 9
18 26 7 16 16 27 21 24 5 -3 9 1 9 8 0 22 194 211 204 200 3 -3 6 0 6 6 0 7 7
12 15 12 8 0 15 8 15 17 0 9 3 13 6 10 4 -4 19 2 34 13 16 11 33 20 39 20 6 0
11 5 11 10 0 6 7 10 15 10 8 0 15 6 16 13 0 9 2 9 6 -1 4 -10 8 -8 18 5 7 10
17 18 22 19 4 0 25 8 47 17 21 9 45 17 52 17 8 0 14 4 14 8 0 5 7 9 15 10 8 1
22 3 30 4 8 1 15 5 15 10 0 5 5 6 10 3 6 -3 16 -3 23 2 11 7 22 9 87 17 14 2
34 7 44 12 11 4 46 8 78 8 33 0 58 5 58 11 0 6 3 7 8 0 4 -5 45 -11 92 -12z"/>
<path d="M3365 4319 c-4 -5 -10 -7 -15 -4 -5 3 -11 1 -15 -4 -3 -5 -14 -8 -25
-6 -11 2 -20 -1 -20 -7 0 -6 -9 -8 -20 -5 -11 3 -20 1 -20 -5 0 -5 -4 -7 -9
-3 -5 3 -13 0 -16 -6 -4 -5 -13 -8 -20 -5 -7 2 -16 -1 -19 -9 -2 -7 -13 -12
-22 -11 -10 2 -26 -6 -36 -16 -10 -10 -23 -16 -27 -13 -5 2 -12 -2 -15 -11 -3
-8 -10 -12 -16 -9 -5 3 -10 2 -10 -4 0 -5 -8 -12 -18 -15 -9 -3 -33 -20 -52
-38 -19 -18 -38 -31 -42 -30 -5 1 -8 -3 -8 -9 0 -5 -5 -7 -12 -3 -6 4 -8 3 -5
-3 4 -6 -1 -19 -9 -29 -9 -10 -12 -12 -8 -4 4 8 -3 5 -15 -7 -11 -12 -21 -27
-21 -32 0 -6 -9 -15 -20 -21 -11 -6 -20 -17 -20 -25 0 -8 -8 -19 -17 -24 -10
-6 -14 -11 -9 -11 5 0 1 -10 -10 -22 -12 -13 -13 -18 -4 -13 13 8 13 6 1 -8
-7 -9 -16 -15 -20 -13 -4 3 -8 -4 -8 -15 -1 -10 -9 -26 -17 -35 -18 -18 -21
-28 -5 -18 6 3 4 -5 -5 -19 -10 -14 -19 -37 -22 -53 -3 -15 -8 -32 -11 -38 -4
-6 -8 -21 -9 -35 -2 -13 -7 -28 -13 -34 -7 -7 -7 -16 -1 -28 6 -10 6 -20 2
-23 -4 -3 -8 -53 -7 -111 1 -81 4 -108 15 -115 11 -7 11 -10 2 -10 -9 0 -10
-5 -4 -17 5 -10 8 -26 7 -35 -2 -10 1 -18 6 -18 5 0 9 -13 9 -28 0 -15 4 -32
9 -37 5 -6 11 -19 13 -30 1 -11 5 -22 8 -25 3 -3 18 -31 35 -62 16 -32 34 -58
39 -58 5 0 7 -3 3 -6 -3 -3 2 -15 11 -26 59 -72 98 -115 121 -132 14 -11 36
-31 49 -44 12 -12 22 -20 22 -17 0 7 62 -35 71 -48 3 -5 9 -8 13 -7 12 3 66
-25 66 -33 0 -5 4 -6 8 -3 5 3 21 -2 37 -10 15 -8 30 -12 33 -9 3 2 11 -3 19
-13 8 -9 12 -11 8 -4 -3 6 -1 12 4 12 6 0 11 -4 11 -8 0 -4 19 -9 43 -11 23
-1 43 -5 45 -10 1 -4 23 -6 47 -5 29 2 43 -1 39 -8 -4 -6 0 -7 12 -1 11 4 43
8 71 8 29 0 53 4 53 8 0 4 8 3 18 -2 11 -6 23 -6 28 -1 9 9 54 21 87 23 9 1
17 4 17 8 0 4 7 10 16 13 10 4 13 2 8 -7 -5 -8 -2 -7 9 2 9 7 17 10 17 7 0 -4
7 0 16 9 9 9 23 14 31 11 8 -3 11 -1 8 4 -3 5 6 12 20 16 14 3 25 10 25 16 0
5 5 6 10 3 6 -3 10 -1 10 5 0 6 5 8 10 5 6 -3 10 -1 10 4 0 6 4 11 10 11 10 0
31 15 78 58 14 12 28 22 32 22 4 0 13 11 20 25 7 14 18 25 24 25 12 1 76 84
76 99 0 5 7 11 15 15 8 3 15 9 14 13 -3 21 2 33 15 33 10 0 13 7 11 20 -2 12
2 23 10 26 7 3 16 12 19 20 4 9 2 12 -5 8 -6 -3 -4 5 5 18 9 14 13 28 9 31 -3
4 -1 7 6 7 8 0 11 7 7 15 -3 8 -1 15 5 15 6 0 8 4 4 9 -3 5 -1 12 4 15 5 3 7
15 4 26 -3 11 -1 20 4 20 6 0 9 11 8 25 -2 14 0 25 3 25 4 0 7 45 7 100 1 60
-3 100 -9 100 -6 0 -5 5 2 12 7 7 8 17 1 30 -5 10 -7 18 -3 18 3 0 1 7 -6 15
-7 8 -9 15 -5 15 4 0 2 6 -4 14 -8 10 -9 16 -2 21 7 4 5 14 -5 30 -9 13 -13
29 -9 35 3 5 1 10 -4 10 -6 0 -11 9 -11 21 0 11 -4 18 -9 14 -6 -3 -8 3 -6 14
2 11 -3 25 -11 31 -7 7 -11 16 -8 21 3 5 0 9 -6 9 -6 0 -9 4 -6 9 3 5 -1 12
-10 15 -8 3 -12 10 -9 16 3 5 1 10 -4 10 -6 0 -11 5 -11 10 0 6 -12 23 -26 38
-14 15 -30 37 -35 50 -4 12 -16 22 -24 22 -9 0 -14 4 -10 9 3 5 -4 12 -15 16
-11 4 -18 11 -15 16 4 5 2 9 -3 9 -5 0 -22 13 -38 30 -16 16 -34 30 -40 30 -6
0 -22 10 -36 23 -14 12 -32 23 -39 25 -8 2 -21 10 -30 18 -8 8 -21 14 -27 14
-7 0 -20 4 -30 9 -37 19 -68 31 -87 34 -39 7 -80 20 -92 29 -7 5 -14 5 -18 -2
-3 -6 -11 -7 -17 -4 -15 10 -164 13 -179 4 -7 -5 -23 -4 -35 0 -14 6 -26 5
-29 -1z m113 -308 c8 -9 11 -10 7 -3 -3 6 -3 12 2 13 4 0 16 2 26 4 9 2 17 0
17 -3 0 -4 13 -7 30 -8 18 -1 27 3 24 10 -3 6 0 4 8 -4 7 -9 23 -15 36 -14 12
1 25 -3 28 -7 3 -5 14 -9 25 -9 10 0 19 -4 19 -10 0 -5 6 -7 13 -5 6 3 24 -6
38 -19 15 -14 30 -22 33 -19 6 7 14 0 81 -68 72 -72 84 -87 78 -93 -4 -3 0 -6
7 -6 7 0 10 -3 7 -7 -4 -3 0 -14 9 -24 8 -9 17 -26 19 -36 2 -10 4 -19 4 -20
1 -2 1 -6 0 -9 0 -4 4 -10 10 -13 6 -4 11 -21 13 -39 1 -18 5 -32 9 -32 4 0 6
-11 4 -25 -1 -14 2 -28 7 -31 4 -3 5 -10 2 -16 -4 -6 -7 -38 -8 -72 -1 -33 -7
-70 -13 -81 -6 -11 -8 -25 -6 -32 2 -6 -1 -14 -6 -18 -6 -3 -11 -13 -11 -22 0
-8 -9 -28 -21 -44 -11 -16 -17 -29 -12 -29 4 0 0 -5 -10 -11 -9 -6 -15 -14
-12 -20 4 -5 2 -9 -4 -9 -6 0 -26 -21 -46 -46 -19 -26 -35 -43 -35 -38 0 5 -4
4 -8 -2 -13 -19 -86 -69 -78 -54 4 8 -2 4 -13 -10 -11 -14 -21 -21 -21 -16 0
5 -7 2 -16 -5 -9 -8 -22 -14 -28 -15 -6 0 -19 -2 -29 -2 -10 -1 -16 -6 -13
-10 3 -5 -13 -8 -34 -8 -22 1 -40 -1 -40 -5 0 -3 -22 -6 -49 -5 -32 1 -47 -2
-43 -9 3 -5 -1 -5 -9 2 -8 7 -34 13 -57 14 -23 2 -42 7 -42 12 0 4 -4 5 -10 2
-5 -3 -10 0 -10 7 0 9 -3 9 -10 -2 -7 -11 -10 -11 -10 -2 0 7 -4 10 -10 7 -5
-3 -10 -1 -10 4 0 6 -3 10 -7 9 -12 -4 -73 26 -73 35 0 5 -4 5 -10 2 -5 -3
-10 -1 -10 6 0 7 -2 10 -5 7 -3 -3 -24 12 -46 33 -23 22 -46 39 -51 39 -6 0
-7 7 -4 16 3 8 2 12 -4 9 -6 -3 -10 1 -10 10 0 9 -4 13 -10 10 -5 -3 -10 -2
-10 3 0 5 -11 26 -25 46 -14 21 -23 42 -20 47 4 5 2 9 -3 9 -9 0 -25 41 -27
68 0 7 -7 17 -15 22 -11 7 -11 10 -2 10 8 0 10 5 5 13 -9 15 -13 197 -4 197 4
0 8 14 9 32 2 18 6 35 10 38 4 3 9 14 10 25 2 11 9 23 15 27 7 4 9 8 4 8 -4 0
-1 10 8 23 8 13 12 27 8 30 -3 4 1 7 11 7 9 0 15 4 11 9 -3 5 4 16 15 24 11 7
17 17 13 20 -3 4 1 7 11 7 9 0 15 3 13 8 -6 9 19 33 27 25 3 -4 6 2 6 11 0 11
12 22 30 29 17 6 30 15 30 20 0 4 14 13 30 18 17 6 30 15 30 21 0 5 5 6 10 3
6 -3 10 -1 10 6 0 7 3 10 6 6 3 -3 24 1 46 9 22 8 51 14 65 14 13 0 22 4 19 8
-9 15 39 8 52 -7z"/>
</g>
</svg>
