<svg width="25" height="25" viewBox="0 0 25 25" fill="none" xmlns="http://www.w3.org/2000/svg">
<path d="M9.03125 11.229L11.8958 20.7706C11.9842 21.0871 12.1734 21.3662 12.4347 21.5654C12.696 21.7647 13.0151 21.8733 13.3437 21.8748V21.8748C13.5435 21.8734 13.7409 21.8328 13.9249 21.7551C14.1089 21.6774 14.2758 21.5642 14.4161 21.422C14.5563 21.2798 14.6672 21.1114 14.7424 20.9263C14.8176 20.7413 14.8555 20.5433 14.8542 20.3436V14.8436" stroke="#202020" stroke-width="1.5" stroke-linecap="round" stroke-linejoin="round"/>
<path d="M2.08333 12.4999C2.05747 12.9721 2.12815 13.4447 2.29104 13.8886C2.45394 14.3326 2.70565 14.7387 3.03078 15.0821C3.35591 15.4256 3.74762 15.6991 4.18202 15.886C4.61642 16.0729 5.08437 16.1694 5.55728 16.1694C6.0302 16.1694 6.49814 16.0729 6.93255 15.886C7.36695 15.6991 7.75869 15.4256 8.08382 15.0821C8.40895 14.7387 8.66066 14.3326 8.82355 13.8886C8.98645 13.4447 9.05713 12.9721 9.03126 12.4999V6.63531C9.05713 6.1631 8.98645 5.6906 8.82355 5.24663C8.66066 4.80265 8.40895 4.3965 8.08382 4.05307C7.75869 3.70965 7.36695 3.43613 6.93255 3.24919C6.49814 3.06225 6.0302 2.96582 5.55728 2.96582C5.08437 2.96582 4.61642 3.06225 4.18202 3.24919C3.74762 3.43613 3.35591 3.70965 3.03078 4.05307C2.70565 4.3965 2.45394 4.80265 2.29104 5.24663C2.12815 5.6906 2.05747 6.1631 2.08333 6.63531V12.4999Z" stroke="#202020" stroke-width="1.5" stroke-linecap="round" stroke-linejoin="round"/>
<path d="M9.03131 6.63541C9.02857 6.17715 9.11609 5.72285 9.28893 5.29842C9.46177 4.874 9.71651 4.48775 10.0386 4.16177C10.3607 3.8358 10.7439 3.57647 11.1662 3.39858C11.5885 3.22068 12.0418 3.12773 12.5 3.125H16.7917C17.7924 3.12575 18.7659 3.45107 19.566 4.0521C20.3661 4.65313 20.9497 5.49745 21.2292 6.45835L22.7917 11.75C22.9161 12.1018 22.9547 12.4781 22.9043 12.8478C22.854 13.2174 22.7161 13.5697 22.5021 13.8754C22.2882 14.181 22.0043 14.4312 21.6742 14.6051C21.3441 14.7789 20.9773 14.8715 20.6042 14.875H14.875" stroke="#202020" stroke-width="1.5" stroke-linecap="round" stroke-linejoin="round"/>
</svg>
