<svg width="25" height="25" viewBox="0 0 25 25" fill="none" xmlns="http://www.w3.org/2000/svg">
<path d="M2.0638 12.4897C2.03793 12.0175 2.10861 11.545 2.27151 11.1011C2.43441 10.6571 2.6861 10.251 3.01123 9.90756C3.33636 9.56414 3.72809 9.29055 4.16249 9.10362C4.59689 8.91668 5.06485 8.82031 5.53777 8.82031C6.01068 8.82031 6.47863 8.91668 6.91303 9.10362C7.34743 9.29055 7.73916 9.56414 8.06429 9.90756C8.38942 10.251 8.64113 10.6571 8.80402 11.1011C8.96692 11.545 9.03758 12.0175 9.01172 12.4897V18.3543C9.03758 18.8265 8.96692 19.2991 8.80402 19.7431C8.64113 20.187 8.38942 20.5931 8.06429 20.9366C7.73916 21.28 7.34743 21.5535 6.91303 21.7404C6.47863 21.9274 6.01068 22.0238 5.53777 22.0238C5.06485 22.0238 4.59689 21.9274 4.16249 21.7404C3.72809 21.5535 3.33636 21.28 3.01123 20.9366C2.6861 20.5931 2.43441 20.187 2.27151 19.7431C2.10861 19.2991 2.03793 18.8265 2.0638 18.3543V12.4897Z" stroke="#EBE6FF" stroke-width="1.5" stroke-linecap="round" stroke-linejoin="round"/>
<path d="M9.03131 18.3543C9.02857 18.8126 9.11611 19.2669 9.28895 19.6913C9.46179 20.1157 9.71653 20.502 10.0386 20.8279C10.3607 21.1539 10.7439 21.4132 11.1662 21.5911C11.5886 21.769 12.0418 21.862 12.5001 21.8647H16.7917C17.7924 21.864 18.7659 21.5387 19.566 20.9377C20.3661 20.3366 20.9497 19.4923 21.2292 18.5314L22.7917 13.2397C22.9161 12.888 22.9547 12.5116 22.9043 12.1419C22.854 11.7723 22.7161 11.42 22.5021 11.1143C22.2882 10.8087 22.0043 10.5585 21.6742 10.3846C21.3441 10.2108 20.9773 10.1183 20.6042 10.1147H14.8542V4.61472C14.8556 4.415 14.8176 4.217 14.7425 4.03196C14.6673 3.84692 14.5564 3.67849 14.4162 3.5363C14.2759 3.39411 14.109 3.28091 13.925 3.20321C13.741 3.12552 13.5435 3.08486 13.3438 3.0835V3.0835C13.0152 3.08499 12.6961 3.19361 12.4348 3.39287C12.1735 3.59213 11.9843 3.87116 11.8959 4.18766L9.03131 13.7293" stroke="#EBE6FF" stroke-width="1.5" stroke-linecap="round" stroke-linejoin="round"/>
</svg>
