<svg width="40" height="48" viewBox="0 0 40 48" fill="none" xmlns="http://www.w3.org/2000/svg">
<g filter="url(#filter0_d_642_6862)">
<path d="M4 26.7975C4 19.4341 14.8339 8.07518 18.6719 4.2823C19.4164 3.54651 20.5836 3.54651 21.3281 4.2823C25.166 8.07518 36 19.4341 36 26.7975C36 35.7459 28.8366 43 20 43C11.1634 43 4 35.7459 4 26.7975Z" fill="white"/>
<path d="M7.5 26.7975C7.5 25.7405 7.91323 24.2193 8.88568 22.2668C9.83225 20.3663 11.1721 18.3257 12.6927 16.3062C15.1963 12.9813 18.0333 9.91821 20 7.90951C21.9667 9.91821 24.8037 12.9813 27.3073 16.3062C28.8279 18.3257 30.1677 20.3663 31.1143 22.2668C32.0868 24.2193 32.5 25.7405 32.5 26.7975C32.5 33.8545 26.8622 39.5 20 39.5C13.1378 39.5 7.5 33.8545 7.5 26.7975Z" stroke="#8D9ACE" stroke-width="7"/>
</g>
<defs>
<filter id="filter0_d_642_6862" x="0" y="0.730461" width="40" height="47.2695" filterUnits="userSpaceOnUse" color-interpolation-filters="sRGB">
<feFlood flood-opacity="0" result="BackgroundImageFix"/>
<feColorMatrix in="SourceAlpha" type="matrix" values="0 0 0 0 0 0 0 0 0 0 0 0 0 0 0 0 0 0 127 0" result="hardAlpha"/>
<feOffset dy="1"/>
<feGaussianBlur stdDeviation="2"/>
<feComposite in2="hardAlpha" operator="out"/>
<feColorMatrix type="matrix" values="0 0 0 0 0.0666667 0 0 0 0 0.0666667 0 0 0 0 0.0666667 0 0 0 0.25 0"/>
<feBlend mode="normal" in2="BackgroundImageFix" result="effect1_dropShadow_642_6862"/>
<feBlend mode="normal" in="SourceGraphic" in2="effect1_dropShadow_642_6862" result="shape"/>
</filter>
</defs>
</svg>
