<svg width="80" height="80" viewBox="0 0 80 80" fill="none" xmlns="http://www.w3.org/2000/svg">
<circle cx="40" cy="40" r="40" fill="#EAEAEA"/>
<path d="M61.6789 17.647C62.525 18.357 62.6354 19.6186 61.9254 20.4647L29.8728 58.6634C29.7423 58.8189 29.5889 58.9537 29.4179 59.063L22.242 63.6495C20.6042 64.6963 18.5866 63.0276 19.3076 61.2225L22.4866 53.2633C22.5654 53.0659 22.6752 52.8823 22.8118 52.7195L54.855 14.532C55.565 13.6858 56.8265 13.5755 57.6727 14.2855L61.6789 17.647Z" fill="url(#paint0_linear)"/>
<rect x="50.7383" y="27.1841" width="31.0716" height="1" transform="rotate(130 50.7383 27.1841)" fill="black"/>
<line x1="52.3254" y1="17.6204" x2="59.3254" y2="23.6204" stroke="black"/>
<line x1="33" y1="62" x2="63" y2="62" stroke="#898989" stroke-width="2"/>
<defs>
<linearGradient id="paint0_linear" x1="55.5" y1="22" x2="57" y2="20" gradientUnits="userSpaceOnUse">
<stop stop-color="#FFE0BC"/>
<stop offset="1" stop-color="#F79171"/>
</linearGradient>
</defs>
</svg>
