<svg width="80" height="80" viewBox="0 0 80 80" fill="none" xmlns="http://www.w3.org/2000/svg">
<circle cx="40" cy="40" r="40" fill="#EAEAEA"/>
<path d="M35.9967 19.036C32.1118 19.3364 28.8953 20.7141 26.1585 23.2496C24.4127 24.8691 23.1937 26.7085 22.5567 28.7091C21.7781 31.164 21.8175 34.1025 22.6668 36.5648C22.9892 37.4955 23.815 39.0124 24.452 39.8405C25.0811 40.6539 26.5281 42.0829 27.3775 42.7204C29.5008 44.3179 31.8994 45.3219 34.6205 45.7469C35.6507 45.9081 38.0729 45.9741 39.1896 45.8642C42.8465 45.5051 46 44.1274 48.5008 41.7971C49.3816 40.9763 51.332 38.7486 51.2376 38.6753C51.1983 38.646 49.9243 38.2356 48.3986 37.7593L45.6304 36.8946L45.1821 37.3636C43.4205 39.2249 41.8398 40.1409 39.5356 40.6246C38.7885 40.7785 36.5157 40.8444 35.4934 40.7345C35.053 40.6832 34.416 40.5806 34.0857 40.5C33.4723 40.3461 32.4892 39.9357 32.4421 39.8038C32.4263 39.7672 35.6428 36.9165 39.5907 33.4723C43.5385 30.0281 47.4628 26.5839 48.3278 25.8218L49.8928 24.4368L48.8783 23.4914C48.3278 22.9712 47.5886 22.3263 47.2426 22.0698C45.1743 20.5016 42.4296 19.439 39.6142 19.1166C38.6548 19.0066 36.8775 18.9627 35.9967 19.036ZM40.3299 24.2975C40.7231 24.3781 41.1556 24.4954 41.2972 24.5687L41.5489 24.6859L41.0534 25.1183C40.7782 25.3528 37.8527 27.9176 34.5418 30.8196L28.5257 36.0885L28.3841 35.8906C28.3133 35.7807 28.1718 35.4289 28.0774 35.1138C27.928 34.6009 27.9044 34.3444 27.9044 32.8128C27.8965 31.2299 27.9122 31.0394 28.0774 30.4678C28.7695 28.1228 30.5625 26.1516 33.0397 25.0084C33.8576 24.6273 34.8092 24.3415 35.7608 24.2023C36.7674 24.0484 39.3469 24.107 40.3299 24.2975Z" fill="#319854"/>
<path d="M52.6138 27.7347C52.3621 27.7493 52.1577 27.7933 52.1577 27.8299C52.1577 27.8666 52.0318 27.9179 51.8824 27.9472C51.733 27.9692 51.6072 28.0205 51.6072 28.0498C51.6072 28.0864 51.5128 28.123 51.3948 28.1377C51.269 28.1524 51.1825 28.1963 51.1982 28.2476C51.2061 28.2989 51.1432 28.3429 51.0567 28.3429C50.9702 28.3429 50.8758 28.3942 50.8522 28.4528C50.8208 28.5114 50.7657 28.5627 50.7185 28.5627C50.6713 28.5627 50.4983 28.6946 50.341 28.8558C50.1759 29.017 50.0107 29.149 49.9636 29.149C49.9164 29.149 49.877 29.2002 49.877 29.2589C49.877 29.3175 49.8456 29.3688 49.7984 29.3688C49.7591 29.3688 49.7198 29.4201 49.7198 29.4787C49.7198 29.5373 49.6883 29.5886 49.6411 29.5886C49.6018 29.5886 49.5625 29.6399 49.5625 29.6985C49.5625 29.7572 49.5232 29.8085 49.4838 29.8085C49.4366 29.8085 49.303 29.999 49.185 30.2262C48.9805 30.6365 48.9727 30.6951 48.9727 31.8603C48.9727 32.8862 48.9962 33.1133 49.1221 33.3625C49.358 33.8388 49.8299 34.4983 49.94 34.4983C49.9871 34.4983 50.0343 34.5496 50.0343 34.6082C50.0343 34.6669 50.0894 34.7182 50.1523 34.7182C50.2152 34.7182 50.2703 34.7695 50.2703 34.8354C50.2703 34.894 50.3096 34.9233 50.3489 34.9014C50.3961 34.8794 50.4511 34.9087 50.4747 34.9673C50.4983 35.0333 50.577 35.0846 50.632 35.0846C50.6949 35.0846 50.7657 35.1358 50.7893 35.1945C50.8208 35.2531 50.8915 35.3044 50.9466 35.3044C51.0095 35.3044 51.0803 35.3557 51.1039 35.4143C51.1353 35.4729 51.2376 35.5242 51.3398 35.5242C51.4578 35.5242 51.5285 35.5682 51.5285 35.6341C51.5285 35.7074 51.615 35.7441 51.8038 35.7441C51.9925 35.7441 52.079 35.7807 52.079 35.854C52.079 35.9419 52.1891 35.9639 52.5902 35.9639C52.9677 35.9639 53.1014 35.9932 53.1014 36.0665C53.1014 36.1398 53.2351 36.1618 53.6519 36.1544C54.0372 36.1471 54.2024 36.1178 54.2024 36.0592C54.2024 35.9932 54.3597 35.9639 54.7529 35.9639C55.209 35.9639 55.2876 35.9419 55.2562 35.854C55.2169 35.766 55.2719 35.7441 55.4921 35.7441C55.6887 35.7441 55.7752 35.7148 55.7752 35.6341C55.7752 35.5609 55.8539 35.5242 56.0112 35.5242C56.1527 35.5242 56.2392 35.4876 56.2235 35.4363C56.2156 35.385 56.2864 35.3337 56.3886 35.319C56.483 35.3044 56.5617 35.2458 56.5617 35.1871C56.5617 35.1285 56.6167 35.0846 56.6796 35.0846C56.7425 35.0846 56.7976 35.0479 56.7976 35.0113C56.7976 34.9673 56.8684 34.938 56.9549 34.938C57.0414 34.938 57.1122 34.8867 57.1122 34.8281C57.1122 34.7695 57.1515 34.7182 57.1908 34.7182C57.238 34.7182 57.2694 34.6669 57.2694 34.6082C57.2694 34.5496 57.3245 34.4983 57.3874 34.4983C57.4503 34.4983 57.5054 34.4617 57.5054 34.425C57.5054 34.3811 57.5683 34.2785 57.6548 34.1979C57.7334 34.1173 57.8671 33.9267 57.9458 33.7802C58.0323 33.6336 58.1345 33.4871 58.1738 33.4578C58.2839 33.3845 58.2761 30.3361 58.1738 30.2628C58.1266 30.2335 58.0244 30.0796 57.9379 29.9184C57.8514 29.7572 57.6941 29.5373 57.584 29.4347C57.4739 29.3248 57.3009 29.1416 57.1908 29.017C57.0807 28.8925 56.9549 28.7899 56.9077 28.7826C56.8526 28.7826 56.7976 28.7313 56.7661 28.6726C56.7425 28.614 56.6718 28.5627 56.6088 28.5627C56.5538 28.5627 56.483 28.5114 56.4516 28.4528C56.428 28.3942 56.3572 28.3429 56.2943 28.3429C56.2392 28.3429 56.1684 28.2916 56.137 28.233C56.1134 28.1743 56.0033 28.123 55.8932 28.123C55.7831 28.123 55.6966 28.0864 55.6966 28.0498C55.6966 28.0058 55.6101 27.9765 55.5078 27.9765C55.3977 27.9765 55.2641 27.9252 55.2011 27.8666C55.0753 27.7493 53.5182 27.6687 52.6138 27.7347Z" fill="#319854"/>
<path d="M50.3973 44.3325C50.2872 44.4791 50.2715 45.3511 50.2715 52.2469V60H53.8104H57.3493V52.1736C57.3493 46.1865 57.3257 44.3252 57.2549 44.2592C57.1842 44.1933 56.3191 44.1713 53.8419 44.1713H50.5153L50.3973 44.3325Z" fill="#319854"/>
</svg>
