<svg width="21" height="36" viewBox="0 0 21 36" fill="none" xmlns="http://www.w3.org/2000/svg">
<path d="M12.9066 14.0625C13.7626 16.0628 13.7626 19.9373 12.9066 21.9375M14.833 10.125C17.3937 14.409 17.4091 21.6191 14.833 25.875M3.91699 21.3289L3.91699 14.67C3.91699 14.0243 4.20466 13.5 4.55911 13.5H6.86174C6.94671 13.4995 7.03074 13.4688 7.10877 13.4098C7.18679 13.3509 7.25719 13.2648 7.31572 13.1569L9.24207 9.34539C9.6466 8.60739 10.3382 9.13051 10.3382 10.1734V25.8266C10.3382 26.8774 9.63825 27.396 9.23629 26.6434L7.31636 22.8533C7.25766 22.7423 7.18655 22.6536 7.10746 22.5928C7.02836 22.5321 6.94297 22.5005 6.8566 22.5H4.55911C4.20466 22.5 3.91699 21.9758 3.91699 21.3289Z" stroke="#7264AA" stroke-width="2" stroke-linecap="round" stroke-linejoin="round"/>
</svg>
