<svg width="50" height="50" viewBox="0 0 50 50" fill="none" xmlns="http://www.w3.org/2000/svg">
<path d="M22.1189 2.50016C18.9353 2.81266 16.738 3.34977 14.2575 4.40446C10.1169 6.1818 6.34737 9.3654 3.77901 13.2814C1.83565 16.2404 0.47823 20.0783 0.0876051 23.7013C-0.0784105 25.3322 0.0192457 28.7404 0.282918 30.2248C0.546589 31.6994 0.976277 33.3302 1.4255 34.5509C2.5876 37.6955 4.81417 41.0939 7.18721 43.3595C10.7321 46.7384 14.9021 48.8478 19.7751 49.717C21.2595 49.9806 24.6774 50.0783 26.2985 49.9025C33.281 49.1506 39.6091 45.3322 43.5251 39.5021C48.2419 32.4904 48.8474 23.3986 45.1169 15.7619C41.6892 8.75016 35.029 3.88688 27.2946 2.72477C26.0837 2.53922 23.0271 2.41227 22.1189 2.50016ZM26.2692 5.215C32.4606 5.98649 37.9294 9.37516 41.4255 14.6095C43.7009 18.008 44.9216 22.0998 44.9216 26.2892C44.9216 30.9767 43.4177 35.3615 40.488 39.2091C39.6774 40.2834 37.6462 42.2853 36.5231 43.1252C30.0388 47.9884 21.611 48.8088 14.4626 45.2638C10.1267 43.1056 6.89425 39.8732 4.73604 35.5373C1.19112 28.3888 2.01143 19.9611 6.87471 13.4767C7.71456 12.3537 9.71651 10.3224 10.7907 9.51188C13.8767 7.16813 17.2849 5.74235 21.0446 5.23454C22.3532 5.04899 24.9021 5.04899 26.2692 5.215Z" fill="black"/>
<path d="M19.3164 12.6572C19.1699 12.7353 18.9746 12.9306 18.8965 13.0868C18.7012 13.4579 18.7109 14.1513 18.9062 14.454C18.9941 14.5907 21.6699 17.3056 24.8437 20.4892L30.6152 26.2704L24.7949 32.1103C21.582 35.3134 18.916 38.038 18.8574 38.1552C18.7988 38.2724 18.75 38.5654 18.75 38.8095C18.75 39.62 19.4434 40.1474 20.293 39.9911C20.6055 39.9325 21.4648 39.122 27.1289 33.4677C32.2558 28.3407 33.623 26.9247 33.7109 26.6415C33.9453 25.8505 34.1992 26.1435 27.1191 19.0634L20.5566 12.5009H20.0684C19.7949 12.5107 19.4629 12.5693 19.3164 12.6572Z" fill="black"/>
</svg>
