<svg width="14" height="14" viewBox="0 0 14 14" fill="none" xmlns="http://www.w3.org/2000/svg">
<path d="M8.65087 5.35499C8.32454 5.0283 7.90862 4.80577 7.45575 4.71559C7.00289 4.6254 6.53345 4.67163 6.10686 4.84839C5.68028 5.02514 5.31573 5.32449 5.05936 5.70854C4.803 6.09259 4.66632 6.54408 4.66669 7.00584C4.6662 7.62201 4.90947 8.21336 5.34337 8.65084" stroke="#4D4D4D" stroke-linecap="round" stroke-linejoin="round"/>
<path d="M7 9.33916C7.61884 9.33916 8.21233 9.09333 8.64992 8.65575C9.0875 8.21816 9.33333 7.62467 9.33333 7.00583" stroke="#4D4D4D" stroke-linecap="round" stroke-linejoin="round"/>
<path d="M10.2725 3.72751L3.72169 10.2783C2.69548 9.33132 1.83226 8.22174 1.16669 6.99417C3.91419 2.19333 7.25671 1.10251 10.2725 3.72751Z" stroke="#4D4D4D" stroke-linecap="round" stroke-linejoin="round"/>
<path d="M12.2497 1.75L10.2722 3.7275" stroke="#4D4D4D" stroke-linecap="round" stroke-linejoin="round"/>
<path d="M3.72167 10.2783L1.75 12.25" stroke="#4D4D4D" stroke-linecap="round" stroke-linejoin="round"/>
<path d="M11.4155 4.91748C11.9467 5.5719 12.4209 6.27057 12.833 7.00582C10.4997 11.0892 7.74054 12.4833 5.11554 11.2175" stroke="#4D4D4D" stroke-linecap="round" stroke-linejoin="round"/>
</svg>
