<svg width="50" height="60" viewBox="0 0 50 60" fill="none" xmlns="http://www.w3.org/2000/svg">
<path d="M19.0864 0.0528614C13.7888 0.492545 9.40267 2.50865 5.67072 6.21915C3.29 8.58915 1.62778 11.2809 0.759135 14.2085C-0.30254 17.8011 -0.24892 22.1014 0.90927 25.7046C1.34895 27.0666 2.47497 29.2864 3.34361 30.4983C4.20153 31.6886 6.17475 33.7798 7.33294 34.7128C10.2284 37.0506 13.4992 38.5198 17.2097 39.1418C18.6146 39.3777 21.9176 39.4742 23.4404 39.3134C28.427 38.7879 32.7273 36.7718 36.1376 33.3616C37.3386 32.1605 39.9982 28.9004 39.8695 28.7931C39.8159 28.7502 38.0786 28.1497 35.9981 27.4526L32.2233 26.1872L31.612 26.8735C29.2099 29.5974 27.0543 30.9379 23.9122 31.6457C22.8934 31.8709 19.7942 31.9674 18.4001 31.8066C17.7995 31.7315 16.9309 31.5814 16.4805 31.4634C15.644 31.2382 14.3035 30.6377 14.2392 30.4446C14.2177 30.391 18.6038 26.2194 23.9873 21.1791C29.3707 16.1388 34.722 11.0986 35.9016 9.98327L38.0357 7.95644L36.6523 6.57304C35.9016 5.81164 34.8936 4.86793 34.4217 4.49259C31.6013 2.19766 27.8586 0.642681 24.0195 0.170825C22.7111 0.00996546 20.2875 -0.0543784 19.0864 0.0528614ZM24.9953 7.75268C25.5315 7.87065 26.1214 8.04223 26.3144 8.14947L26.6576 8.32105L25.9819 8.95377C25.6066 9.29694 21.6173 13.0503 17.1025 17.297L8.89864 25.0076L8.70561 24.718C8.60909 24.5572 8.41606 24.0424 8.28737 23.5813C8.08362 22.8306 8.05144 22.4553 8.05144 20.214C8.04072 17.8976 8.06217 17.6187 8.28737 16.7823C9.23108 13.3506 11.6761 10.4658 15.0542 8.79291C16.1695 8.23526 17.4671 7.81703 18.7647 7.61327C20.1374 7.38807 23.6548 7.47386 24.9953 7.75268Z" fill="black"/>
<path d="M41.746 12.7824C41.4028 12.8038 41.124 12.8682 41.124 12.9218C41.124 12.9754 40.9524 13.0505 40.7486 13.0934C40.5449 13.1256 40.3733 13.2006 40.3733 13.2435C40.3733 13.2971 40.2446 13.3508 40.0837 13.3722C39.9122 13.3937 39.7942 13.458 39.8156 13.5331C39.8264 13.6081 39.7406 13.6725 39.6226 13.6725C39.5047 13.6725 39.376 13.7476 39.3438 13.8333C39.3009 13.9191 39.2258 13.9942 39.1615 13.9942C39.0971 13.9942 38.8612 14.1872 38.6467 14.4232C38.4215 14.6591 38.1963 14.8521 38.132 14.8521C38.0676 14.8521 38.014 14.9272 38.014 15.013C38.014 15.0988 37.9711 15.1738 37.9068 15.1738C37.8532 15.1738 37.7995 15.2489 37.7995 15.3347C37.7995 15.4205 37.7566 15.4956 37.6923 15.4956C37.6387 15.4956 37.5851 15.5706 37.5851 15.6564C37.5851 15.7422 37.5314 15.8173 37.4778 15.8173C37.4135 15.8173 37.2312 16.0961 37.0703 16.4285C36.7915 17.0291 36.7808 17.1149 36.7808 18.82C36.7808 20.3214 36.8129 20.6538 36.9845 21.0184C37.3062 21.7155 37.9497 22.6806 38.0998 22.6806C38.1642 22.6806 38.2285 22.7557 38.2285 22.8415C38.2285 22.9273 38.3036 23.0023 38.3894 23.0023C38.4752 23.0023 38.5502 23.0774 38.5502 23.1739C38.5502 23.2597 38.6038 23.3026 38.6575 23.2704C38.7218 23.2383 38.7969 23.2812 38.829 23.367C38.8612 23.4635 38.9685 23.5385 39.0435 23.5385C39.1293 23.5385 39.2258 23.6136 39.258 23.6994C39.3009 23.7852 39.3974 23.8603 39.4725 23.8603C39.5583 23.8603 39.6548 23.9353 39.687 24.0211C39.7299 24.1069 39.8693 24.182 40.0087 24.182C40.1695 24.182 40.2661 24.2463 40.2661 24.3428C40.2661 24.4501 40.384 24.5037 40.6414 24.5037C40.8988 24.5037 41.0167 24.5573 41.0167 24.6646C41.0167 24.7933 41.1669 24.8254 41.7138 24.8254C42.2285 24.8254 42.4109 24.8683 42.4109 24.9756C42.4109 25.0828 42.5932 25.115 43.1615 25.1042C43.687 25.0935 43.9122 25.0506 43.9122 24.9648C43.9122 24.8683 44.1267 24.8254 44.6629 24.8254C45.2849 24.8254 45.3921 24.7933 45.3492 24.6646C45.2956 24.5359 45.3707 24.5037 45.6709 24.5037C45.939 24.5037 46.057 24.4608 46.057 24.3428C46.057 24.2356 46.1642 24.182 46.3787 24.182C46.5718 24.182 46.6897 24.1284 46.6683 24.0533C46.6576 23.9782 46.7541 23.9032 46.8935 23.8817C47.0222 23.8603 47.1294 23.7745 47.1294 23.6887C47.1294 23.6029 47.2045 23.5385 47.2903 23.5385C47.3761 23.5385 47.4511 23.4849 47.4511 23.4313C47.4511 23.367 47.5476 23.3241 47.6656 23.3241C47.7836 23.3241 47.8801 23.249 47.8801 23.1632C47.8801 23.0774 47.9337 23.0023 47.9873 23.0023C48.0517 23.0023 48.0946 22.9273 48.0946 22.8415C48.0946 22.7557 48.1696 22.6806 48.2554 22.6806C48.3412 22.6806 48.4163 22.627 48.4163 22.5734C48.4163 22.509 48.5021 22.3589 48.62 22.2409C48.7273 22.123 48.9096 21.8442 49.0168 21.6297C49.1348 21.4152 49.2742 21.2007 49.3278 21.1578C49.478 21.0506 49.4672 16.5894 49.3278 16.4822C49.2635 16.4393 49.1241 16.2141 49.0061 15.9781C48.8881 15.7422 48.6737 15.4205 48.5235 15.2704C48.3734 15.1095 48.1375 14.8414 47.9873 14.6591C47.8372 14.4768 47.6656 14.3266 47.6013 14.3159C47.5262 14.3159 47.4511 14.2409 47.4082 14.1551C47.3761 14.0693 47.2795 13.9942 47.1938 13.9942C47.1187 13.9942 47.0222 13.9191 46.9793 13.8333C46.9471 13.7476 46.8506 13.6725 46.7648 13.6725C46.6897 13.6725 46.5932 13.5974 46.5503 13.5116C46.5181 13.4258 46.368 13.3508 46.2179 13.3508C46.0677 13.3508 45.9498 13.2971 45.9498 13.2435C45.9498 13.1792 45.8318 13.1363 45.6924 13.1363C45.5423 13.1363 45.3599 13.0612 45.2742 12.9754C45.1026 12.8038 42.9792 12.6859 41.746 12.7824Z" fill="black"/>
<path d="M38.7219 37.0721C38.5717 37.2866 38.5503 38.5628 38.5503 48.654V60H43.3761H48.2019V48.5468C48.2019 39.7853 48.1697 37.0614 48.0732 36.9649C47.9767 36.8684 46.797 36.8362 43.419 36.8362H38.8827L38.7219 37.0721Z" fill="black"/>
</svg>
