<svg width="35" height="35" viewBox="0 0 35 35" fill="none" xmlns="http://www.w3.org/2000/svg">
<path fill-rule="evenodd" clip-rule="evenodd" d="M0 17.5C0 7.83504 7.83504 0 17.5 0C27.165 0 35 7.83504 35 17.5C35 27.165 27.165 35 17.5 35C7.83504 35 0 27.165 0 17.5ZM17.5009 8.16667C14.9661 8.16667 14.6479 8.17775 13.6524 8.22303C12.6588 8.26853 11.9806 8.42589 11.3871 8.65667C10.7732 8.89503 10.2525 9.21397 9.73372 9.73292C9.21455 10.2517 8.89562 10.7724 8.65645 11.3861C8.42508 11.9798 8.26758 12.6582 8.22289 13.6514C8.17833 14.647 8.16667 14.9653 8.16667 17.5001C8.16667 20.0349 8.17797 20.3521 8.22303 21.3476C8.26875 22.3412 8.42603 23.0194 8.65667 23.6129C8.89525 24.2268 9.21411 24.7475 9.73314 25.2663C10.2517 25.7854 10.7724 26.1051 11.3859 26.3436C11.9798 26.5743 12.6582 26.7316 13.6516 26.7771C14.6472 26.8225 14.9651 26.8336 17.4997 26.8336C20.0347 26.8336 20.3518 26.8225 21.3474 26.7771C22.341 26.7316 23.02 26.5743 23.6139 26.3436C24.2276 26.1051 24.7475 25.7854 25.2661 25.2663C25.7852 24.7475 26.1042 24.2268 26.3433 23.6131C26.5728 23.0194 26.7303 22.341 26.777 21.3478C26.8217 20.3522 26.8333 20.0349 26.8333 17.5001C26.8333 14.9653 26.8217 14.6472 26.777 13.6516C26.7303 12.658 26.5728 11.9798 26.3433 11.3863C26.1042 10.7724 25.7852 10.2517 25.2661 9.73292C24.7469 9.21375 24.2277 8.89489 23.6133 8.65667C23.0183 8.42589 22.3397 8.26853 21.3461 8.22303C20.3505 8.17775 20.0336 8.16667 17.498 8.16667H17.5009Z" fill="white"/>
<path fill-rule="evenodd" clip-rule="evenodd" d="M16.6636 9.84877C16.9121 9.8484 17.1894 9.84877 17.5009 9.84877C19.9929 9.84877 20.2883 9.85774 21.2724 9.90244C22.1824 9.94407 22.6763 10.0961 23.0053 10.2239C23.4409 10.393 23.7514 10.5952 24.0779 10.9219C24.4045 11.2486 24.6068 11.5597 24.7763 11.9953C24.9041 12.3239 25.0563 12.8178 25.0977 13.7278C25.1424 14.7117 25.1522 15.0073 25.1522 17.4981C25.1522 19.9889 25.1424 20.2845 25.0977 21.2684C25.0561 22.1784 24.9041 22.6723 24.7763 23.0009C24.6072 23.4365 24.4045 23.7466 24.0779 24.0731C23.7512 24.3998 23.4411 24.602 23.0053 24.7712C22.6767 24.8995 22.1824 25.0512 21.2724 25.0928C20.2885 25.1375 19.9929 25.1472 17.5009 25.1472C15.0087 25.1472 14.7133 25.1375 13.7295 25.0928C12.8195 25.0508 12.3255 24.8987 11.9964 24.7709C11.5608 24.6018 11.2496 24.3996 10.923 24.0729C10.5963 23.7462 10.3941 23.4359 10.2246 23.0002C10.0968 22.6715 9.94457 22.1777 9.90315 21.2677C9.85838 20.2837 9.84949 19.9882 9.84949 17.4958C9.84949 15.0033 9.85838 14.7093 9.90315 13.7255C9.94472 12.8155 10.0968 12.3215 10.2246 11.9925C10.3937 11.557 10.5963 11.2459 10.923 10.9192C11.2496 10.5925 11.5608 10.3903 11.9964 10.2207C12.3254 10.0924 12.8195 9.94072 13.7295 9.89894C14.5905 9.86007 14.9241 9.8484 16.6636 9.84644V9.84877ZM22.483 11.3985C21.8647 11.3985 21.363 11.8996 21.363 12.5181C21.363 13.1364 21.8647 13.6381 22.483 13.6381C23.1014 13.6381 23.603 13.1364 23.603 12.5181C23.603 11.8998 23.1014 11.3985 22.483 11.3985ZM17.5009 12.7071C14.8539 12.7071 12.7078 14.8533 12.7078 17.5002C12.7078 20.1472 14.8539 22.2924 17.5009 22.2924C20.1479 22.2924 22.2932 20.1472 22.2932 17.5002C22.2932 14.8533 20.1479 12.7071 17.5009 12.7071Z" fill="white"/>
<path fill-rule="evenodd" clip-rule="evenodd" d="M17.5008 14.3889C19.2189 14.3889 20.6119 15.7818 20.6119 17.5C20.6119 19.2182 19.2189 20.6112 17.5008 20.6112C15.7824 20.6112 14.3896 19.2182 14.3896 17.5C14.3896 15.7818 15.7824 14.3889 17.5008 14.3889Z" fill="white"/>
</svg>
