<svg width="35" height="43" viewBox="0 0 35 43" fill="none" xmlns="http://www.w3.org/2000/svg">
<path d="M13.5128 0.0375655C9.76215 0.348852 6.65688 1.77621 4.01475 4.40317C2.32925 6.08107 1.15243 7.98675 0.537451 10.0595C-0.214192 12.6029 -0.17623 15.6474 0.643744 18.1985C0.95503 19.1627 1.75223 20.7343 2.36721 21.5922C2.97459 22.435 4.37159 23.9155 5.19156 24.576C7.24149 26.2312 9.55716 27.2713 12.1841 27.7117C13.1787 27.8787 15.5172 27.947 16.5953 27.8332C20.1257 27.4611 23.1702 26.0338 25.5846 23.6194C26.435 22.7691 28.3179 20.461 28.2267 20.3851C28.1888 20.3547 26.9588 19.9295 25.4859 19.436L22.8134 18.5401L22.3806 19.026C20.68 20.9545 19.1539 21.9035 16.9293 22.4046C16.2081 22.5641 14.0139 22.6324 13.0269 22.5185C12.6017 22.4654 11.9867 22.3591 11.6678 22.2756C11.0756 22.1161 10.1266 21.6909 10.081 21.5543C10.0658 21.5163 13.1711 18.5629 16.9825 14.9945C20.7938 11.4261 24.5824 7.85768 25.4176 7.06808L26.9285 5.63313L25.949 4.65371C25.4176 4.11466 24.7039 3.44653 24.3698 3.1808C22.373 1.55604 19.7233 0.455145 17.0053 0.121081C16.079 0.00719611 14.3631 -0.038358 13.5128 0.0375655ZM17.6962 5.48887C18.0758 5.57239 18.4934 5.69386 18.63 5.76979L18.873 5.89127L18.3947 6.33921C18.1289 6.58217 15.3046 9.23949 12.1082 12.2461L6.30004 17.705L6.16338 17.5C6.09505 17.3861 5.95839 17.0216 5.86728 16.6952C5.72302 16.1637 5.70025 15.898 5.70025 14.3112C5.69266 12.6712 5.70784 12.4738 5.86728 11.8816C6.53541 9.45208 8.26646 7.40974 10.6581 6.22533C11.4477 5.83053 12.3663 5.53443 13.285 5.39017C14.2568 5.23073 16.7471 5.29147 17.6962 5.48887Z" fill="#DADADA"/>
<path d="M29.5553 9.04967C29.3123 9.06485 29.1149 9.11041 29.1149 9.14837C29.1149 9.18633 28.9935 9.23948 28.8492 9.26985C28.705 9.29262 28.5835 9.34577 28.5835 9.37614C28.5835 9.4141 28.4924 9.45206 28.3785 9.46725C28.257 9.48243 28.1735 9.52799 28.1887 9.58113C28.1963 9.63428 28.1355 9.67983 28.052 9.67983C27.9685 9.67983 27.8774 9.73298 27.8546 9.79372C27.8242 9.85446 27.7711 9.9076 27.7255 9.9076C27.68 9.9076 27.513 10.0443 27.3611 10.2113C27.2017 10.3783 27.0422 10.515 26.9967 10.515C26.9511 10.515 26.9132 10.5681 26.9132 10.6289C26.9132 10.6896 26.8828 10.7428 26.8372 10.7428C26.7993 10.7428 26.7613 10.7959 26.7613 10.8566C26.7613 10.9174 26.7309 10.9705 26.6854 10.9705C26.6474 10.9705 26.6095 11.0237 26.6095 11.0844C26.6095 11.1452 26.5715 11.1983 26.5335 11.1983C26.488 11.1983 26.3589 11.3957 26.245 11.6311C26.0476 12.0562 26.04 12.117 26.04 13.3242C26.04 14.3871 26.0628 14.6225 26.1843 14.8806C26.4121 15.3741 26.8676 16.0574 26.9739 16.0574C27.0195 16.0574 27.065 16.1106 27.065 16.1713C27.065 16.232 27.1182 16.2852 27.1789 16.2852C27.2396 16.2852 27.2928 16.3383 27.2928 16.4067C27.2928 16.4674 27.3307 16.4978 27.3687 16.475C27.4143 16.4522 27.4674 16.4826 27.4902 16.5433C27.513 16.6116 27.5889 16.6648 27.642 16.6648C27.7028 16.6648 27.7711 16.7179 27.7939 16.7787C27.8242 16.8394 27.8926 16.8926 27.9457 16.8926C28.0065 16.8926 28.0748 16.9457 28.0976 17.0064C28.1279 17.0672 28.2266 17.1203 28.3253 17.1203C28.4392 17.1203 28.5076 17.1659 28.5076 17.2342C28.5076 17.3101 28.5911 17.3481 28.7733 17.3481C28.9555 17.3481 29.039 17.3861 29.039 17.462C29.039 17.5531 29.1453 17.5759 29.5325 17.5759C29.897 17.5759 30.026 17.6062 30.026 17.6822C30.026 17.7581 30.1551 17.7809 30.5575 17.7733C30.9295 17.7657 31.089 17.7353 31.089 17.6746C31.089 17.6062 31.2408 17.5759 31.6204 17.5759C32.0608 17.5759 32.1367 17.5531 32.1063 17.462C32.0684 17.3709 32.1215 17.3481 32.3341 17.3481C32.5239 17.3481 32.6074 17.3177 32.6074 17.2342C32.6074 17.1583 32.6833 17.1203 32.8352 17.1203C32.9719 17.1203 33.0554 17.0824 33.0402 17.0292C33.0326 16.9761 33.1009 16.9229 33.1996 16.9077C33.2907 16.8926 33.3667 16.8318 33.3667 16.7711C33.3667 16.7103 33.4198 16.6648 33.4805 16.6648C33.5413 16.6648 33.5944 16.6268 33.5944 16.5889C33.5944 16.5433 33.6628 16.5129 33.7463 16.5129C33.8298 16.5129 33.8981 16.4598 33.8981 16.3991C33.8981 16.3383 33.9361 16.2852 33.974 16.2852C34.0196 16.2852 34.05 16.232 34.05 16.1713C34.05 16.1106 34.1031 16.0574 34.1639 16.0574C34.2246 16.0574 34.2777 16.0194 34.2777 15.9815C34.2777 15.9359 34.3385 15.8296 34.422 15.7461C34.4979 15.6626 34.627 15.4652 34.7029 15.3134C34.7864 15.1615 34.8851 15.0097 34.9231 14.9793C35.0294 14.9034 35.0218 11.745 34.9231 11.669C34.8775 11.6387 34.7788 11.4792 34.6953 11.3122C34.6118 11.1452 34.46 10.9174 34.3537 10.8111C34.2474 10.6972 34.0803 10.5074 33.974 10.3783C33.8677 10.2493 33.7463 10.143 33.7007 10.1354C33.6476 10.1354 33.5944 10.0822 33.5641 10.0215C33.5413 9.96075 33.4729 9.9076 33.4122 9.9076C33.3591 9.9076 33.2907 9.85446 33.2604 9.79372C33.2376 9.73298 33.1693 9.67983 33.1085 9.67983C33.0554 9.67983 32.987 9.62669 32.9567 9.56595C32.9339 9.50521 32.8276 9.45206 32.7213 9.45206C32.615 9.45206 32.5315 9.4141 32.5315 9.37614C32.5315 9.33059 32.448 9.30022 32.3493 9.30022C32.243 9.30022 32.1139 9.24707 32.0532 9.18633C31.9317 9.06485 30.4284 8.98134 29.5553 9.04967Z" fill="#DADADA"/>
<path d="M27.4142 26.2463C27.3079 26.3982 27.2927 27.3017 27.2927 34.4461V42.4788H30.7093H34.1258V34.3701C34.1258 28.1672 34.1031 26.2387 34.0347 26.1704C33.9664 26.1021 33.1312 26.0793 30.7397 26.0793H27.5281L27.4142 26.2463Z" fill="#DADADA"/>
</svg>
