<svg width="40" height="40" viewBox="0 0 40 40" fill="none" xmlns="http://www.w3.org/2000/svg">
<path d="M20 40C16.0444 40 12.1776 38.827 8.8886 36.6294C5.59962 34.4318 3.03617 31.3082 1.52242 27.6537C0.00866569 23.9991 -0.387401 19.9778 0.384303 16.0982C1.15601 12.2186 3.06082 8.65492 5.85787 5.85787C8.65492 3.06082 12.2186 1.15601 16.0982 0.384303C19.9778 -0.387401 23.9991 0.00866569 27.6537 1.52242C31.3082 3.03617 34.4318 5.59962 36.6294 8.8886C38.827 12.1776 40 16.0444 40 20C40 25.3043 37.8929 30.3914 34.1421 34.1421C30.3914 37.8929 25.3043 40 20 40ZM20 3.07693C16.6529 3.07693 13.381 4.06945 10.598 5.92898C7.81506 7.78851 5.64599 10.4315 4.36512 13.5238C3.08426 16.6161 2.74912 20.0188 3.4021 23.3015C4.05508 26.5843 5.66685 29.5997 8.03358 31.9664C10.4003 34.3332 13.4157 35.9449 16.6985 36.5979C19.9812 37.2509 23.3839 36.9158 26.4762 35.6349C29.5685 34.354 32.2115 32.1849 34.071 29.402C35.9306 26.619 36.9231 23.3471 36.9231 20C36.9231 15.5117 35.1401 11.2073 31.9664 8.03358C28.7927 4.85989 24.4883 3.07693 20 3.07693Z" fill="white"/>
<path d="M20 21.5384C18.4787 21.5384 16.9914 21.0873 15.7264 20.242C14.4614 19.3968 13.4755 18.1954 12.8933 16.7898C12.3111 15.3843 12.1587 13.8376 12.4555 12.3454C12.7524 10.8533 13.485 9.48262 14.5608 8.40684C15.6366 7.33105 17.0072 6.59843 18.4994 6.30162C19.9915 6.00481 21.5382 6.15714 22.9438 6.73935C24.3494 7.32157 25.5507 8.30751 26.396 9.5725C27.2412 10.8375 27.6924 12.3247 27.6924 13.8461C27.6924 15.8862 26.8819 17.8428 25.4393 19.2854C23.9967 20.728 22.0402 21.5384 20 21.5384ZM20 9.23073C19.0872 9.23073 18.1949 9.50142 17.4359 10.0086C16.6769 10.5157 16.0853 11.2365 15.736 12.0799C15.3867 12.9232 15.2953 13.8512 15.4733 14.7465C15.6514 15.6418 16.091 16.4642 16.7365 17.1097C17.382 17.7552 18.2043 18.1947 19.0996 18.3728C19.9949 18.5509 20.9229 18.4595 21.7663 18.1102C22.6096 17.7608 23.3305 17.1693 23.8376 16.4103C24.3447 15.6513 24.6154 14.759 24.6154 13.8461C24.6154 12.622 24.1292 11.4481 23.2636 10.5825C22.3981 9.717 21.2241 9.23073 20 9.23073Z" fill="white"/>
<path d="M34.6923 32.3077C34.4788 32.3092 34.2673 32.2661 34.0713 32.1814C33.8752 32.0966 33.699 31.972 33.5538 31.8154C31.9209 30.0342 29.936 28.6113 27.7248 27.6368C25.5135 26.6623 23.1241 26.1573 20.7077 26.1539H19.2923C14.788 26.1442 10.4567 27.8877 7.21538 31.0154C6.9159 31.2625 6.53405 31.3873 6.14644 31.3646C5.75882 31.342 5.39411 31.1736 5.12546 30.8932C4.85682 30.6129 4.7041 30.2414 4.69795 29.8531C4.6918 29.4649 4.83267 29.0887 5.0923 28.8C8.90134 25.1184 13.9948 23.0656 19.2923 23.077H20.7077C23.548 23.0834 26.3563 23.6771 28.9562 24.8208C31.5561 25.9646 33.8914 27.6336 35.8154 29.7231C36.0186 29.9423 36.1537 30.2159 36.2039 30.5106C36.2542 30.8053 36.2175 31.1082 36.0984 31.3824C35.9792 31.6565 35.7828 31.8901 35.5331 32.0544C35.2834 32.2187 34.9912 32.3068 34.6923 32.3077Z" fill="white"/>
</svg>
