<svg width="40" height="40" viewBox="0 0 40 40" fill="none" xmlns="http://www.w3.org/2000/svg">
<path d="M8.33333 6.66675H15L18.3333 15.0001L14.1667 17.5001C15.9516 21.1193 18.8808 24.0485 22.5 25.8334L25 21.6667L33.3333 25.0001V31.6667C33.3333 32.5508 32.9821 33.3986 32.357 34.0238C31.7319 34.6489 30.8841 35.0001 30 35.0001C23.4988 34.605 17.3669 31.8442 12.7614 27.2387C8.15584 22.6332 5.39508 16.5013 5 10.0001C5 9.11603 5.35119 8.26818 5.97631 7.64306C6.60143 7.01794 7.44928 6.66675 8.33333 6.66675" stroke="white" stroke-width="2" stroke-linecap="round" stroke-linejoin="round"/>
<path d="M25 11.6667C25.8841 11.6667 26.7319 12.0179 27.357 12.6431C27.9821 13.2682 28.3333 14.116 28.3333 15.0001" stroke="white" stroke-width="2" stroke-linecap="round" stroke-linejoin="round"/>
<path d="M25 5C27.6522 5 30.1957 6.05357 32.0711 7.92893C33.9464 9.8043 35 12.3478 35 15" stroke="white" stroke-width="2" stroke-linecap="round" stroke-linejoin="round"/>
</svg>
