<?xml version="1.0" standalone="no"?>
<!DOCTYPE svg PUBLIC "-//W3C//DTD SVG 20010904//EN"
 "http://www.w3.org/TR/2001/REC-SVG-20010904/DTD/svg10.dtd">
<svg version="1.0" xmlns="http://www.w3.org/2000/svg"
 width="1000.000000pt" height="1000.000000pt" viewBox="0 0 1000.000000 1000.000000"
 preserveAspectRatio="xMidYMid meet">
<metadata>
Created by potrace 1.16, written by Peter Selinger 2001-2019
</metadata>
<g transform="translate(0.000000,1000.000000) scale(0.100000,-0.100000)"
fill="#000000" stroke="none">
<path d="M4929 6553 c-60 -64 -499 -517 -884 -913 -94 -96 -247 -254 -341
-350 -94 -96 -321 -330 -504 -520 -338 -348 -502 -518 -840 -865 -102 -104
-225 -231 -273 -281 l-87 -90 81 -79 81 -79 161 165 c195 198 407 415 832 854
176 182 399 411 495 510 210 215 436 447 666 684 93 96 248 256 345 355 96
100 212 219 257 266 l82 85 106 -110 c59 -60 174 -180 258 -265 83 -85 295
-303 471 -485 176 -181 398 -410 494 -507 96 -98 177 -182 181 -188 4 -6 89
-95 191 -198 101 -103 326 -333 499 -512 173 -179 388 -399 477 -490 l162
-165 80 80 80 80 -101 105 c-187 193 -731 753 -903 930 -163 167 -358 368
-675 695 -80 83 -225 231 -322 330 -97 99 -185 190 -196 203 -11 12 -159 165
-329 340 -171 174 -345 354 -388 400 -43 45 -81 82 -85 82 -4 0 -36 -30 -71
-67z"/>
</g>
</svg>
